<?xml version="1.0" encoding="UTF-8"?><svg xmlns="http://www.w3.org/2000/svg" xmlns:xlink="http://www.w3.org/1999/xlink" height="419.2" preserveAspectRatio="xMidYMid meet" version="1.0" viewBox="-0.9 -0.0 200.3 419.2" width="200.3" zoomAndPan="magnify"><g id="change1_1"><path d="M85.42,416.18c-5.21-0.01-10.42-0.25-15.48-0.71c-10.07-0.91-19.59-2.56-28.29-4.9 c-5.72-1.54-13.09-3.77-19.42-7.47c-1.58-0.92-3.86-2.37-5.38-4.25c-1.67-2.06-1.54-4.6,0.48-9.39c1.52-3.62,3.77-6.69,6.85-9.38 c1.12-0.98,2.1-1.92,2.98-2.88c0.28-0.31,0.54-0.63,0.8-0.95c0.11-0.13,0.21-0.26,0.32-0.39l1.43-1.71c0,0-2.77-3.94-3.03-4.4 c-0.28-0.5-0.55-0.97-0.8-1.33l-2-2.91c-1.25-1.83-2.57-3.78-3.84-5.78c-2.58-4.06-4.79-8.36-6.74-13.14 c-3.46-8.48-6.07-17.6-7.77-27.1c-3.15-17.64-3.34-37.19-0.58-58.12c2.54-19.29,6.98-38.44,13.19-56.91 c4.45-13.24,10.15-26.3,15.66-38.93c2.79-6.4,5.69-13.02,8.39-19.61c4.9-11.94,8.1-21.27,10.38-30.24 c2.64-10.42,3.97-21.23,4.05-33.05c0.04-5.83-0.16-11.74-0.37-17.29l-0.09-2.36c-0.08-2.07-0.16-4.13-0.23-6.2 c-0.01-0.43-0.04-0.88-0.07-1.32c-0.05-0.82,0.28-4.91,0.28-4.91l-2.18-0.89c-0.2-0.08-0.4-0.17-0.6-0.27l-0.12-0.06 c0,0-0.63-0.26-0.7-0.29l-0.17-0.21l-0.46-0.27c-0.46-0.27-0.99-0.57-1.56-0.84c-0.43-0.2-0.86-0.39-1.29-0.58 c-0.68-0.3-1.33-0.59-1.93-0.9c-1.7-0.88-3.18-2.28-4.75-3.77c-1.59-1.51-3.24-3.07-5.31-4.29c-1.14-0.68-2.29-1.17-3.4-1.66 c-0.9-0.39-1.75-0.76-2.52-1.19c-1.15-0.65-2.36-1.49-3.79-2.66c-3.07-2.51-5.27-5.3-6.36-8.08c-0.83-2.1-0.81-3.4,0.04-3.86 c1.66-0.88,4.23-0.9,6.5-0.92l0.95,0c4.43,0,8.99,0.33,13.4,0.65c3.27,0.24,6.65,0.49,10,0.6c7.58,0.26,15.05,0.3,22,0.3l11.52-0.01 c3.06,0,6.13,0.03,9.2,0.05c3.2,0.03,6.41,0.05,9.61,0.05c9.6,0,20.89-0.22,32.05-1.81c-1.52,7.48-3.14,14.12-6.87,19.79 c-3.29,5-7.64,8.78-12.59,10.92l-1.76,0.76l-0.05,1.91c-0.17,6.75-0.08,7.64,0.33,10.3c0.29,1.88,0.7,4.05,1.62,5.81 c4.09,7.88,12.51,8.61,19.27,9.2l0.2,0.02c5.9,0.51,12.08,0.75,19.45,0.75c2.47,0,4.94-0.03,7.43-0.07c0.55-0.01,1.1-0.01,1.65-0.01 c8.81,0,14.87,1.41,19.64,4.57c5.47,3.63,7.84,9.49,8.86,13.76c1.26,5.27,1.58,10.97,1.89,16.47c0.06,1.02,0.12,2.04,0.18,3.05 c0.68,10.85,0.77,19.13,0.3,26.84c-0.27,4.46-0.76,8.9-1.45,13.19c-0.59,3.69-1.4,8.01-2.89,12.03c-2.52,6.8-6.6,11.49-12.14,13.94 c-3.03,1.34-6.22,2.1-9.22,2.72l-0.49,0.1c-3.57,0.73-7.27,1.49-10.71,3.3c-1.51,0.79-3.4,1.91-4.6,3.54 c-0.95,1.29-1.58,2.92-1.86,4.86c-0.4,2.71-0.13,5.67,0.8,8.8c4.11,12.51,7.52,25.86,10.15,39.77c6.28,33.16,5.93,61.46-1.06,86.51 c-2.21,7.9-4.67,14.52-7.53,20.23c-2.46,4.91-5.68,9.6-8.79,14.13c-1.03,1.51-2.07,3.01-3.08,4.53c-0.03,0.04-0.09,0.13-0.16,0.25 c-0.07,0.11-0.18,0.32-0.29,0.46l-1.29,1.68l1.14,1.8c0.19,0.29,0.34,0.52,0.5,0.72c0.79,0.99,1.68,1.85,2.52,2.65 c0.44,0.42,0.87,0.82,1.31,1.22c1.36,1.25,2.64,2.44,3.69,3.82c2.79,3.67,6.73,10.91,3.78,14.7c-2.2,2.82-5.8,4.75-9.03,6.28 c-4.49,2.12-9.61,3.94-15.65,5.58C115.7,414.23,100.87,416.15,85.42,416.18z M127.88,98.95c-2.49,0-4.43,0.4-6.12,1.24 c-3.06,1.54-4.81,4.24-4.68,7.22c0.07,1.5,0.25,4.31,0.71,6.37c2.99,13.24,8,25.54,13.31,38.03l0.07,0.18l0.1,0.16 c1.03,1.76,2.16,3.18,3.46,4.36c1.74,1.57,3.85,2.91,6.47,4.11c4.09,1.87,8.77,2.86,13.53,2.86c0.5,0,1.01-0.01,1.51-0.03 c5.48-0.24,9.65-1.85,12.4-4.78c2.36-2.51,3.86-6.23,4.47-11.04c0.5-3.92,0.45-7.87,0.41-11.68c-0.01-1.02-0.02-2.04-0.02-3.05 c0-2.24,0.05-4.54,0.1-6.77c0.08-3.45,0.15-7.01,0.04-10.54c-0.07-2.22-0.29-4.81-1.43-7.17c-1.11-2.32-3.18-4.07-6.15-5.2 c-4.63-1.77-9.57-2.12-14.34-2.46c-0.84-0.06-1.67-0.12-2.49-0.19c-1.96-0.16-3.92-0.33-5.89-0.5c-4.03-0.34-8.2-0.7-12.31-0.99 C130.05,99.03,128.97,98.95,127.88,98.95z" fill="#FFF"/></g><g id="change2_1"><path d="M121.71,7.86c0.57,4.36-0.65,7.15-1.56,11.17c-1.06,4.71-1.88,9.46-3.09,14.14 c-2.41,9.35-5.56,18.55-9.92,27.18c-5.48,10.85-19.04,8.55-29.05,7.66c-2.65-0.24-5.33-0.5-7.85-1.37c-4.05-1.39-6.05-3.7-7.07-7.71 c-0.92-3.58-2.57-6.94-3.34-10.56C58.7,43,56.78,37.61,55.28,32.3c-2.58-9.11-5.41-17.25-3.76-26.84c0.19-1.1,0.45-2.26,1.22-3.08 c0.9-0.96,2.3-1.23,3.6-1.42C63.15-0.02,70.05-0.01,76.93,0c11.89,0.02,23.78,0.03,35.68,0.05c2.03,0,4.2,0.04,5.89,1.17 C120.6,2.64,121.38,5.35,121.71,7.86z" fill="#7FACDC"/></g><g id="change3_1"><path d="M198.52,116.69c-0.42-6.66-0.59-13.52-2.15-20.04c-1.49-6.26-4.67-11.95-10.12-15.57 c-6.77-4.49-15.1-5.19-23-5.06c-8.9,0.15-17.69,0.1-26.57-0.67c-6.5-0.56-13.7-1.12-17.07-7.61c-0.78-1.5-1.13-3.63-1.32-4.88 c-0.37-2.42-0.46-3.14-0.29-9.77c5.75-2.49,10.44-6.77,13.9-12.03c4.26-6.47,5.9-13.92,7.41-21.4c0.41-2.01-1.15-3.36-3.08-3.08 c-16.84,2.46-33.89,1.75-50.84,1.74c-11.14,0-22.28,0.1-33.42-0.28c-8.06-0.28-16.14-1.32-24.2-1.25c-2.63,0.02-5.78,0-8.17,1.27 c-2.95,1.57-2.48,4.92-1.42,7.6c1.45,3.68,4.22,6.82,7.25,9.31c1.33,1.09,2.72,2.11,4.22,2.96c1.89,1.06,3.99,1.71,5.86,2.82 c3.77,2.23,6.29,6.11,10.21,8.14c1.08,0.56,2.22,1.02,3.32,1.54c0.44,0.21,0.88,0.46,1.32,0.72c0.18,0.21,0.39,0.4,0.66,0.52 c0.3,0.13,0.61,0.25,0.91,0.38c0.29,0.15,0.59,0.28,0.88,0.4c-0.04,0.28-0.05,0.68-0.04,0.54c-0.08,1.28,0.07,2.61,0.12,3.9 c0.1,2.86,0.21,5.72,0.32,8.58c0.22,5.72,0.41,11.44,0.37,17.16c-0.08,10.95-1.26,21.7-3.96,32.33 c-2.59,10.21-6.25,20.1-10.25,29.83c-8.03,19.58-17.37,38.64-24.12,58.72C9.04,222.1,4.54,241.5,1.98,260.96 C-0.61,280.54-0.9,300.5,2.57,320c1.69,9.48,4.31,18.79,7.95,27.71c1.94,4.76,4.22,9.28,6.98,13.62c1.26,1.98,2.58,3.93,3.9,5.86 c0.66,0.97,1.33,1.94,1.99,2.91c0.65,0.95,1.46,2.78,2.37,3.51c0.07,0.11,0.14,0.21,0.21,0.32c-0.34,0.41-0.66,0.84-1.03,1.24 c-0.86,0.94-1.79,1.82-2.75,2.66c-3.36,2.93-5.91,6.36-7.65,10.48c-1.72,4.09-3.11,8.65-0.04,12.44c1.67,2.06,3.93,3.63,6.2,4.96 c6.2,3.62,13.25,5.92,20.15,7.78c9.41,2.53,19.1,4.11,28.8,4.99c5.24,0.47,10.49,0.71,15.75,0.72c15.07-0.03,30.29-1.84,44.84-5.78 c5.51-1.49,10.97-3.32,16.14-5.76c3.68-1.74,7.57-3.88,10.12-7.15c4.14-5.31-0.28-13.77-3.76-18.36c-1.56-2.06-3.46-3.63-5.31-5.39 c-0.78-0.75-1.57-1.52-2.25-2.36c-0.11-0.14-0.21-0.3-0.32-0.46c0.25-0.31,0.52-0.8,0.58-0.9c4.15-6.24,8.69-12.26,12.05-18.98 c3.3-6.58,5.76-13.69,7.73-20.77c7.98-28.6,6.59-58.96,1.12-87.87c-2.56-13.51-5.92-26.98-10.22-40.06 c-0.72-2.42-1.07-5.02-0.71-7.51c0.18-1.23,0.55-2.49,1.31-3.51c0.82-1.11,2.31-2,3.58-2.67c3.21-1.69,6.88-2.39,10.41-3.12 c3.38-0.7,6.66-1.51,9.83-2.91c6.81-3.02,11.19-8.78,13.74-15.64c1.5-4.05,2.35-8.33,3.04-12.59c0.72-4.47,1.21-8.97,1.48-13.49 C199.37,134.83,199.08,125.74,198.52,116.69z M170.14,147.25c-0.41,3.27-1.42,6.95-3.68,9.37c-2.6,2.76-6.61,3.67-10.35,3.83 c-4.62,0.2-9.44-0.63-13.66-2.56c-2.05-0.94-4.03-2.1-5.7-3.61c-1.19-1.07-2.1-2.31-2.88-3.64c-5.19-12.21-10.22-24.55-13.15-37.51 c-0.48-2.12-0.62-5.3-0.64-5.84c-0.09-2.01,1.3-3.54,3.03-4.41c2.33-1.17,5.2-0.96,7.71-0.79c6.06,0.42,12.11,0.98,18.16,1.48 c5.27,0.43,11.01,0.55,16.01,2.46c1.86,0.71,3.63,1.85,4.51,3.69c0.88,1.83,1.07,3.97,1.13,5.96c0.18,5.72-0.15,11.49-0.14,17.22 C170.51,137.66,170.74,142.51,170.14,147.25z M22.33,21.73C22.35,21.44,22.53,21.16,22.33,21.73L22.33,21.73z M22.03,22.44 C21.84,22.67,21.64,22.46,22.03,22.44L22.03,22.44z M53.06,52.53C53.39,52.66,53.18,52.7,53.06,52.53L53.06,52.53z M163.58,317.83 c-2.46,14.26-6.77,28.68-14.57,40.97c-2.02,3.17-4.18,6.25-6.29,9.36c-0.75,1.1-1.72,2.24-2.36,3.43 c-14.62,6.55-30.63,10.7-46.69,10.95c-4.52,0.07-9.07-0.16-13.55-0.81c-1.33-0.2-2.69,0.33-3.08,1.75c-0.32,1.18,0.4,2.88,1.75,3.08 c17.14,2.51,34.73-0.02,51.08-5.52c3.69-1.24,7.32-2.65,10.89-4.19c2.35,3.54,6.41,5.77,8.76,9.33c1.68,2.55,3.25,5.72,3.66,8.78 c0.3,2.24-1.61,3.77-3.27,4.96c-3.69,2.64-8.01,4.43-12.25,5.95c-12.97,4.64-26.84,7-40.55,7.92c-3.89,0.26-7.79,0.39-11.69,0.4 c-18.36-0.04-37.47-2.51-54.67-9.23c-2.76-1.08-5.47-2.33-8.01-3.86c-1.91-1.16-5.14-3.06-5.14-5.54c0-1.93,0.99-4.14,1.77-5.88 c0.92-2.04,2.11-4,3.6-5.68c1.93-2.17,4.32-3.84,6.2-6.07c0.81-0.96,1.69-2.03,1.98-3.29c0.47-2.05-1.19-3.73-2.25-5.3 c-2.76-4.09-5.63-8.1-8.2-12.31c-5.05-8.3-8.34-17.61-10.81-26.97c-4.86-18.45-5.75-37.71-4.24-56.67 c1.52-19.06,5.48-37.86,10.68-56.23c5.56-19.63,13.77-38.18,21.87-56.85c8.15-18.78,16.27-37.93,19.11-58.36 c1.5-10.81,1.44-21.72,1.07-32.6c-0.17-5.04-0.4-10.07-0.54-15.11c10.34,3.39,21.33,4.61,32.2,3.36c1.34-0.15,2.5-1.04,2.5-2.5 c0-1.23-1.15-2.65-2.5-2.5c-11.71,1.34-23.7-0.14-34.65-4.51c-0.71-0.46-1.49-0.85-2.22-1.22c-2.6-1.31-5.3-2.23-7.56-4.13 c-1.67-1.41-3.18-3-4.87-4.38c-1.97-1.6-4.1-2.71-6.42-3.72c-3.29-1.43-6.15-3.58-8.55-6.26c-1.13-1.26-2.19-2.7-2.84-4.27 c-0.22-0.53-0.26-1.2-0.42-1.75c0.52-0.13,1.34-0.34,1.85-0.4c1.6-0.17,3.22-0.17,4.83-0.15c3,0.04,6,0.26,8.99,0.49 c10.41,0.8,20.85,1.01,31.29,1.05c5.32,0.02,10.63,0,15.95-0.01c16.15,0.01,32.3,0.52,48.35-1.41c-1.16,5.44-2.58,10.79-5.53,15.61 c-3.11,5.1-7.65,9.45-13.35,11.47c-1.07,0.38-1.81,1.25-1.84,2.41c-0.37,16.35-1.85,32.79,0.26,49.08 c2.01,15.56,7.08,30.45,13,44.91c0.42,1.03,0.85,2.06,1.28,3.08c0,0,1.38,3.68,2.01,4.77c4.96,11.65,10.22,23.18,14.94,34.93 c5.61,13.97,10.08,28.29,13.62,42.92C164.98,259.3,168.55,289.04,163.58,317.83z M194.07,137.6c-0.19,8.88-0.96,17.89-3.19,26.5 c-0.99,3.83-2.38,7.62-4.7,10.85c-1.75,2.43-4.12,4.32-6.77,5.68c-6.31,3.25-13.72,3.15-20.2,6.01c-3.03,1.34-5.95,3.33-7.45,6.36 c-4.05-10.63-8.63-21.04-13.18-31.46c4.54,2.38,9.64,3.67,14.75,3.9c4.66,0.21,9.96-0.43,13.94-3.05c3.87-2.55,6.14-6.65,7.18-11.08 c1.13-4.82,1.05-9.8,1.05-14.71c-0.01-6.63,0.18-13.26,0.15-19.89c-0.02-5.33-1.1-10.64-5.8-13.78c-2.34-1.56-5.15-2.36-7.88-2.87 c-3.18-0.6-6.42-0.94-9.64-1.22c-7.6-0.66-15.25-1.51-22.87-1.84c-3.35-0.14-6.97,0.19-9.83,2.11c-0.43,0.29-0.84,0.62-1.23,0.97 c-1.08-8.88-1.24-17.81-1.05-26.79c0.12,0.15,0.24,0.31,0.37,0.45c2.41,2.75,5.8,4.44,9.31,5.32c3.45,0.86,7.04,1.05,10.57,1.37 c4.54,0.41,9.09,0.66,13.64,0.74c8.09,0.13,16.57-1.09,24.52,0.86c3.39,0.83,6.85,2.22,9.5,4.54c2.12,1.85,3.73,4.2,4.82,6.77 c2.36,5.59,2.66,11.85,3.06,17.82C193.74,119.96,194.26,128.77,194.07,137.6z M49.42,396.07c20.4,3.92,41.53,4.44,62.1,1.51 c1.34-0.19,2.68,0.31,3.08,1.75c0.33,1.18-0.41,2.88-1.75,3.08c-6.07,0.86-12.16,1.48-18.28,1.79c-21.52,1.07-43.23-1.49-63.91-7.5 c-3.09-0.9-1.77-5.72,1.33-4.82C37.73,393.53,43.55,394.94,49.42,396.07z" fill="#2E66B1"/></g><g id="change4_1"><path d="M159.2,293.95c-0.84,9.1-2.02,18.19-3.91,27.14c-1.9,8.99-4.56,17.79-8.19,26.23 c-3.46,8.05-7.52,15.75-14.7,21.05c-3.28,2.35-6.99,4.06-10.83,5.27c-8.28,2.61-17.27,3.23-25.89,3.69 c-9.86,0.52-19.77,0.05-29.56-1.25c-4.96-0.66-9.89-1.49-14.78-2.53c-3.66-0.78-7.21-1.97-10.47-3.83 c-6.24-3.57-10.92-9.31-13.95-15.77c-3.94-8.42-7.19-17.32-9.82-26.24c-2.68-9.08-4.56-18.44-5.15-27.91 c-1.2-19.21-1-38.66,2.16-57.68c0.8-4.82,1.8-9.6,3.01-14.33c1.12-4.38,2.39-8.73,4.25-12.87c1.7-3.77,3.98-7.71,7.66-9.83 c3.31-1.91,7.19-2.34,10.92-2.68c19.78-1.8,39.54-2.64,59.4-1.84c9.84,0.4,19.71,0.83,29.48,2.13c3.92,0.52,7.81,1.08,11.21,3.26 c2.84,1.81,5.06,4.4,6.71,7.32c2,3.52,3.31,7.46,4.61,11.28c1.51,4.42,2.81,8.92,3.91,13.46c2.23,9.17,3.65,18.54,4.3,27.95 C160.22,275.29,160.05,284.64,159.2,293.95z" fill="#FFD83B"/></g></svg>