<?xml version="1.0" encoding="UTF-8"?><svg xmlns="http://www.w3.org/2000/svg" xmlns:xlink="http://www.w3.org/1999/xlink" height="443.9" preserveAspectRatio="xMidYMid meet" version="1.0" viewBox="-0.4 0.0 500.4 443.9" width="500.4" zoomAndPan="magnify"><defs><clipPath id="a"><path d="M 132 0 L 500 0 L 500 443.921875 L 132 443.921875 Z M 132 0"/></clipPath></defs><g><g clip-path="url(#a)" id="change1_1"><path d="M 439.445312 271.914062 C 424.203125 262.1875 405.234375 255.269531 388.597656 251.6875 C 420.660156 246.054688 449.285156 237.570312 471.449219 208.453125 C 495.007812 177.597656 503.136719 139.578125 498.945312 100.5625 C 491.5625 9.179688 405.265625 -7.066406 328.261719 2.339844 C 251.265625 12.773438 180.5625 85.839844 197.167969 168.984375 C 204.691406 203.734375 226.886719 233.105469 255.132812 253.375 C 245.125 255.46875 235.175781 258.023438 225.859375 260.375 C 193.292969 270.628906 147.492188 288.042969 136.359375 322.695312 C 135.714844 324.769531 135.207031 326.8125 134.808594 328.824219 L 134.808594 328.828125 C 134.808594 328.828125 112.125 418.492188 223.1875 438.621094 C 328.5 457.71875 429.917969 422.910156 458.328125 370.902344 C 486.679688 318.984375 468.460938 285.921875 439.445312 271.914062" fill="#f8d7d6"/></g><g id="change1_2"><path d="M 89.996094 270.050781 C 89.996094 263.117188 89.464844 242.394531 88.847656 218.394531 C 88.292969 196.890625 87.667969 172.515625 87.308594 153.457031 C 87.269531 151.316406 87.257812 149.328125 87.253906 147.476562 C 87.242188 147.480469 87.230469 147.484375 87.21875 147.484375 C 87.007812 147.546875 86.789062 147.601562 86.578125 147.664062 L 87.253906 147.476562 L 87.253906 146.9375 C 87.441406 146.863281 87.609375 146.777344 87.753906 146.664062 C 88.726562 145.878906 88.675781 144.25 87.761719 143.515625 C 87.617188 143.398438 87.453125 143.308594 87.265625 143.242188 L 87.265625 142.71875 C 87.285156 138.46875 87.289062 135.09375 87.019531 132.46875 C 86.980469 132.390625 86.46875 131.6875 81 131.003906 C 80.71875 130.339844 80.5 129.933594 80.5 129.933594 L 80.5 87.371094 C 80.5 80.683594 69.484375 69.425781 51.039062 57.257812 C 34.9375 46.636719 17.992188 38.625 11.621094 38.625 C 10.777344 38.625 10.15625 38.765625 9.769531 39.039062 C 8.226562 40.140625 5.332031 50.996094 11.414062 127.246094 C 11.476562 128.046875 11.605469 129.664062 11.605469 129.664062 C 11.605469 129.664062 11.644531 130.058594 11.726562 130.660156 C 11.550781 130.675781 11.367188 130.6875 11.195312 130.703125 C 2.503906 131.472656 1.554688 132.324219 1.46875 132.4375 C 1.226562 134.703125 1.605469 140.117188 2.046875 146.390625 L 2.054688 146.503906 L 2.089844 147.015625 C 1.925781 147.039062 1.761719 147.058594 1.59375 147.089844 C 1.4375 147.113281 1.28125 147.132812 1.125 147.160156 C -0.410156 147.441406 -0.335938 149.847656 1.125 150.179688 C 1.351562 150.230469 1.589844 150.269531 1.820312 150.320312 C 1.984375 150.359375 2.160156 150.386719 2.324219 150.425781 L 2.363281 150.953125 C 2.613281 154.726562 2.871094 159.019531 2.957031 162.949219 C 3.386719 183.109375 3.136719 203.765625 2.890625 223.738281 C 2.625 245.609375 2.351562 268.226562 2.964844 290.351562 C 3.613281 312.386719 14.109375 312.554688 31.503906 312.835938 C 33.675781 312.871094 35.941406 312.910156 38.304688 312.992188 C 42.972656 313.285156 49.171875 313.617188 55.738281 313.617188 C 55.738281 313.617188 55.738281 313.617188 55.742188 313.617188 C 70.78125 313.617188 81.128906 311.867188 86.460938 308.441406 C 93.429688 303.078125 92.042969 290.917969 90.820312 280.183594 C 90.394531 276.472656 89.996094 272.96875 89.996094 270.050781" fill="#f8d7d6"/></g><g id="change2_1"><path d="M 393.644531 156.9375 C 361.070312 133.28125 333.648438 99.851562 305.230469 71.441406 C 301.703125 67.921875 307.148438 62.480469 310.683594 65.984375 C 339.214844 94.28125 372.753906 121.558594 396.550781 154.035156 C 397.785156 155.726562 395.335938 158.164062 393.644531 156.9375 Z M 352.769531 158.277344 C 334.164062 146.207031 315.082031 131.714844 300.746094 114.726562 C 298.171875 111.679688 302.519531 107.246094 305.164062 110.3125 C 320.015625 127.511719 339.78125 138.613281 355.667969 154.519531 C 357.5625 156.414062 355.089844 159.777344 352.769531 158.277344 Z M 464.28125 108.015625 C 458.589844 37.527344 392.019531 24.996094 332.636719 32.246094 C 273.238281 40.300781 218.710938 96.652344 231.519531 160.789062 C 235.109375 178.800781 247.460938 199.425781 260.976562 211.613281 C 273.355469 222.789062 287.820312 228.175781 303.074219 230.386719 C 348.382812 236.953125 413.277344 230.253906 443.070312 191.226562 C 461.238281 167.433594 467.511719 138.109375 464.28125 108.015625" fill="#bdc0e4"/></g><g id="change2_2"><path d="M 87.808594 153.445312 C 87.765625 150.992188 87.753906 148.738281 87.753906 146.660156 C 87.566406 146.8125 87.34375 146.929688 87.082031 147.007812 C 61.316406 154.390625 28.105469 156.140625 1.820312 150.324219 C 2.105469 154.578125 2.371094 158.996094 2.457031 162.964844 C 3.355469 205.160156 1.289062 247.996094 2.464844 290.367188 C 3.210938 315.730469 17.382812 312.75 38.273438 313.492188 C 50.210938 314.238281 76.320312 315.558594 86.765625 308.84375 C 96.464844 301.382812 90.496094 281.238281 90.496094 270.050781 C 90.496094 256.851562 88.566406 193.625 87.808594 153.445312" fill="#bdc0e4"/></g><g id="change2_3"><path d="M 43.96875 146.871094 C 58.1875 145.90625 72.332031 143.816406 86.558594 143.140625 C 87.054688 143.117188 87.457031 143.269531 87.765625 143.515625 C 87.785156 138.855469 87.808594 135.230469 87.511719 132.386719 C 87.429688 131.621094 84.996094 130.992188 81.003906 130.496094 C 66.046875 128.632812 29.136719 128.617188 11.152344 130.207031 C 5.011719 130.75 1.070312 131.480469 0.972656 132.386719 C 0.71875 134.777344 1.136719 140.519531 1.597656 147.089844 C 15.445312 144.691406 29.90625 147.828125 43.96875 146.871094" fill="#bdc0e4"/></g><g id="change3_1"><path d="M 76.859375 85.488281 C 51.839844 96.511719 19.621094 65.972656 13.957031 43.511719 C 13.683594 42.421875 15.277344 41.671875 15.808594 42.726562 C 21.472656 54.003906 29.828125 65.015625 40.382812 72.121094 C 52.015625 79.945312 62.59375 81.679688 76.1875 83.007812 C 77.34375 83.121094 78.203125 84.898438 76.859375 85.488281 Z M 9.480469 38.632812 C 4.917969 41.890625 8.078125 92.273438 11.152344 130.207031 C 29.136719 128.617188 66.046875 128.632812 81.003906 130.496094 C 81.003906 111.316406 81.003906 93.8125 81.003906 87.371094 C 81 70.511719 16.855469 33.355469 9.480469 38.632812" fill="#d2545f"/></g><g id="change4_1"><path d="M 334.1875 320.007812 C 319.160156 315.097656 304.425781 302.488281 294.242188 290.695312 C 290.722656 286.613281 296.628906 280.640625 300.1875 284.746094 C 306.078125 291.535156 312.816406 297.4375 320.195312 302.566406 C 325.851562 306.496094 332.175781 310.230469 337.046875 315.105469 C 339.054688 317.121094 337.042969 320.9375 334.1875 320.007812 Z M 318.84375 342.175781 C 301.761719 330.203125 282.605469 316.585938 269.566406 300.175781 C 267.128906 297.097656 271.226562 292.707031 273.984375 295.757812 C 288.289062 311.53125 309.578125 321.824219 321.269531 339.746094 C 322.21875 341.195312 320.308594 343.199219 318.84375 342.175781 Z M 356.265625 260.503906 L 295.300781 260.628906 C 278.828125 260.660156 259.890625 265.234375 243.417969 269.0625 C 217.070312 276.664062 180.027344 289.601562 171.015625 315.332031 C 162.007812 341.808594 183.472656 361.40625 209.847656 369.671875 C 230.464844 376.4375 254.359375 376.382812 276.601562 377.84375 C 331.238281 381.4375 425.246094 377.308594 438.765625 313.242188 C 446.109375 280.71875 384.28125 260.4375 356.265625 260.503906" fill="#eeaa94"/></g><g id="change5_1"><path d="M 463.199219 326.449219 C 434.808594 380.652344 367.648438 398.773438 310.554688 403.226562 C 282.605469 405.40625 254.066406 402.550781 226.230469 399.90625 C 191.238281 396.582031 159.269531 387.023438 138.679688 356.789062 C 137.742188 355.417969 135.792969 356.589844 136.480469 358.074219 C 150.074219 387.566406 183.277344 397.796875 212.847656 402.984375 C 244.613281 408.5625 278.351562 411.417969 310.554688 409.636719 C 344.320312 407.765625 377.109375 401.046875 408.179688 387.394531 C 433.183594 376.40625 462.007812 357.070312 468.140625 328.53125 C 468.761719 325.644531 464.683594 323.621094 463.199219 326.449219" fill="#9999d2"/></g></g></svg>