<?xml version="1.0" encoding="UTF-8"?><svg xmlns="http://www.w3.org/2000/svg" xmlns:xlink="http://www.w3.org/1999/xlink" height="35.3" preserveAspectRatio="xMidYMid meet" version="1.0" viewBox="2.6 4.9 47.9 35.3" width="47.9" zoomAndPan="magnify"><symbol id="f" preserveAspectRatio="xMidYMid meet" viewBox="0 -27.35 32.45 27.35"><g id="change1_1"><path clip-rule="evenodd" d="m32.45 0l-4.35-23.1h-0.1l0.1-0.5c0-1.033-1.15-1.917-3.45-2.65-2.333-0.733-5.133-1.1-8.4-1.1s-6.067 0.367-8.4 1.1c-2.3 0.733-3.45 1.617-3.45 2.65l0.1 0.5h-0.1l-4.4 23.1c0.833-1.167 2.75-2.117 5.75-2.85 3.067-0.767 6.567-1.15 10.5-1.15s7.417 0.383 10.45 1.15c3 0.733 4.917 1.683 5.75 2.85z" fill="#D4E8FF" fill-rule="evenodd"/></g></symbol><symbol id="e" preserveAspectRatio="xMidYMid meet" viewBox="0 -33.2 32.292 33.196"><linearGradient gradientTransform="rotate(-4.974 8162.82 -8167.607)" gradientUnits="userSpaceOnUse" id="a" x1="-675.94" x2="-645.65" xlink:actuate="onLoad" xlink:show="other" xlink:type="simple" xmlns:xlink="http://www.w3.org/1999/xlink" y1="-753.58" y2="-753.58"><stop offset="0" stop-color="#555D66"/><stop offset="1" stop-color="#fff"/></linearGradient><path clip-rule="evenodd" d="m28.1-1.6c2.533-0.733 3.9-1.55 4.1-2.45 0.267-1.333-0.05-3.717-0.95-7.15l-3.25-19c-0.5-0.5-1.3-1-2.4-1.5-2.2-1-4.817-1.5-7.85-1.5-5.767 0-9.617 0.467-11.55 1.4-0.534 0.233-0.967 0.583-1.3 1.05l-0.4 0.6-4.5 25.5c0.133 0.4 0.467 0.85 1 1.35 1 0.966 2.417 1.633 4.25 2 5.9 1.2 10.983 1.566 15.25 1.1 3.067-0.367 5.6-0.833 7.6-1.4z" fill="url(#a)" fill-rule="evenodd"/></symbol><symbol id="d" preserveAspectRatio="xMidYMid meet" viewBox="0 -21.75 6.15 21.75"><linearGradient gradientTransform="rotate(-97.869 8166.059 -8170.813)" gradientUnits="userSpaceOnUse" id="b" x1="1190.8" x2="1210" xlink:actuate="onLoad" xlink:show="other" xlink:type="simple" xmlns:xlink="http://www.w3.org/1999/xlink" y1="-17375" y2="-17375"><stop offset="0" stop-color="#748FAD"/><stop offset="1" stop-color="#fff"/></linearGradient><path clip-rule="evenodd" d="m0 0l4.65-1.35 1.5-2.15-0.75-6-2.65-12.25-1 0.4c-0.667 0.233-1.083 0.517-1.25 0.85 1 3.1 1.633 7.517 1.9 13.25 0.1 2.567-0.267 4.55-1.1 5.95-0.433 0.667-0.867 1.1-1.3 1.3z" fill="url(#b)" fill-rule="evenodd"/></symbol><symbol id="j" preserveAspectRatio="xMidYMid meet" viewBox="0 -25 5.25 25"><linearGradient gradientTransform="rotate(-4.968 8168.7 -8173.905)" gradientUnits="userSpaceOnUse" id="c" x1="-674.87" x2="-671.98" xlink:actuate="onLoad" xlink:show="other" xlink:type="simple" xmlns:xlink="http://www.w3.org/1999/xlink" y1="-750.36" y2="-750.36"><stop offset="0" stop-color="#fff"/><stop offset="1" stop-color="#fff" stop-opacity="0"/></linearGradient><path clip-rule="evenodd" d="M3 -0.85L5.25 0 1.5 -24.6 0 -25z" fill="url(#c)" fill-rule="evenodd"/></symbol><use height="21.75" opacity=".672" transform="rotate(180 9.325 3.25) scale(.6174)" width="6.15" xlink:actuate="onLoad" xlink:href="#d" xlink:show="embed" xlink:type="simple" xmlns:xlink="http://www.w3.org/1999/xlink" y="-21.75"/><g id="change2_1"><path clip-rule="evenodd" d="m22.084 7.636l0.617-0.988-2.161-0.617c-0.905-0.247-2.109-0.175-3.611 0.216-0.741 0.206-1.183 0.494-1.327 0.864-0.103 0.247 0.237 0.35 1.019 0.309l3.087 0.371 2.068-0.154h0.308z" fill="#DEEDFF" fill-rule="evenodd"/></g><g id="change3_1"><path clip-rule="evenodd" d="m18.688 8.191c0.392 0.185 0.762 0.35 1.111 0.494l0.432 0.124 1.235-0.941c-0.313-2e-3 -0.848-0.151-1.605-0.448-1.605-0.617-2.758-0.895-3.458-0.833-0.986 0.123-1.511 0.863-1.573 2.222-0.062 1.235 0.185 3.283 0.741 6.143 0.268 1.461 0.586 3.035 0.957 4.722 0.062 0.371 0.154 0.505 0.278 0.401 0.124-0.103 0.083-0.668-0.124-1.698-0.514-2.613-0.833-4.352-0.957-5.216-0.37-2.408-0.433-3.941-0.185-4.599 0.371-1.112 1.42-1.235 3.148-0.371zm2.779-0.324c0.074 6e-3 0.136 1e-3 0.185-0.015l0.124-0.216-0.309 0.231z" fill="#CCE4FF" fill-rule="evenodd"/></g><g id="change4_1"><path clip-rule="evenodd" d="m20.17 7.419l0.062 1.389c0.309-0.062 0.617-0.165 0.926-0.309 0.988-0.309 1.482-0.545 1.482-0.71l0.061-1.142c-0.72 1e-3 -1.563 0.258-2.531 0.772z" fill="#98A7B8" fill-rule="evenodd"/></g><use height="33.196" opacity=".5" transform="matrix(-.6174 0 0 -.6174 37.5 4.95)" width="32.292" xlink:actuate="onLoad" xlink:href="#e" xlink:show="embed" xlink:type="simple" xmlns:xlink="http://www.w3.org/1999/xlink" y="-33.2"/><use height="27.35" opacity=".25" transform="rotate(180 18.75 4.4) scale(.6174)" width="32.45" xlink:actuate="onLoad" xlink:href="#f" xlink:show="embed" xlink:type="simple" xmlns:xlink="http://www.w3.org/1999/xlink" y="-27.35"/><linearGradient gradientTransform="matrix(-.615 .0535 .0535 .615 37.951 4.95)" gradientUnits="userSpaceOnUse" id="g" x1="4.808" x2="31.088" xlink:actuate="onLoad" xlink:show="other" xlink:type="simple" xmlns:xlink="http://www.w3.org/1999/xlink" y1="9.899" y2="9.899"><stop offset="0" stop-color="#fff"/><stop offset="1" stop-color="#DEDDB4"/></linearGradient><path clip-rule="evenodd" d="m19.275 11.741l9.014 5.927 7.191-6.853c-0.473-0.165-1.05-0.525-1.729-1.08-0.35-0.289-0.823-0.597-1.42-0.926-0.473-0.288-0.762-0.494-0.864-0.617s-0.175-0.237-0.216-0.339c-0.062-0.062-0.35-0.165-0.864-0.309-0.597-0.185-0.916-0.288-0.957-0.309s-0.195-0.165-0.463-0.432c-0.309-0.309-1.08-0.463-2.315-0.463-0.494 0-0.957 0.082-1.389 0.247-0.33 0.124-0.865 0.381-1.605 0.772-0.577 0.329-1.081 0.71-1.513 1.142-0.041 0.042-0.391 0.453-1.049 1.235l-1.821 2.005z" fill="url(#g)" fill-rule="evenodd"/><linearGradient gradientTransform="matrix(-.615 .0537 .0537 .615 37.95 4.95)" gradientUnits="userSpaceOnUse" id="h" x1="5.13" x2="30.702" xlink:actuate="onLoad" xlink:show="other" xlink:type="simple" xmlns:xlink="http://www.w3.org/1999/xlink" y1="19.509" y2="19.509"><stop offset="0" stop-color="#E8E6CC"/><stop offset="1" stop-color="#B8B695"/></linearGradient><path clip-rule="evenodd" d="m22.516 12.543c-0.411-0.309-1.553-0.576-3.426-0.802l2.068 11.112c0.103 0.288 0.442 0.576 1.019 0.864 1.173 0.597 2.974 0.927 5.402 0.987 2.448 0.062 4.218-0.123 5.309-0.556l0.926-0.679 2.038-12.532c-0.083 0.144-0.288 0.227-0.617 0.247-0.351 0.021-0.587 0.093-0.71 0.216-0.269 0.247-0.433 0.38-0.494 0.401-0.124 0.083-0.34 0.175-0.648 0.278-0.453 0.124-0.813 0.154-1.08 0.093-0.247 0.021-0.483 0.103-0.71 0.247-0.268 0.185-0.515 0.309-0.741 0.37-0.474 0.144-1.143 0.216-2.007 0.216-0.391 0.042-0.658 0.031-0.802-0.031-0.083-0.021-0.237-0.103-0.463-0.247-0.639-0.227-1.194-0.34-1.667-0.34-0.185 0-0.473 0.113-0.864 0.34-0.432 0.226-0.71 0.35-0.833 0.371-0.537 0.084-1.103-0.102-1.7-0.555z" fill="url(#h)" fill-rule="evenodd"/><linearGradient gradientTransform="matrix(-.6174 0 0 .6174 37.951 4.95)" gradientUnits="userSpaceOnUse" id="i" x1="3.801" x2="14.301" xlink:actuate="onLoad" xlink:show="other" xlink:type="simple" xmlns:xlink="http://www.w3.org/1999/xlink" y1="20.75" y2="20.75"><stop offset="0" stop-color="#fff"/><stop offset="1" stop-color="#fff" stop-opacity="0"/></linearGradient><path clip-rule="evenodd" d="m35.604 9.889l-6.421 0.771-0.062 14.971c1.132-0.062 2.027-0.145 2.686-0.247 0.432-0.062 0.792-0.216 1.08-0.463l0.309-0.371 2.408-14.661z" fill="url(#i)" fill-rule="evenodd"/><use height="25" opacity=".488" transform="matrix(-.6174 0 0 -.6174 22.95 8.9)" width="5.25" xlink:actuate="onLoad" xlink:href="#j" xlink:show="embed" xlink:type="simple" xmlns:xlink="http://www.w3.org/1999/xlink" y="-25"/><linearGradient gradientTransform="matrix(-.6174 0 0 .6174 37.951 4.95)" gradientUnits="userSpaceOnUse" id="k" x1="3.487" x2="9.312" xlink:actuate="onLoad" xlink:show="other" xlink:type="simple" xmlns:xlink="http://www.w3.org/1999/xlink" y1="14.25" y2="14.25"><stop offset="0" stop-color="#CCE4FF"/><stop offset="1" stop-color="#fff"/></linearGradient><path clip-rule="evenodd" d="m34.555 16.649c0.082-0.865 0.236-1.688 0.463-2.47l0.771-2.099c-0.926-0.514-1.574-0.844-1.944-0.988s-0.916-0.226-1.636-0.247c0.164 1.132 0.35 2.089 0.556 2.871 0.205 0.783 0.802 1.76 1.79 2.933z" fill="url(#k)" fill-rule="evenodd"/><g id="change3_2"><path clip-rule="evenodd" d="m20.849 9.796c-1.852-0.515-2.778-1.142-2.778-1.883 0-0.72 0.926-1.348 2.778-1.883 1.852-0.515 4.085-0.772 6.699-0.772 2.593 0 4.815 0.257 6.667 0.772 1.853 0.535 2.778 1.163 2.778 1.883 0 0.659-0.803 1.255-2.407 1.791-0.104 0.021-0.052 0.257 0.154 0.71 0.205 0.411 0.247 0.638 0.123 0.679-0.185 0.041-0.669-0.093-1.451-0.401-0.802-0.288-1.307-0.422-1.512-0.401-1.297 0.186-2.747 0.278-4.353 0.278-2.633-1e-3 -4.866-0.258-6.698-0.773zm-0.463-3.92c-1.996 0.617-2.994 1.358-2.994 2.222 0 0.885 0.998 1.626 2.994 2.223 1.996 0.617 4.415 0.926 7.254 0.926 1.563 0 3.015-0.093 4.353-0.278 0.205-0.021 0.854 0.165 1.944 0.556 1.05 0.412 1.667 0.597 1.852 0.556 0.186-0.041 0.145-0.37-0.123-0.988-0.247-0.617-0.309-0.947-0.186-0.988 1.626-0.514 2.439-1.183 2.439-2.006 0-0.864-1.009-1.605-3.025-2.222-1.996-0.618-4.414-0.927-7.253-0.927-2.82 0-5.238 0.309-7.255 0.926z" fill="#CCE4FF" fill-rule="evenodd"/></g><g id="change3_3"><path clip-rule="evenodd" d="m17.393 8.099l-0.063 0.03 2.717 14.94-0.031 0.154c0 0.844 0.813 1.522 2.438 2.038 1.461 0.473 3.19 0.709 5.186 0.709 2.017 0 3.745-0.236 5.186-0.709 1.626-0.516 2.438-1.194 2.438-2.038v-0.154l2.686-14.94-0.03-0.031c0 0.432-0.269 0.833-0.803 1.204l-2.408 13.335-0.062 0.123-0.031 0.278 0.031 0.185c0 0.535-0.648 1.019-1.944 1.451-1.399 0.453-3.087 0.679-5.063 0.679s-3.663-0.226-5.063-0.679c-1.296-0.433-1.945-0.916-1.945-1.451l0.062-0.185-0.062-0.217-2.469-13.52c-0.514-0.389-0.77-0.791-0.77-1.202z" fill="#CCE4FF" fill-rule="evenodd"/></g><g id="change5_1"><path clip-rule="evenodd" d="m22.609 12.266c-0.062-0.474-0.144-0.659-0.247-0.556-0.124 0.103-0.144 0.329-0.062 0.679 0.021 0.124 0.165 2.089 0.432 5.896 0.268 3.664 0.453 5.608 0.556 5.834 0.165 0.391 0.257 0.422 0.278 0.093l-0.957-11.946z" fill="#BD5E27" fill-rule="evenodd"/></g><g id="change5_2"><path clip-rule="evenodd" d="m19.862 13.5c0.638 0.268 1.615 0.504 2.933 0.71 2.387 0.371 4.681 0.401 6.883 0.093 0.164 0 0.227-0.041 0.185-0.124-0.04-0.041-0.082-0.062-0.123-0.062-0.021 0-0.041 0.01-0.062 0.031-1.749 0.206-4.013 0.154-6.791-0.154-1.049-0.103-1.985-0.319-2.809-0.648l-0.864-0.309c-0.042 0.124 0.175 0.278 0.648 0.463z" fill="#BD5E27" fill-rule="evenodd"/></g><g id="change5_3"><path clip-rule="evenodd" d="m29.431 17.39c-1.626 0.145-3.725 0.083-6.297-0.185-0.967-0.103-1.832-0.278-2.593-0.524l-0.802-0.278c-0.041 0.103 0.154 0.237 0.586 0.402 0.618 0.206 1.523 0.391 2.716 0.555 2.202 0.309 4.332 0.36 6.39 0.155 0.165 0 0.227-0.031 0.186-0.093l-0.186-0.032z" fill="#BD5E27" fill-rule="evenodd"/></g><g id="change5_4"><path clip-rule="evenodd" d="m29.399 20.384c-1.563 0.144-3.57 0.083-6.019-0.185-0.926-0.104-1.759-0.278-2.5-0.525l-0.771-0.277c-0.021 0.103 0.175 0.236 0.586 0.401 0.597 0.206 1.461 0.392 2.593 0.556 2.099 0.309 4.137 0.36 6.111 0.154 0.145 0 0.196-0.031 0.154-0.093l-0.154-0.031z" fill="#BD5E27" fill-rule="evenodd"/></g><g id="change5_5"><path clip-rule="evenodd" d="m29.215 22.978c-1.44 0.144-3.303 0.092-5.587-0.155-0.864-0.103-1.636-0.277-2.315-0.524l-0.71-0.277c-0.042 0.103 0.133 0.226 0.525 0.37 0.514 0.205 1.317 0.401 2.407 0.587 1.956 0.288 3.848 0.339 5.68 0.154 0.144 0 0.195-0.041 0.154-0.124l-0.154-0.031z" fill="#BD5E27" fill-rule="evenodd"/></g><use height="21.75" opacity=".672" transform="matrix(.6534 0 0 -.6534 23 10.65)" width="6.15" xlink:actuate="onLoad" xlink:href="#d" xlink:show="embed" xlink:type="simple" xmlns:xlink="http://www.w3.org/1999/xlink" y="-21.75"/><g id="change2_2"><path clip-rule="evenodd" d="m19.394 11.843l-0.653-1.046 2.287-0.653c0.958-0.261 2.232-0.185 3.822 0.229 0.784 0.218 1.253 0.523 1.405 0.915 0.108 0.261-0.251 0.371-1.079 0.327l-3.267 0.392-2.189-0.163h-0.326z" fill="#DEEDFF" fill-rule="evenodd"/></g><g id="change3_4"><path clip-rule="evenodd" d="m22.988 12.431c-0.415 0.196-0.806 0.37-1.176 0.522l-0.458 0.131-1.307-0.997c0.331-2e-3 0.897-0.16 1.698-0.474 1.7-0.653 2.919-0.948 3.66-0.882 1.046 0.131 1.601 0.915 1.666 2.353 0.065 1.307-0.195 3.474-0.784 6.502-0.283 1.547-0.621 3.212-1.012 4.998-0.066 0.393-0.164 0.534-0.294 0.426-0.131-0.109-0.087-0.708 0.131-1.798 0.544-2.766 0.882-4.606 1.013-5.521 0.392-2.548 0.458-4.171 0.196-4.868-0.393-1.177-1.504-1.307-3.333-0.392zm-2.941-0.344c-0.079 6e-3 -0.145 1e-3 -0.196-0.016l-0.131-0.229 0.327 0.245z" fill="#CCE4FF" fill-rule="evenodd"/></g><g id="change4_2"><path clip-rule="evenodd" d="m21.419 11.614l-0.065 1.47c-0.327-0.065-0.653-0.174-0.98-0.327-1.046-0.327-1.569-0.577-1.569-0.751l-0.065-1.209c0.762 0 1.656 0.272 2.679 0.817z" fill="#98A7B8" fill-rule="evenodd"/></g><use height="33.196" opacity=".5" transform="matrix(.6534 0 0 -.6534 3.05 9)" width="32.292" xlink:actuate="onLoad" xlink:href="#e" xlink:show="embed" xlink:type="simple" xmlns:xlink="http://www.w3.org/1999/xlink" y="-33.2"/><use height="27.35" opacity=".25" transform="matrix(.6534 0 0 -.6534 3.05 13.1)" width="32.45" xlink:actuate="onLoad" xlink:href="#f" xlink:show="embed" xlink:type="simple" xmlns:xlink="http://www.w3.org/1999/xlink" y="-27.35"/><linearGradient gradientTransform="matrix(.651 .0566 -.0566 .651 2.6 9)" gradientUnits="userSpaceOnUse" id="l" x1="4.808" x2="31.089" xlink:actuate="onLoad" xlink:show="other" xlink:type="simple" xmlns:xlink="http://www.w3.org/1999/xlink" y1="9.9" y2="9.9"><stop offset="0" stop-color="#fff"/><stop offset="1" stop-color="#DEDDB4"/></linearGradient><path clip-rule="evenodd" d="m22.367 16.188l-9.541 6.273-7.612-7.253c0.501-0.174 1.111-0.555 1.83-1.144 0.37-0.305 0.871-0.631 1.503-0.98 0.501-0.305 0.806-0.522 0.915-0.653 0.108-0.131 0.184-0.251 0.228-0.36 0.065-0.065 0.37-0.174 0.915-0.327 0.631-0.196 0.969-0.305 1.013-0.327 0.043-0.022 0.207-0.175 0.49-0.458 0.327-0.327 1.144-0.49 2.451-0.49 0.523 0 1.013 0.087 1.47 0.261 0.349 0.131 0.915 0.403 1.699 0.817 0.61 0.349 1.144 0.751 1.601 1.209 0.043 0.043 0.414 0.479 1.111 1.307l1.927 2.125z" fill="url(#l)" fill-rule="evenodd"/><linearGradient gradientTransform="matrix(.651 .0569 -.0569 .651 2.6 9)" gradientUnits="userSpaceOnUse" id="m" x1="5.13" x2="30.702" xlink:actuate="onLoad" xlink:show="other" xlink:type="simple" xmlns:xlink="http://www.w3.org/1999/xlink" y1="19.508" y2="19.508"><stop offset="0" stop-color="#E8E6CC"/><stop offset="1" stop-color="#B8B695"/></linearGradient><path clip-rule="evenodd" d="m18.936 17.037c0.436-0.327 1.645-0.61 3.626-0.849l-2.188 11.762c-0.109 0.305-0.469 0.609-1.079 0.915-1.242 0.631-3.147 0.979-5.718 1.045-2.592 0.065-4.465-0.131-5.619-0.588l-0.98-0.719-2.156-13.265c0.087 0.152 0.305 0.24 0.653 0.261 0.371 0.022 0.621 0.098 0.751 0.229 0.283 0.261 0.458 0.403 0.523 0.425 0.13 0.087 0.359 0.185 0.686 0.294 0.479 0.13 0.86 0.163 1.144 0.098 0.261 0.021 0.512 0.109 0.751 0.261 0.283 0.196 0.544 0.327 0.784 0.392 0.501 0.152 1.209 0.229 2.124 0.229 0.414 0.043 0.697 0.033 0.85-0.033 0.087-0.021 0.25-0.109 0.49-0.261 0.676-0.24 1.264-0.359 1.765-0.359 0.196 0 0.501 0.12 0.915 0.359 0.458 0.24 0.751 0.37 0.882 0.392 0.566 0.088 1.164-0.108 1.796-0.588z" fill="url(#m)" fill-rule="evenodd"/><linearGradient gradientTransform="translate(2.6 9) scale(.6534)" gradientUnits="userSpaceOnUse" id="n" x1="3.8" x2="14.3" xlink:actuate="onLoad" xlink:show="other" xlink:type="simple" xmlns:xlink="http://www.w3.org/1999/xlink" y1="20.751" y2="20.751"><stop offset="0" stop-color="#fff"/><stop offset="1" stop-color="#fff" stop-opacity="0"/></linearGradient><path clip-rule="evenodd" d="m5.083 14.228l6.796 0.817 0.065 15.846c-1.198-0.065-2.146-0.152-2.842-0.262-0.458-0.065-0.839-0.229-1.144-0.49l-0.327-0.392-2.548-15.519z" fill="url(#n)" fill-rule="evenodd"/><use height="25" opacity=".488" transform="matrix(.6534 0 0 -.6534 18.45 13.2)" width="5.25" xlink:actuate="onLoad" xlink:href="#j" xlink:show="embed" xlink:type="simple" xmlns:xlink="http://www.w3.org/1999/xlink" y="-25"/><linearGradient gradientTransform="translate(2.6 9) scale(.6534)" gradientUnits="userSpaceOnUse" id="o" x1="3.487" x2="9.312" xlink:actuate="onLoad" xlink:show="other" xlink:type="simple" xmlns:xlink="http://www.w3.org/1999/xlink" y1="14.25" y2="14.25"><stop offset="0" stop-color="#CCE4FF"/><stop offset="1" stop-color="#fff"/></linearGradient><path clip-rule="evenodd" d="m6.194 21.383c-0.087-0.915-0.25-1.786-0.49-2.614l-0.817-2.222c0.98-0.544 1.666-0.893 2.058-1.045s0.969-0.24 1.731-0.262c-0.174 1.198-0.37 2.211-0.588 3.039-0.216 0.827-0.848 1.862-1.894 3.104z" fill="url(#o)" fill-rule="evenodd"/><g id="change3_5"><path clip-rule="evenodd" d="m21.19 9.98c2.113 0.654 3.169 1.438 3.169 2.353 0 0.937-1.056 1.721-3.169 2.353-2.113 0.653-4.672 0.98-7.678 0.98-1.656 0-3.191-0.098-4.607-0.294-0.218-0.021-0.904 0.174-2.058 0.588-1.111 0.436-1.765 0.632-1.96 0.588s-0.152-0.392 0.131-1.045c0.261-0.653 0.327-1.002 0.196-1.045-1.721-0.545-2.581-1.253-2.581-2.124 0-0.915 1.067-1.699 3.202-2.353 2.112-0.654 4.672-0.981 7.678-0.981 2.984 0 5.543 0.327 7.677 0.98zm-0.489 4.149c1.96-0.544 2.94-1.208 2.94-1.993 0-0.762-0.98-1.426-2.94-1.993-1.96-0.544-4.324-0.817-7.09-0.817-2.745 0-5.097 0.272-7.058 0.817-1.96 0.566-2.94 1.23-2.94 1.993 0 0.697 0.85 1.329 2.549 1.896 0.109 0.021 0.054 0.272-0.164 0.751-0.218 0.436-0.262 0.675-0.131 0.719 0.196 0.043 0.708-0.098 1.536-0.425 0.85-0.305 1.383-0.446 1.601-0.424 1.372 0.196 2.908 0.294 4.607 0.294 2.787-1e-3 5.151-0.273 7.09-0.818z" fill="#CCE4FF" fill-rule="evenodd"/></g><g id="change3_6"><path clip-rule="evenodd" d="m24.359 12.333l0.066 0.033-2.875 15.813 0.033 0.163c0 0.894-0.86 1.611-2.581 2.156-1.546 0.501-3.376 0.752-5.489 0.752-2.135 0-3.964-0.251-5.489-0.752-1.721-0.545-2.581-1.263-2.581-2.156v-0.163l-2.843-15.814 0.033-0.033c0 0.458 0.283 0.882 0.85 1.274l2.548 14.115 0.065 0.13 0.032 0.294-0.032 0.196c0 0.566 0.686 1.078 2.058 1.536 1.481 0.479 3.267 0.718 5.358 0.718s3.877-0.239 5.358-0.718c1.373-0.458 2.059-0.97 2.059-1.536l-0.065-0.196 0.065-0.229 2.614-14.311c0.545-0.412 0.816-0.837 0.816-1.272z" fill="#CCE4FF" fill-rule="evenodd"/></g><g id="change5_6"><path clip-rule="evenodd" d="m18.838 16.743c0.065-0.501 0.152-0.697 0.261-0.588 0.131 0.109 0.152 0.349 0.065 0.719-0.022 0.131-0.174 2.21-0.458 6.24-0.283 3.877-0.479 5.936-0.588 6.175-0.174 0.414-0.272 0.447-0.294 0.099l1.014-12.645z" fill="#BD5E27" fill-rule="evenodd"/></g><g id="change5_7"><path clip-rule="evenodd" d="m22.432 17.56c0.044 0.13-0.185 0.294-0.686 0.49-0.675 0.283-1.709 0.533-3.104 0.751-2.527 0.392-4.955 0.424-7.286 0.098-0.174 0-0.239-0.043-0.196-0.13 0.043-0.043 0.087-0.065 0.13-0.065 0.022 0 0.044 0.011 0.065 0.033 1.852 0.218 4.248 0.163 7.188-0.164 1.111-0.109 2.102-0.337 2.974-0.686l0.915-0.327z" fill="#BD5E27" fill-rule="evenodd"/></g><g id="change5_8"><path clip-rule="evenodd" d="m11.618 22.167c1.721 0.152 3.942 0.087 6.665-0.196 1.024-0.109 1.938-0.294 2.745-0.556l0.849-0.294c0.043 0.109-0.163 0.251-0.621 0.425-0.653 0.218-1.612 0.414-2.875 0.588-2.331 0.327-4.585 0.382-6.763 0.164-0.174 0-0.24-0.033-0.196-0.099l0.196-0.032z" fill="#BD5E27" fill-rule="evenodd"/></g><g id="change5_9"><path clip-rule="evenodd" d="m11.65 25.336c1.655 0.152 3.779 0.088 6.371-0.195 0.98-0.109 1.862-0.295 2.646-0.557l0.817-0.293c0.021 0.108-0.186 0.25-0.621 0.424-0.631 0.219-1.546 0.414-2.745 0.589-2.221 0.326-4.378 0.381-6.469 0.163-0.152 0-0.207-0.032-0.164-0.099l0.165-0.032z" fill="#BD5E27" fill-rule="evenodd"/></g><g id="change5_10"><path clip-rule="evenodd" d="m11.846 28.081c1.525 0.152 3.496 0.098 5.914-0.164 0.915-0.108 1.731-0.294 2.45-0.556l0.751-0.293c0.044 0.108-0.141 0.239-0.555 0.392-0.544 0.218-1.394 0.425-2.548 0.621-2.069 0.305-4.073 0.358-6.012 0.163-0.152 0-0.207-0.044-0.163-0.131l0.163-0.032z" fill="#BD5E27" fill-rule="evenodd"/></g><use height="21.75" opacity=".672" transform="rotate(180 14.3 5.475) scale(.7012)" width="6.15" xlink:actuate="onLoad" xlink:href="#d" xlink:show="embed" xlink:type="simple" xmlns:xlink="http://www.w3.org/1999/xlink" y="-21.75"/><g id="change2_3"><path clip-rule="evenodd" d="m32.479 12.05l0.701-1.122-2.454-0.701c-1.028-0.28-2.396-0.199-4.102 0.246-0.842 0.233-1.345 0.561-1.508 0.981-0.116 0.281 0.269 0.397 1.158 0.351l3.506 0.421 2.349-0.175h0.35z" fill="#DEEDFF" fill-rule="evenodd"/></g><g id="change3_7"><path clip-rule="evenodd" d="m28.622 12.681c0.444 0.21 0.864 0.398 1.262 0.561l0.491 0.141 1.402-1.069c-0.354-2e-3 -0.963-0.172-1.823-0.509-1.823-0.701-3.132-1.017-3.927-0.946-1.122 0.14-1.718 0.981-1.788 2.524-0.07 1.402 0.21 3.728 0.842 6.977 0.304 1.66 0.666 3.447 1.087 5.364 0.07 0.421 0.175 0.573 0.315 0.456s0.094-0.76-0.141-1.928c-0.584-2.969-0.946-4.944-1.086-5.926-0.42-2.735-0.491-4.476-0.21-5.224 0.42-1.262 1.612-1.402 3.576-0.421zm3.155-0.368c0.084 7e-3 0.154 1e-3 0.21-0.018l0.141-0.246-0.351 0.264z" fill="#CCE4FF" fill-rule="evenodd"/></g><g id="change4_3"><path clip-rule="evenodd" d="m30.305 11.805l0.07 1.578c0.351-0.07 0.701-0.187 1.052-0.351 1.122-0.351 1.684-0.62 1.684-0.807l0.069-1.297c-0.819 0-1.777 0.292-2.875 0.877z" fill="#98A7B8" fill-rule="evenodd"/></g><use height="33.196" opacity=".5" transform="matrix(-.7012 0 0 -.7012 50 9)" width="32.292" xlink:actuate="onLoad" xlink:href="#e" xlink:show="embed" xlink:type="simple" xmlns:xlink="http://www.w3.org/1999/xlink" y="-33.2"/><use height="27.35" opacity=".25" transform="rotate(180 25 6.7) scale(.7012)" width="32.45" xlink:actuate="onLoad" xlink:href="#f" xlink:show="embed" xlink:type="simple" xmlns:xlink="http://www.w3.org/1999/xlink" y="-27.35"/><linearGradient gradientTransform="matrix(-.6986 .0607 .0607 .6986 50.5 9)" gradientUnits="userSpaceOnUse" id="p" x1="4.809" x2="31.09" xlink:actuate="onLoad" xlink:show="other" xlink:type="simple" xmlns:xlink="http://www.w3.org/1999/xlink" y1="9.899" y2="9.899"><stop offset="0" stop-color="#fff"/><stop offset="1" stop-color="#DEDDB4"/></linearGradient><path clip-rule="evenodd" d="m29.288 16.713l10.238 6.732 8.169-7.784c-0.538-0.187-1.192-0.596-1.964-1.227-0.397-0.328-0.935-0.678-1.612-1.052-0.538-0.328-0.865-0.561-0.981-0.702-0.117-0.14-0.199-0.269-0.246-0.385-0.07-0.07-0.397-0.188-0.981-0.351-0.678-0.21-1.04-0.327-1.087-0.351s-0.222-0.188-0.525-0.491c-0.351-0.351-1.228-0.526-2.63-0.526-0.562 0-1.087 0.094-1.578 0.281-0.374 0.14-0.981 0.432-1.823 0.876-0.654 0.374-1.227 0.806-1.718 1.297-0.047 0.047-0.444 0.514-1.192 1.402l-2.07 2.281z" fill="url(#p)" fill-rule="evenodd"/><linearGradient gradientTransform="matrix(-.6986 .061 .061 .6986 50.5 9)" gradientUnits="userSpaceOnUse" id="q" x1="5.13" x2="30.702" xlink:actuate="onLoad" xlink:show="other" xlink:type="simple" xmlns:xlink="http://www.w3.org/1999/xlink" y1="19.509" y2="19.509"><stop offset="0" stop-color="#E8E6CC"/><stop offset="1" stop-color="#B8B695"/></linearGradient><path clip-rule="evenodd" d="m32.97 17.625c-0.468-0.351-1.765-0.654-3.892-0.912l2.349 12.622c0.117 0.328 0.503 0.655 1.157 0.982 1.332 0.677 3.377 1.052 6.136 1.122 2.781 0.069 4.791-0.141 6.03-0.632l1.052-0.771 2.314-14.234c-0.094 0.164-0.327 0.257-0.701 0.281-0.397 0.023-0.667 0.105-0.807 0.245-0.304 0.281-0.491 0.433-0.562 0.456-0.14 0.093-0.385 0.198-0.735 0.315-0.515 0.14-0.924 0.175-1.228 0.105-0.28 0.023-0.549 0.117-0.807 0.28-0.304 0.21-0.584 0.351-0.842 0.421-0.537 0.163-1.297 0.245-2.278 0.245-0.444 0.047-0.748 0.035-0.912-0.035-0.093-0.023-0.269-0.117-0.525-0.28-0.725-0.257-1.355-0.386-1.894-0.386-0.21 0-0.537 0.128-0.981 0.386-0.491 0.257-0.807 0.397-0.947 0.421-0.607 0.094-1.25-0.117-1.927-0.631z" fill="url(#q)" fill-rule="evenodd"/><linearGradient gradientTransform="matrix(-.7012 0 0 .7012 50.5 9)" gradientUnits="userSpaceOnUse" id="r" x1="3.799" x2="14.3" xlink:actuate="onLoad" xlink:show="other" xlink:type="simple" xmlns:xlink="http://www.w3.org/1999/xlink" y1="20.75" y2="20.75"><stop offset="0" stop-color="#fff"/><stop offset="1" stop-color="#fff" stop-opacity="0"/></linearGradient><path clip-rule="evenodd" d="m47.836 14.61l-7.293 0.876-0.07 17.005c1.285-0.07 2.303-0.164 3.05-0.281 0.491-0.069 0.9-0.245 1.228-0.525l0.351-0.421 2.734-16.654z" fill="url(#r)" fill-rule="evenodd"/><use height="25" opacity=".488" transform="rotate(180 16.825 6.8) scale(.7012)" width="5.25" xlink:actuate="onLoad" xlink:href="#j" xlink:show="embed" xlink:type="simple" xmlns:xlink="http://www.w3.org/1999/xlink" y="-25"/><linearGradient gradientTransform="matrix(-.7012 0 0 .7012 50.5 9)" gradientUnits="userSpaceOnUse" id="s" x1="3.487" x2="9.312" xlink:actuate="onLoad" xlink:show="other" xlink:type="simple" xmlns:xlink="http://www.w3.org/1999/xlink" y1="14.25" y2="14.25"><stop offset="0" stop-color="#CCE4FF"/><stop offset="1" stop-color="#fff"/></linearGradient><path clip-rule="evenodd" d="m46.644 22.288c0.093-0.981 0.269-1.917 0.525-2.805l0.877-2.384c-1.052-0.584-1.788-0.958-2.209-1.122s-1.04-0.257-1.858-0.281c0.188 1.286 0.397 2.373 0.631 3.261 0.234 0.889 0.911 1.999 2.034 3.331z" fill="url(#s)" fill-rule="evenodd"/><g id="change3_8"><path clip-rule="evenodd" d="m31.076 14.504c-2.104-0.584-3.155-1.297-3.155-2.139 0-0.818 1.052-1.531 3.155-2.139 2.104-0.584 4.64-0.876 7.608-0.876 2.945 0 5.47 0.292 7.573 0.876 2.104 0.608 3.155 1.321 3.155 2.139 0 0.748-0.912 1.426-2.734 2.034-0.117 0.023-0.059 0.292 0.175 0.807 0.233 0.467 0.281 0.724 0.141 0.771-0.211 0.047-0.76-0.105-1.648-0.456-0.911-0.327-1.484-0.479-1.718-0.456-1.473 0.21-3.12 0.316-4.943 0.316-2.993 0-5.529-0.292-7.609-0.877zm-0.526-4.452c-2.267 0.701-3.4 1.543-3.4 2.524 0 1.005 1.134 1.847 3.4 2.524 2.268 0.701 5.015 1.052 8.239 1.052 1.777 0 3.425-0.105 4.944-0.315 0.233-0.023 0.97 0.187 2.209 0.631 1.192 0.468 1.894 0.678 2.104 0.631s0.163-0.42-0.141-1.122c-0.28-0.701-0.351-1.075-0.21-1.122 1.847-0.584 2.77-1.344 2.77-2.279 0-0.981-1.146-1.823-3.436-2.524-2.267-0.701-5.013-1.052-8.24-1.052-3.201 0-5.948 0.351-8.239 1.052z" fill="#CCE4FF" fill-rule="evenodd"/></g><g id="change3_9"><path clip-rule="evenodd" d="m27.149 12.576l-0.07 0.035 3.086 16.969-0.035 0.176c0 0.959 0.923 1.729 2.77 2.314 1.659 0.537 3.623 0.806 5.89 0.806 2.291 0 4.255-0.269 5.891-0.806 1.847-0.585 2.77-1.355 2.77-2.314v-0.176l3.049-16.969-0.035-0.035c0 0.491-0.304 0.947-0.911 1.367l-2.736 15.147-0.07 0.14-0.034 0.316 0.034 0.21c0 0.608-0.735 1.157-2.208 1.648-1.59 0.514-3.507 0.771-5.751 0.771-2.243 0-4.16-0.257-5.749-0.771-1.473-0.491-2.209-1.04-2.209-1.648l0.069-0.21-0.069-0.245-2.805-15.357c-0.585-0.444-0.877-0.901-0.877-1.368z" fill="#CCE4FF" fill-rule="evenodd"/></g><g id="change5_11"><path clip-rule="evenodd" d="m33.074 17.31c-0.069-0.538-0.163-0.748-0.28-0.631-0.14 0.117-0.163 0.374-0.07 0.771 0.023 0.14 0.188 2.372 0.491 6.697 0.304 4.16 0.515 6.369 0.631 6.626 0.188 0.444 0.292 0.479 0.316 0.105l-1.088-13.568z" fill="#BD5E27" fill-rule="evenodd"/></g><g id="change5_12"><path clip-rule="evenodd" d="m30.199 18.537l-0.98-0.351c-0.048 0.14 0.198 0.315 0.735 0.526 0.725 0.304 1.835 0.572 3.331 0.806 2.712 0.421 5.317 0.456 7.818 0.105 0.188 0 0.258-0.047 0.211-0.14-0.047-0.047-0.094-0.07-0.141-0.07-0.023 0-0.047 0.012-0.07 0.035-1.986 0.234-4.558 0.175-7.713-0.175-1.192-0.117-2.255-0.362-3.191-0.736z" fill="#BD5E27" fill-rule="evenodd"/></g><g id="change5_13"><path clip-rule="evenodd" d="m40.823 23.13c-1.847 0.163-4.23 0.093-7.152-0.211-1.099-0.117-2.08-0.315-2.945-0.596l-0.911-0.315c-0.047 0.117 0.175 0.269 0.666 0.456 0.701 0.233 1.729 0.443 3.085 0.631 2.501 0.351 4.92 0.408 7.258 0.175 0.188 0 0.257-0.035 0.21-0.104l-0.211-0.036z" fill="#BD5E27" fill-rule="evenodd"/></g><g id="change5_14"><path clip-rule="evenodd" d="m40.788 26.53c-1.776 0.164-4.056 0.094-6.837-0.21-1.052-0.117-1.998-0.315-2.84-0.597l-0.877-0.314c-0.023 0.116 0.199 0.268 0.666 0.455 0.679 0.234 1.66 0.444 2.945 0.631 2.385 0.351 4.698 0.409 6.942 0.176 0.164 0 0.223-0.035 0.175-0.105l-0.174-0.036z" fill="#BD5E27" fill-rule="evenodd"/></g><g id="change5_15"><path clip-rule="evenodd" d="m40.578 29.476c-1.637 0.164-3.752 0.104-6.347-0.175-0.981-0.117-1.858-0.316-2.63-0.597l-0.806-0.315c-0.047 0.116 0.151 0.257 0.596 0.421 0.584 0.233 1.496 0.456 2.735 0.666 2.221 0.327 4.37 0.386 6.451 0.176 0.163 0 0.222-0.047 0.175-0.141l-0.174-0.035z" fill="#BD5E27" fill-rule="evenodd"/></g><use height="21.75" opacity=".672" transform="matrix(.8 0 0 -.8 32.5 15.2)" width="6.15" xlink:actuate="onLoad" xlink:href="#d" xlink:show="embed" xlink:type="simple" xmlns:xlink="http://www.w3.org/1999/xlink" y="-21.75"/><g id="change2_4"><path clip-rule="evenodd" d="m28.06 16.48l-0.8-1.28 2.8-0.8c1.174-0.32 2.733-0.227 4.68 0.28 0.96 0.266 1.534 0.64 1.721 1.12 0.133 0.32-0.308 0.454-1.32 0.4l-4 0.48-2.68-0.2h-0.401z" fill="#DEEDFF" fill-rule="evenodd"/></g><g id="change3_10"><path clip-rule="evenodd" d="m32.46 17.2c-0.507 0.24-0.987 0.454-1.44 0.64l-0.56 0.16-1.601-1.22c0.405-2e-3 1.099-0.196 2.08-0.58 2.08-0.8 3.573-1.16 4.48-1.08 1.279 0.16 1.959 1.12 2.04 2.88 0.079 1.6-0.24 4.253-0.96 7.96-0.348 1.894-0.761 3.933-1.24 6.119-0.08 0.48-0.2 0.654-0.36 0.521s-0.106-0.866 0.16-2.2c0.667-3.387 1.08-5.64 1.24-6.76 0.479-3.12 0.56-5.106 0.239-5.959-0.478-1.441-1.839-1.601-4.078-0.481zm-3.601-0.42c-0.096 8e-3 -0.176 1e-3 -0.239-0.02l-0.16-0.28 0.399 0.3z" fill="#CCE4FF" fill-rule="evenodd"/></g><g id="change4_4"><path clip-rule="evenodd" d="m30.539 16.2l-0.079 1.8c-0.4-0.08-0.8-0.213-1.2-0.4-1.28-0.4-1.92-0.707-1.92-0.92l-0.08-1.48c0.933 0 2.026 0.333 3.279 1z" fill="#98A7B8" fill-rule="evenodd"/></g><use height="33.196" opacity=".5" transform="matrix(.8 0 0 -.8 7.9 13.1)" width="32.292" xlink:actuate="onLoad" xlink:href="#e" xlink:show="embed" xlink:type="simple" xmlns:xlink="http://www.w3.org/1999/xlink" y="-33.2"/><use height="27.35" opacity=".25" transform="matrix(.8 0 0 -.8 7.85 17.95)" width="32.45" xlink:actuate="onLoad" xlink:href="#f" xlink:show="embed" xlink:type="simple" xmlns:xlink="http://www.w3.org/1999/xlink" y="-27.35"/><linearGradient gradientTransform="matrix(.797 .0693 -.0693 .797 7.5 13)" gradientUnits="userSpaceOnUse" id="t" x1="4.809" x2="31.089" xlink:actuate="onLoad" xlink:show="other" xlink:type="simple" xmlns:xlink="http://www.w3.org/1999/xlink" y1="9.899" y2="9.899"><stop offset="0" stop-color="#fff"/><stop offset="1" stop-color="#DEDDB4"/></linearGradient><path clip-rule="evenodd" d="m31.699 21.8l-11.68 7.68-9.319-8.88c0.613-0.213 1.36-0.68 2.24-1.4 0.453-0.373 1.066-0.773 1.84-1.2 0.613-0.374 0.987-0.64 1.12-0.8s0.227-0.307 0.28-0.439c0.08-0.08 0.453-0.214 1.12-0.4 0.773-0.24 1.187-0.373 1.24-0.4 0.054-0.027 0.253-0.213 0.6-0.56 0.4-0.4 1.4-0.6 3-0.6 0.64 0 1.24 0.107 1.8 0.32 0.427 0.16 1.121 0.493 2.08 1 0.747 0.426 1.4 0.919 1.96 1.48 0.054 0.053 0.507 0.586 1.36 1.6l2.359 2.599z" fill="url(#t)" fill-rule="evenodd"/><linearGradient gradientTransform="matrix(.797 .0696 -.0696 .797 7.5 13)" gradientUnits="userSpaceOnUse" id="u" x1="5.13" x2="30.702" xlink:actuate="onLoad" xlink:show="other" xlink:type="simple" xmlns:xlink="http://www.w3.org/1999/xlink" y1="19.509" y2="19.509"><stop offset="0" stop-color="#E8E6CC"/><stop offset="1" stop-color="#B8B695"/></linearGradient><path clip-rule="evenodd" d="m27.5 22.84c0.533-0.4 2.013-0.747 4.439-1.04l-2.68 14.399c-0.134 0.374-0.573 0.747-1.32 1.121-1.52 0.772-3.853 1.199-7 1.279-3.173 0.08-5.466-0.16-6.879-0.721l-1.2-0.878-2.64-16.24c0.107 0.186 0.374 0.293 0.8 0.32 0.453 0.026 0.76 0.12 0.92 0.28 0.347 0.319 0.56 0.493 0.64 0.52 0.16 0.106 0.44 0.227 0.84 0.359 0.586 0.16 1.053 0.2 1.4 0.121 0.32 0.026 0.626 0.133 0.92 0.319 0.347 0.24 0.667 0.4 0.96 0.48 0.613 0.187 1.48 0.279 2.6 0.279 0.507 0.054 0.854 0.04 1.04-0.04 0.106-0.026 0.307-0.133 0.6-0.319 0.827-0.294 1.547-0.44 2.16-0.44 0.24 0 0.613 0.146 1.12 0.44 0.56 0.293 0.92 0.453 1.08 0.479 0.693 0.109 1.427-0.131 2.2-0.718z" fill="url(#u)" fill-rule="evenodd"/><linearGradient gradientTransform="matrix(.8 0 0 .8 7.5 13)" gradientUnits="userSpaceOnUse" id="v" x1="3.8" x2="14.299" xlink:actuate="onLoad" xlink:show="other" xlink:type="simple" xmlns:xlink="http://www.w3.org/1999/xlink" y1="20.75" y2="20.75"><stop offset="0" stop-color="#fff"/><stop offset="1" stop-color="#fff" stop-opacity="0"/></linearGradient><path clip-rule="evenodd" d="m10.54 19.4l8.32 1 0.08 19.4c-1.466-0.08-2.626-0.187-3.479-0.32-0.56-0.08-1.027-0.28-1.4-0.601l-0.4-0.479-3.121-19z" fill="url(#v)" fill-rule="evenodd"/><use height="25" opacity=".488" transform="matrix(.8 0 0 -.8 26.9 19)" width="5.25" xlink:actuate="onLoad" xlink:href="#j" xlink:show="embed" xlink:type="simple" xmlns:xlink="http://www.w3.org/1999/xlink" y="-25"/><linearGradient gradientTransform="matrix(.8 0 0 .8 7.5 13)" gradientUnits="userSpaceOnUse" id="w" x1="3.487" x2="9.312" xlink:actuate="onLoad" xlink:show="other" xlink:type="simple" xmlns:xlink="http://www.w3.org/1999/xlink" y1="14.25" y2="14.25"><stop offset="0" stop-color="#CCE4FF"/><stop offset="1" stop-color="#fff"/></linearGradient><path clip-rule="evenodd" d="m11.9 28.16c-0.106-1.12-0.307-2.187-0.6-3.2l-1-2.721c1.2-0.666 2.04-1.093 2.52-1.279s1.187-0.293 2.12-0.32c-0.213 1.467-0.453 2.707-0.72 3.721-0.266 1.012-1.04 2.279-2.32 3.799z" fill="url(#w)" fill-rule="evenodd"/><g id="change3_11"><path clip-rule="evenodd" d="m30.26 14.2c2.587 0.8 3.88 1.76 3.88 2.88 0 1.146-1.293 2.106-3.88 2.88-2.587 0.8-5.72 1.2-9.4 1.2-2.027 0-3.906-0.12-5.64-0.36-0.266-0.026-1.106 0.213-2.52 0.72-1.36 0.534-2.16 0.773-2.4 0.72s-0.187-0.479 0.16-1.279c0.32-0.8 0.4-1.227 0.24-1.28-2.107-0.667-3.16-1.534-3.16-2.6 0-1.12 1.307-2.08 3.92-2.88 2.586-0.8 5.72-1.2 9.4-1.2 3.653-1e-3 6.786 0.399 9.4 1.199zm-0.6 5.08c2.399-0.667 3.6-1.48 3.6-2.44 0-0.933-1.2-1.747-3.6-2.44-2.4-0.667-5.293-1-8.68-1-3.36 0-6.24 0.333-8.64 1-2.4 0.693-3.6 1.507-3.6 2.44 0 0.854 1.041 1.627 3.12 2.32 0.133 0.026 0.066 0.333-0.2 0.92-0.267 0.533-0.32 0.827-0.16 0.88 0.24 0.053 0.867-0.12 1.88-0.52 1.04-0.373 1.693-0.547 1.96-0.52 1.68 0.24 3.56 0.36 5.64 0.36 3.413 0 6.306-0.334 8.68-1z" fill="#CCE4FF" fill-rule="evenodd"/></g><g id="change3_12"><path clip-rule="evenodd" d="m34.14 17.08l0.08 0.04-3.521 19.36 0.04 0.2c0 1.094-1.053 1.973-3.159 2.641-1.894 0.613-4.134 0.919-6.72 0.919-2.614 0-4.854-0.306-6.72-0.919-2.106-0.668-3.16-1.547-3.16-2.641v-0.2l-3.48-19.36 0.04-0.04c0 0.56 0.347 1.08 1.04 1.56l3.12 17.28 0.08 0.159 0.04 0.36-0.04 0.24c0 0.693 0.84 1.32 2.52 1.88 1.813 0.587 4 0.88 6.56 0.88s4.747-0.293 6.56-0.88c1.68-0.56 2.52-1.187 2.52-1.88l-0.08-0.24 0.08-0.279 3.2-17.521c0.667-0.506 1-1.026 1-1.559z" fill="#CCE4FF" fill-rule="evenodd"/></g><g id="change5_16"><path clip-rule="evenodd" d="m27.38 22.479c0.08-0.613 0.187-0.854 0.319-0.72 0.16 0.134 0.188 0.427 0.08 0.88-0.026 0.16-0.213 2.707-0.56 7.64-0.347 4.747-0.587 7.268-0.72 7.561-0.214 0.507-0.333 0.547-0.36 0.12l1.241-15.481z" fill="#BD5E27" fill-rule="evenodd"/></g><g id="change5_17"><path clip-rule="evenodd" d="m27.14 25c-3.093 0.479-6.066 0.52-8.92 0.12-0.213 0-0.293-0.054-0.24-0.16 0.053-0.054 0.106-0.08 0.16-0.08 0.027 0 0.054 0.014 0.08 0.04 2.267 0.267 5.2 0.2 8.8-0.2 1.359-0.133 2.573-0.413 3.641-0.84l1.119-0.4c0.054 0.16-0.227 0.36-0.84 0.601-0.827 0.346-2.093 0.652-3.8 0.919z" fill="#BD5E27" fill-rule="evenodd"/></g><g id="change5_18"><path clip-rule="evenodd" d="m18.54 29.12c2.107 0.187 4.827 0.106 8.16-0.24 1.254-0.134 2.374-0.36 3.36-0.68l1.04-0.36c0.053 0.134-0.2 0.307-0.76 0.521-0.801 0.266-1.974 0.506-3.521 0.72-2.853 0.399-5.613 0.466-8.28 0.2-0.213 0-0.293-0.041-0.24-0.12l0.241-0.041z" fill="#BD5E27" fill-rule="evenodd"/></g><g id="change5_19"><path clip-rule="evenodd" d="m18.58 33c2.026 0.187 4.626 0.106 7.8-0.24 1.2-0.134 2.28-0.36 3.24-0.681l1-0.359c0.026 0.133-0.228 0.307-0.761 0.52-0.773 0.268-1.893 0.507-3.359 0.721-2.72 0.399-5.36 0.466-7.92 0.2-0.187 0-0.254-0.04-0.2-0.121l0.2-0.04z" fill="#BD5E27" fill-rule="evenodd"/></g><g id="change5_20"><path clip-rule="evenodd" d="m18.82 36.359c1.867 0.188 4.28 0.12 7.24-0.199 1.12-0.134 2.12-0.36 3-0.681l0.92-0.359c0.054 0.133-0.173 0.293-0.68 0.479-0.667 0.267-1.707 0.521-3.12 0.76-2.534 0.374-4.986 0.44-7.36 0.2-0.187 0-0.253-0.053-0.2-0.16l0.2-0.04z" fill="#BD5E27" fill-rule="evenodd"/></g></svg>