<?xml version="1.0" encoding="UTF-8"?><svg xmlns="http://www.w3.org/2000/svg" xmlns:xlink="http://www.w3.org/1999/xlink" height="532.7" preserveAspectRatio="xMidYMid meet" version="1.0" viewBox="72.3 109.6 529.5 532.7" width="529.5" zoomAndPan="magnify"><g id="change1_1"><path d="m281.24 631.36c-1.7004-19.473-7.7904-48.797-7.2652-62.167 13.898 17.197 4.5726 40.694 14.974 59.161 12.639-14.078 22.77-29.127 31.467-45.383 11.443-19.155 17.719-40.577 30.498-59.122-0.72883-26.99-2.2596-54.12-3.453-80.954 10.01 22.637 8.4276 49.831 9.8588 74.535-5.1128 24.762-23.074 46.895-31.863 71.59-12.542 13.283-21.397 53.298-42.959 45.421l-1.2585-3.0797v2e-5zm9.4674-50.124c4.2384-17.696 3.515 15.516 0-2e-5v2e-5zm212.05-0.19371c-24.509-16.119-54.349-23.266-78.158-40.012-30.558-24.861-61.253-54.789-71.636-92.991 13.776 15.764 24.069 41.007 39.877 58.181 19.39 24.201 45.46 43.563 76.059 52.465 9.6651 4.4005 43.686 23.264 20.65 2.5939-17.977-19.961-39.816-33.53-62.394-47.482-28.4-22.082-47.038-52.799-68.497-80.698-7.4849-7.6942-14.953-26.212 0.6423-9.5304 17.179 19.733 29.946 42.532 46.992 62.445 16.787 24.004 45.552 33.902 68.822 49.217 12.34 9.8229 29.408 33.595 34.829 39.219-13.653-21.066-20.369-45.562-35.386-65.667-27.091-32.398-60.234-61.785-99.669-79.354-1.251-5.9191-42.513-21.772-19.556-18.898 31.862 17.573 64.888 34.093 92.147 58.36 25.986 22.465 47.363 50.411 62.392 80.653 2.1058 10.427 21.461 48.492-7.1152 31.498zm-200.46-6.4723c6.7749-23.216 11.636-4.53 0 0zm17.412-1.9894c6.4623-45.147 15.865-91.657 3.9292-136.73 0.55982-28.776-10.491 24.452-16.26 34.676-8.5142 28.347-19.978 59.92-7.1531 88.556-2.7945 20.643-13.646-21.27-10.734-29.131 5.9268-23.54-4.7065-33.755 7.5154-53.793 2.8182-11.346 18.696-40.884 13.953-39.125-16.883 32.424-27.571 67.543-35.825 102.76-5.1264-17.744 3.741-43.027 9.6223-62.493 4.4664-16.292 22.646-54.28 31.643-46.752 11.153-6.3291-14.785-16.896 0.37459-16.566 14.749 1.6268 17.561 8.0403 11.649 14.691 8.7341 33.071 5.3956 67.869 4.2084 101.64-2.1292 13.507-5.3954 34.633-12.924 42.264zm-181.47-5.5155c0.26887-24.342 16.713-48.321 28.024-70.081-2.3041 22.807-15.945 43.37-20.783 65.209 22.151-7.3677 44.482-17.019 67.473-23.017 11.506-4.4562 45.388-28.11 17.119-6.1274-21.43 14.472-46.709 21.916-70.256 32.527-6.6189 1.3877-15.632 7.7536-21.577 1.489zm175.59-10.248c12.696-17.231-1.8447 13.836 0 0zm-160.16-7.0342c9.1362-15.41 10.896-2.5188 0 0zm19.304-9.9056c8.8207-12.603 8.2411 5.032 0-1e-5v1e-5zm-7.7215-5.5508c10.858-21.576 13.114 1.0547 0 0zm21.269-5.3134c15.662-17.745 42.588-20.585 58.513-38.887 18.263-6.7464 24.742-39.392 39.664-57.249 8.6605-11.785 9.9328-21.939-5.432-8.4351-35.947 19.972-70.243 45.996-90.147 81.74-11.846-9.5515 20.903-32.642 22.165-44.247 22.892-24.167 55.774-36.877 85.22-51.585 6.6982 17.822-21.035 42.228-27.625 61.879-10.599 23.508-37.573 34.205-59.756 46.039-8.3651-3.0139-13.495 17.245-22.603 10.745zm-1.9723-14.547c15.315-11.967-10.051 14.403 0 0zm128.55 0.46206c4.9609-24.278 6.4029 15.105 0 0zm-71.416 0.46949c18.616-23.895 34.377-49.46 49.296-75.597 10.845-8.1451 16.994-32.103 7.469-35.055 21.614 10.317-3.5752 37.723-10.9 53.151-11.998 21.63-25.134 42.467-45.866 57.501zm66.417-4.6948c5.1417-17.628 0.91832 17.126 0 0zm84.825-7.8019c-19.463-22.972-31.821-50.669-47.012-75.849 18.063 6.7544 23.101 36.629 35.767 52.812 1.9349 4.9768 35.287 49.007 11.245 23.037zm-47.059 2.5566c7.2937-9.3446-2.4458 8.5835 0 0zm140.85-8.6724c-16.627-17.577-25.294-40.782-48.985-52.829-9.9479-5.6174-27.194-18.655-15.317-19.964-17.244-2.0597-45.026-15.204-50.208-25.081 32.937 11.37 65.083 26.708 100.61 29.217 18.875 9.1397 44.059 2.1021 60.811 0.28758-24.251 10.423-52.525 11.227-78.871 9.5505-34.728-8.4609 13.739 14.23 16.442 25.955-2.5944 16.234 21.941 24.343 18.371 36.352l-1.5821-1.1616-1.2686-2.3277-1e-5 -2e-5zm-5.8454-64.016c-4.4532-2.7276-41.721-1.3457-19.981-0.40796 5.0403-0.56465 19.639 4.3086 19.981 0.40796zm-33.42-3.1607c-11.777-1.8709 3.5428 3.6405 0 0zm-19.986 63.772c-18.34-21.602 1.0976-6.5702 7.2092-3.0265-3.0028-10.604-36.81-24.649-23.482-30.357 10.923 6.2219 48.829 33.72 20.737 36.904l-4.4642-3.5205v2e-5zm-112.48 1.5606c1.1458-11.717 5.9288-30.948 4.4185-8.891-0.12433 1.6979-0.74851 13.435-4.4185 8.891zm31.08-1.4525c-5.4213-18.975 6.1647-9.351 0 0zm-36.792-3.9916c-6.0296-9.4744 13.334-42.799 6.489-18.314-1.195 1.1716-3.2952 26.484-6.489 18.314zm-128.58-9.6297c20.7-30.384 53.912-51.04 87.221-66.936 25.536-1.5191-22.753 17.507-30.242 25.198-20.555 10.446-39.417 34.16-56.98 41.739l1e-5 -1e-5zm60.702-7.1352c-16.598-6.138 6.4677-24.871 14.439-20.362-10.418 7.7264-17.424 18.835-0.80118 4.9914 18.386-10.895-17.562 28.682-13.638 15.37zm102.46-1.8542c-4.5122-13.384-14.144-38.959-2.5737-40.007 0.57059 7.6383 8.8401 43.861 2.5737 40.007zm64.624 1.3274c-5.691-8.5721 10.349 3.5622 0 0zm46.208-9.2454c-18.154-20.948 22.288 14.982 0 0zm-47.556-26.032c-21.741-9.9156-42.915-37.321-67.647-27.637 11.686-19.602 42.928 4.6482 59.03 12.796 9.5268 6.1443 46.115 25.562 21.197 19.109-3.211 3.0826-9.236-3.2635-12.581-4.267zm140.05-12.674c23.879-4.5768-10.026 7.1643-3.7216 1.5721l3.7216-1.5721zm-374.69-0.40795c-11.666-7.646 27.043-2.366 34.576-5.2667 22.644-2.7965 45.233-9.0756 65.321-19.625-8.7814 2.5482-39.151 11.455-17.373 1.2375-16.525-1.2828-11.793-3.8993 1.9823-6.5833 12.668-2.0604 41.565-6.2378 14.168-12.246-28.086-14.065-58.89-21.601-89.966-26.164-9.4484-4.9865-43.952-4.3981-16.035-7.8211 40.284 0.39541 77.224 18.039 115.17 28.521-9.7562-13.186-39.629-9.5548-47.99-20.025 30.786 6.9162-20.063-17.676-5.4298-0.18365-9.2784-5.3114-45.788-7.8419-38.149-16.731 25.075 7.8969 53.36 4.3516 76.706 19.394 9.324 5.0233 25.348 6.147 18.461 19.875 14.316-1.3475 8.9141-18.366-6.3772-17.909-36.206-17.365-71.37-42.663-88.936-78.672 20.328 16.377 40.958 45.097 67.627 59.127 18.212 10.331 43.992 24.08 45.562 36.508 11.096 9.9446-12.524 35.928-18.562 16.083-20.392 5.2381 8.2694 3.0368-9.2342 12.551-30.122 18.649-66.876 19.852-101.52 17.929zm121.96-30.983c-3.2543-13.221-1.3179 17.54 0 0zm2.066-11.268c-3.6558-4.8033-4.4602 6.8428 0 0zm266.39 41.784c7.6974-5.8044 15.69 2.4062 0 0zm-228.25-5.8069c-3.2437-6.8563-34.746-8.756-11.091-9.8697 9.7072-10.477 21.926 22.532 11.091 9.8697zm241.77 4.2791c12.45-13.34-29.576-6.1763-39.584-8.1022-23.506-1.7956 19.615-11.323 27.594-5.2431 11.032 2.5394 36.422 5.7849 10.886-1.346-21.935-2.3258-28.834-21.963-54.83-21.732-15.388-14.118-38.054-30.542-62.431-27.723-20.687-2.083-48.473 13.781-64.481 3.8188 14.3-20.274 47.239-21.985 52.255-46.685 14.359-13.486 7.339-4.2775 1.267 5.6928 23.686 7.9267 26.026-28.18 38.741-40.685 6.7516-12.733 14.949-17.057 4.8703-0.68333-14.482 20.182-16.454 46.723-41.928 58.166-11.067 1.7347-37.912 17.25-39.064 20.621 24.311 0.46331 49.226-16.211 72.068-4.1981 23.584 9.181 40.442 30.414 66.464 30.975 13.766 7.4448 53.6 12.709 48.243 31.032-4.697 3.6212-14.398 9.428-20.071 6.0914zm-137.73-6.7975c-25.846-1.3422-49.785-13.838-73.229-22.915 23.269 3.4548 46.513 7.8174 68.548 15.872 16.662 6.6135 54.886 1.3406 60.356 7.7759-18.382 2.1095-37.373 1.9928-55.676-0.73327zm-323.01-8.1122c-23.172-8.0992-43.358-44.818-12.611-56.914 24.613-13.344 51.117-17.497 77.933-17.052 19.637-5.2913 18.016 8.1715-1.7363 5.9137-26.341-1.6789-51.053 6.4416-73.833 18.459-13.211 5.2727-15.421 23.087 2.0445 10.035 16.9-1.0763 37.578-11.92 50.963-8.081-15.521 12.068-50.643 2.5741-58.722 17.081 8.2351-8.64 49.64-5.3339 20.562 0.11295-10.719 4.5611-34.25 5.6996-13.493 17.345 10.915 5.7336 36.033 30.032 8.8923 13.101v1e-5zm387.39 5.461c14.273-20.796 15.138 3.7839 0 0zm-327.2-5.9377c-12.296-2.831-46.38-14.267-38.215-25.928 21.341 16.045 47.466 26.812 75.877 21.072 9.632-1.0338 39.691-7.1307 15.512 1.2676-17.321 3.4586-35.542 6.2266-53.174 3.588zm109.07 0.01287c6.3565-7.5243 10.845 7.9529 0 0zm177.59-4.6948c-18.967 1.9973-22.687-21.174-0.32174-15.023 11.457-3.2653 36.496 9.0836 19.39 12.025 7.4331 8.1759-15.998 5.9-19.068 2.9981zm13.927-5.0424c-11.265-5.1645-35.038-2.3397-10.667 0.13339 1.0978 0.80202 14.312 4.7054 10.667-0.13339zm-124.23 1.8211c-13.782-12.435 13.422-18.657-6.8653-22.043-6.9687-26.046-28.991-0.40237-40.506-3.8351-4.743-19.989-17.467-43.596-26.961-64.913-20.724-36.271-40.49-77.843-82.023-95.925-18.658-0.8551-34.007-29.8-44.376-28.21 19.8 14.317 32.101 38.848 48.064 56.166-21.734-10.437-33.801-31.041-45.479-50.639-2.0743 22.027 16.705 47.585 21.508 71.218 11.859 31.284-13.07-13.209-14.136-23.855-1.2194-17.048-30.389-52.384-9.89-60.749 25.329 7.3115 45.025 25.698 69.052 35.903 21.511 15.414 45.032 30.675 59.751 52.657 14.731 32.151 1.6363-19.026 3.8901-30.575 3.2026-23.127 9.6443-46.436 19.544-67.924 9.6309-16.869 4.1977-52.724 26.25-56.266 15.679 24.055 25.869 51.481 36.155 78.119 0.87017 11.277 8.7832 28.185-3.738 27.404-3.5426 34.804-7.058 70.93-22.941 102.86-4.2404-12.377 13.425-46.776 14.7-67.704 4.9782-30.319 8.6614-63.055-8.514-90.725-6.7647-14.476-12.853-29.23-18.945-43.976-11.562 24.343-17.221 51.037-28.562 75.588-6.8804 24.107 2.6422 47.168 2.4676 71.901 2.9629 25.675 10.067 50.606 19.235 74.811-12.714 3.4726-12.734-41.248-24.477-37.763-8.5823-12.106-24.105-37.102-39.412-53.247-5.0352-7.5106-28.312-26.274-11.836-6.9581 26.161 35.549 47.738 74.377 60.446 116.33 4.5783 11.165 27.414 11.088 17.431-2.164 5.4326 13.621 28.976-22.466 15.336 2.3883 20.831-11.07 22.829-40.201 40.31-56.134 9.4715-12.154 33.936-46.095 41.807-40.175-27.387 26.059-47.816 57.521-66.335 89.7-14.234 6.9241-11.435 19.691 0.73875 2.8475 14.399-21.817 24.928-46.106 44.842-64.215 11.332-14.76 30.592-38.35 46.035-39.357-10.131 5.9599-27.687 24.859-6.1015 9.7563 8.3188-6.5682 38.016-22.228 32.1-25.52-21.82 0.58158 22.339-9.7984 26.955-15.95 29.846-23.035-47.082 20.601-19.182-1.0747 12.194-7.6803 60.731-31.138 47.708-1.709-4.1086 8.3459-17.078 38.308-21.426 32.168 7.1893-8.5762 10.587-28.799-0.63187-8.139-19.847 42.414-57.959 74.47-98.114 98.931-11.71 4.7273-34.809 20.744-9.9426 8.0998 9.9262-3.093 36.375-26.267 37.11-17.989-15.644 12.325-39.499 31.449-57.837 25.285-3.8968 15.058-15.211 3.593-24.141 19.396 21.921 5.5772-6.8056 17.36 3.5878 27.43l-2.6523-1.2253h1e-5zm1.36-35.448c31.415-22.342 66.628-40.472 94.124-67.879 21.12-9.9236 37.327-30.862 47.145-51.363-14.995 3.6505-22.84 33.686-31.458 32.211 9.8869-28.482 37.88-45.26 56.631-67.815-20.583 12.54-36.162 33.482-58.353 42.003-20.902 14.653-44.014 28.263-60.015 48.871-15.671 17.988-29.048 37.781-42.709 57.024-6.2731 5.1794-21.137 19.288-5.3659 6.9474zm64.495-62.869c-8.66-22.589 31.417-30.871 21.856-3.1873-4.7523 3.5607-18.606 13.373-21.856 3.1873zm16.431-13.668c-11.937 4.3833-12.587 17.299-1.0224 2.2345l1.0224-2.2345h-1e-5zm-134.78 3.0004c-3.1701 1.5461 1.7091 9.6182 0 0zm-8.7643-4.554c-6.7454-6.6428 4.88 11.98 0 0zm6.7218-3.8576c-3.833 3.444 2.6089 7.1744 0 0zm-1.7703-13.206c-2.9011 4.8099 1.7203 14.095 0 0zm-1.8944-15.94c-2.7998 3.5458 1.5544 16.732 0 0zm-1.9101-21.596c-2.7003 4.4645 1.505 20.351 0 0zm249.57 166.67c2.8816-5.9312 4.3469 6.4408 0 0zm-234.4-2.951c-8.6065-11.248 12.979 6.4683 0 0zm-81.213-0.80481c19.519-6.845 3.9637 6.1055 0 0zm15.443-3.7558c16.884-16.334-0.36767 10.116 0 0zm83.971 0c0.88007-8.5179-13.976-20.372 5.0223-7.7961 6.9809 2.1012-3.1789 14.092-5.0223 7.7961zm32.816-0.75348c8.5188-15.758 28.569 0.51433 6.5677 0.58492l-4.598 0.00118-1.9697-0.5861zm-152.5-2.8883c-16.055 7.2526-29.963-17.422-10.252-18.5 9.7176-1.9474 45.283 4.6258 33.802 13.856-9.0097-5.3844-54.222-7.5907-23.332 0.24022 13.993-0.3365 34.988 6.9097 8.6754 5.9479l-3.7411-0.31846-5.1525-1.2264v-1e-5zm181.45-1.7004c22.041-12.545 50.091-10.976 75.206-10.78 12.466 1.1047 32.663-0.07391 40.103 5.365-22.236 6.9639-46.178-1.7484-70.075 1.0472-15.108 0.11635-30.467 6.9087-45.234 4.3681zm-238.4-4.0474c-0.35121-7.541 7.8505 7.0358 0 0zm238.4-2.4602c7.2596-9.7236 48.528-15.805 43.275-7.2943-14.31 2.5148-28.988 6.0544-43.275 7.2943zm-239.37-3.8909c3.2212-11.487 5.1257 6.1423 0 0zm164.08 0.7173c4.8019-7.2962 4.8018 7.2962 0 0zm57.911-3.7558c1.9117-10.959 19.125 9.5546 1.0716 2.9017l-1.0716-2.9017zm68.086-3.0125c6.3029-2.0701 5.1688 3.487 0 0zm21.801-0.54658c4.5366-16.126 18.284-0.34589 0 0zm-161.42-3.1384c-21.379-14.328-40.583-31.488-56.076-51.556-24.333-9.5308-36.474-35.62-48.632-56.581 1.4484-23.425 18.908 27.713 29.112 33.083 19.787 20.836 41.411 40.084 64.609 57.39 3.1089-0.15462 23.873 30.152 10.987 17.664zm17.866-3.0678c-10.939-8.2001-4.6515-18.76 2.3066-2.9108 5.5715 6.2862-1.4754 5.5308-2.3066 2.9108zm-151.92-3.3803c7.29-6.4284 1.2171 6.2066 0 0zm165.05-12.479c1.0124-16.318 11.438-12.67 4.0983 1.9542-0.04926 7.1632-6.9908 2.8343-4.0983-1.9542zm-186.28-0.66665c8.9406-6.7755 3.9059 6.5179 0 0zm154.68-16.433c-2.0657-10.147-23.245-43.187-15.656-40.091 7.2331 17.624 35.777 40.996 25.278 57.88-4.9771-4.7453-6.8241-11.773-9.6223-17.789zm26.204 11.844c-4.9542-23.401 9.0022 17.769 0 0zm20.269 3.2114c-3.5252-13.045 5.8676-21.786 3.4821-2.7182 0.4867 1.026-1.9818 6.0825-3.4821 2.7182zm-26.871-19.279c-6.4241-11.142 1.1929-31.507 2.0884-7.6173-0.32467 1.3368 0.1374 9.7939-2.0884 7.6173zm39.024 1.4635c9.7806-26.8 28.141-50.868 48.94-70.864 14.918-6.3589 43.185-27.001 50.249-23.438-22.274 16.285-50.193 25.944-65.026 50.196-11.85 14.364-22.078 29.946-34.163 44.106zm-29.917-4.5151c17.24-8.0508-5.1876 10.186 0 0zm19.158-4.7062c2.1283-8.195 11.057-44.479 14.311-36.57-3.3704 10.652-8.1646 42.889-14.814 40.657l0.50354-4.0867h-1e-5zm-93.341-10.336c-12.191-20.344 16.727 15.75 0 0zm4.815-3.2265c-4.6766-9.3582-24.432-31.292-12.154-10.803-16.941-2.9086-25.971-36.192-1.6468-21.66 1.0258 13.912 27.238 31.229 21.369 39.927-2.9134-2.0999-5.2703-4.78-7.5681-7.464zm100.36 0.6629c6.161-24.422 8.9291-49.76 11.02-74.498 10.46 20.936-0.71648 46.888-5.5618 68.708-2.8593 5.1471-8.9044 23.609-5.4581 5.7896zm-43.567-3.7558c-6.8558-31.242-12.594-65.009-0.09321-95.62 12.425-16.096-8.4972 39.838-1.5722 52.684-0.60994 13.574 5.6175 32.214 1.6654 42.936zm-126.21-4.8484c-6.0414-16.11 11.607 10.968 0 0zm81.834-22.382c-5.7346-11.004 9.7964 6.9778 0 0zm89.886-5.2453c7.2937-9.3446-2.4459 8.5835 0 0zm-27.274-9.4181c2.1939-7.5102-6.9854-39.965 5.6648-19.069 2.886 3.2908-0.43936 23.85-5.6648 19.069zm-124.6-2.7075c12.175-13.27-3.1755 9.8403 0 0zm119.17-1.9683c-5.4653-8.1263-0.87403-36.686 1.7682-12.518-0.19861 1.3062 2.6874 17.73-1.7682 12.518zm13.272-52.961c-0.35114-7.5409 7.8504 7.0358 0 0zm-23.029-22.535c3.8856-22.591 8.9557-2.422-1.3306 6.5727l1.3306-6.5727zm2.7601-16.901c2.8816-5.9312 4.3468 6.4408 0 0zm0.65757-6.4701c0.12989-16.491 13.27-15.205 3.5653 0.40158 0.23398 2.3354-6.5093 3.266-3.5653-0.40158z" fill="inherit"/></g></svg>