<?xml version="1.0" encoding="UTF-8"?><svg xmlns="http://www.w3.org/2000/svg" xmlns:xlink="http://www.w3.org/1999/xlink" height="502.7" preserveAspectRatio="xMidYMid meet" version="1.0" viewBox="0.0 -2.3 317.5 502.7" width="317.5" zoomAndPan="magnify"><defs><clipPath id="a"><path d="M 0 55 L 317.480469 55 L 317.480469 490 L 0 490 Z M 0 55"/></clipPath></defs><g><g clip-path="url(#a)" id="change1_1"><path d="M 315.71875 233.867188 C 314.945312 263.785156 308.507812 360.085938 307.246094 378.488281 C 305.238281 408.28125 294.5 438.203125 276.96875 460.589844 C 270.367188 469.191406 262.636719 474.464844 252.835938 478.25 C 250.992188 478.960938 249.050781 479.640625 247.046875 480.253906 C 247.046875 480.253906 244.71875 482.585938 235.757812 484.878906 C 222.429688 488.277344 194.417969 491.542969 137.585938 486.789062 C 42.675781 478.832031 35.367188 454.925781 33.523438 453.695312 C 31.679688 452.4375 17.609375 443.152344 12.722656 435.519531 C 5.414062 424.035156 2.210938 409.027344 0.691406 390.945312 C -0.539062 376.191406 0.140625 361.832031 0.691406 347.273438 C 2.308594 300.371094 0.691406 160.730469 0.691406 160.730469 C 3.375 132.683594 1.238281 106.289062 23.332031 85.78125 C 38.957031 70.707031 61.082031 66.371094 79.941406 55.601562 L 252.738281 82.738281 C 275.578125 96.90625 309.410156 109.492188 313.359375 138.636719 L 314.945312 148.859375 C 319.664062 175.609375 316.496094 207.113281 315.71875 233.867188" fill="#f03849"/></g><g id="change2_1"><path d="M 45.265625 441.875 C 23.554688 428.171875 14.179688 403.777344 9.609375 379.535156 C 9.222656 377.488281 6.105469 378.359375 6.488281 380.394531 C 11.226562 405.511719 21.214844 430.519531 43.632812 444.667969 C 45.402344 445.785156 47.023438 442.984375 45.265625 441.875" fill="#faf6f3"/></g><g id="change2_2"><path d="M 51.40625 450.632812 C 52.882812 451.195312 54.140625 452.179688 55.628906 452.742188 C 57.578125 453.488281 58.414062 450.359375 56.484375 449.625 C 55.011719 449.0625 53.75 448.082031 52.265625 447.515625 C 50.3125 446.769531 49.476562 449.898438 51.40625 450.632812" fill="#faf6f3"/></g><g id="change2_3"><path d="M 13.265625 234.710938 C 12.636719 210.179688 12.175781 185.640625 12.3125 161.101562 C 12.394531 145.808594 12.160156 130.089844 14.515625 114.929688 C 14.835938 112.871094 11.597656 112.800781 11.28125 114.835938 C 8.929688 130.003906 9.191406 145.703125 9.078125 161.007812 C 8.894531 185.546875 9.402344 210.089844 10.035156 234.617188 C 10.085938 236.691406 13.320312 236.800781 13.265625 234.710938" fill="#faf6f3"/></g><g id="change2_4"><path d="M 25.007812 97.382812 C 30.460938 90.953125 36.535156 85.484375 44.253906 81.941406 C 46.148438 81.070312 44.804688 78.128906 42.90625 79 C 34.6875 82.773438 28.195312 88.636719 22.390625 95.480469 C 21.039062 97.078125 23.667969 98.960938 25.007812 97.382812" fill="#faf6f3"/></g><g id="change2_5"><path d="M 302.960938 127.660156 C 286.660156 146 262.949219 156.28125 239.800781 163 C 236.421875 163.980469 233.007812 164.925781 229.566406 165.824219 C 227.976562 159.003906 220.855469 148.015625 217.59375 143.222656 C 232.011719 139.421875 245.785156 133.523438 258.238281 124.921875 C 272.449219 115.101562 285.703125 99.265625 286.175781 81.621094 C 286.273438 78.035156 285.84375 74.378906 284.789062 70.679688 C 282.128906 61.363281 274.273438 54.171875 267.585938 47.570312 C 263.535156 43.578125 259.191406 39.898438 254.597656 36.539062 C 248.734375 32.25 242.464844 28.527344 235.984375 25.25 C 219.582031 16.960938 202.316406 10.714844 184.574219 5.984375 C 176.328125 3.785156 167.90625 2.078125 159.425781 1.085938 C 130.449219 -2.316406 101.195312 2.5 73.886719 12.429688 C 63.496094 16.210938 55.949219 23.375 49.84375 32.804688 C 31.109375 61.738281 57.691406 103.667969 60.855469 107.796875 C 72.847656 123.460938 92.523438 132.8125 110.558594 139.5 C 129.574219 146.550781 150.234375 148.75 170.410156 148.859375 C 177.234375 148.898438 184.070312 148.625 190.863281 147.953125 C 194.476562 147.59375 198.074219 147.121094 201.652344 146.550781 C 205.015625 152.484375 211.484375 164.175781 213.386719 169.636719 C 195.414062 173.390625 176.988281 175.523438 158.882812 174.621094 C 129.777344 173.175781 99.699219 164.40625 74.054688 150.542969 C 51.289062 138.234375 30.957031 123.5 19.878906 99.34375 C 19.011719 97.453125 16.222656 99.097656 17.085938 100.976562 C 28.265625 125.359375 49.128906 141.210938 72.421875 153.335938 C 97.839844 166.5625 127 176.273438 155.769531 177.703125 C 175.160156 178.664062 194.957031 176.753906 214.230469 172.824219 C 222.359375 207.808594 235.496094 241.417969 240.867188 277.277344 C 248.40625 327.253906 251.1875 374.804688 231.746094 422.484375 C 224.242188 440.886719 215.28125 457.675781 203.925781 473.949219 C 201.808594 477 199.457031 480.121094 197.046875 483.296875 C 177.679688 483.566406 155.011719 483.007812 133.019531 480.585938 C 122.984375 479.484375 113.085938 477.992188 103.710938 476.015625 C 44.78125 463.597656 33.53125 453.746094 33.53125 453.746094 C 34.429688 462.179688 39.257812 469 45.691406 474.039062 C 50.71875 477.976562 56.726562 480.824219 62.609375 482.507812 C 80.308594 487.710938 115.53125 496.691406 148.277344 498.886719 C 163.378906 499.902344 178.230469 500.378906 193.324219 499.640625 C 204.6875 499.085938 216.636719 498.871094 227.757812 496.183594 C 237.984375 493.714844 246.464844 489.230469 247.058594 480.316406 C 247.027344 480.324219 246.992188 480.328125 246.960938 480.335938 C 247.015625 480.285156 247.046875 480.257812 247.046875 480.257812 C 249.050781 479.640625 250.992188 478.960938 252.835938 478.25 C 266.453125 455.800781 271.726562 426.914062 273.925781 402.296875 C 277.9375 356.558594 264.351562 315.445312 250.605469 272.359375 C 240.644531 241.195312 233.386719 210.703125 230.707031 179.28125 C 230.382812 175.496094 230.128906 172.730469 229.941406 169.15625 C 234.355469 167.996094 238.730469 166.746094 243.050781 165.402344 C 265.914062 158.269531 289.039062 148.183594 305.25 129.949219 C 306.632812 128.394531 304.351562 126.101562 302.960938 127.660156" fill="#faf6f3"/></g><g id="change2_6"><path d="M 107.105469 371.96875 C 111.855469 395.402344 148.203125 403.011719 155.945312 377.628906 C 157.316406 373.128906 150.292969 371.21875 148.925781 375.695312 C 143.195312 394.488281 117.351562 385.960938 114.125 370.03125 C 113.191406 365.433594 106.179688 367.386719 107.105469 371.96875" fill="#faf6f3"/></g><g id="change2_7"><path d="M 154.699219 332.179688 C 162.941406 340.09375 151.65625 346.363281 144.21875 346.648438 C 135.816406 346.972656 120.476562 344.78125 120.03125 334.046875 C 121.816406 315.785156 146.046875 323.867188 154.699219 332.179688 Z M 112.753906 334.046875 C 112.707031 334.519531 112.757812 334.929688 112.855469 335.308594 C 115.648438 359.429688 168.898438 362.003906 164.316406 334.667969 C 162.410156 323.300781 146.171875 317.910156 136.671875 316.328125 C 123.941406 314.207031 114.738281 319.886719 112.933594 332.753906 C 112.808594 333.136719 112.730469 333.558594 112.753906 334.046875" fill="#faf6f3"/></g><g id="change2_8"><path d="M 160.644531 285.640625 C 160.660156 294.539062 155.445312 292.59375 148.476562 292.207031 C 139.261719 291.695312 130.277344 289.554688 121.015625 290.214844 C 116.359375 290.542969 116.328125 297.824219 121.015625 297.492188 C 133.640625 296.59375 146.113281 300.777344 158.746094 299.816406 C 166.484375 299.226562 167.933594 292.152344 167.921875 285.640625 C 167.914062 280.949219 160.636719 280.949219 160.644531 285.640625" fill="#faf6f3"/></g><g id="change2_9"><path d="M 127.914062 239.234375 C 130.523438 238.226562 133.480469 237.863281 136.382812 237.628906 C 136.265625 238.097656 136.226562 238.609375 136.304688 239.164062 C 136.941406 243.578125 137.941406 247.953125 137.300781 252.351562 C 134.773438 251.796875 132.265625 251.214844 129.792969 250.574219 C 123.996094 249.078125 121.585938 241.679688 127.914062 239.234375 Z M 114.691406 243.613281 C 115.042969 252.199219 122.746094 256.273438 130.21875 258.203125 C 141.703125 261.167969 154.070312 262.953125 165.765625 264.992188 C 170.355469 265.789062 172.320312 258.777344 167.703125 257.972656 C 160.050781 256.640625 152.191406 255.355469 144.425781 253.839844 C 145.289062 248.285156 144.128906 242.824219 143.324219 237.230469 C 143.316406 237.183594 143.300781 237.144531 143.292969 237.101562 C 150.195312 236.679688 157.152344 236.976562 164.015625 237.730469 C 168.675781 238.242188 168.628906 230.960938 164.015625 230.453125 C 154.597656 229.417969 113.953125 225.640625 114.691406 243.613281" fill="#faf6f3"/></g><g id="change2_10"><path d="M 58.921875 240.496094 C 59.113281 237.847656 60.335938 236.265625 63.074219 236.140625 C 63.078125 236.140625 63.078125 236.136719 63.082031 236.136719 C 64.886719 236.226562 68.355469 237.230469 67.96875 239.699219 C 67.683594 241.511719 65.453125 243.003906 63.902344 243.652344 C 61.363281 244.710938 58.714844 243.328125 58.921875 240.496094 Z M 63.636719 248.703125 C 67.667969 247.992188 72.855469 244.226562 72.835938 239.6875 C 72.820312 234.617188 68.292969 231.78125 63.710938 231.339844 C 63.515625 231.300781 63.304688 231.277344 63.074219 231.285156 C 62.839844 231.273438 62.628906 231.300781 62.429688 231.339844 C 57.113281 231.835938 54.710938 235.308594 54.070312 240.496094 C 53.410156 245.8125 58.691406 249.574219 63.636719 248.703125" fill="#faf6f3"/></g><g id="change2_11"><path d="M 136.09375 199.390625 C 136.023438 196.367188 138.253906 194.96875 141.03125 194.964844 C 147.199219 195.5625 147.863281 204.511719 141.234375 204.929688 C 138.027344 205.132812 136.160156 202.214844 136.09375 199.390625 Z M 150.984375 200.191406 C 151.078125 194.945312 146.539062 190.984375 141.714844 190.207031 C 141.503906 190.152344 141.28125 190.109375 141.03125 190.113281 C 140.789062 190.089844 140.574219 190.105469 140.371094 190.140625 C 135.007812 190.417969 131.5625 193.949219 131.242188 199.390625 C 130.90625 205.132812 135.722656 209.582031 141.234375 209.78125 C 146.648438 209.976562 150.890625 205.371094 150.984375 200.191406" fill="#faf6f3"/></g><g id="change2_12"><path d="M 178.144531 425.820312 C 178.074219 422.796875 180.304688 421.398438 183.082031 421.394531 C 189.25 421.992188 189.914062 430.941406 183.285156 431.359375 C 180.078125 431.5625 178.214844 428.644531 178.144531 425.820312 Z M 193.035156 426.621094 C 193.128906 421.375 188.59375 417.414062 183.765625 416.636719 C 183.554688 416.582031 183.332031 416.539062 183.082031 416.542969 C 182.839844 416.519531 182.625 416.535156 182.421875 416.570312 C 177.058594 416.847656 173.613281 420.378906 173.292969 425.820312 C 172.957031 431.5625 177.773438 436.011719 183.285156 436.210938 C 188.699219 436.40625 192.941406 431.804688 193.035156 426.621094" fill="#faf6f3"/></g><g id="change3_1"><path d="M 192.863281 81.648438 C 191.378906 89.734375 187.429688 95.914062 180.054688 99.34375 C 174.363281 102.058594 168.152344 104.515625 161.714844 103.804688 C 154.078125 103.257812 147.15625 100.410156 140.171875 97.722656 C 135.933594 96.074219 131.726562 94.230469 127.554688 92.449219 C 120.214844 89.347656 112.96875 86.015625 105.59375 82.941406 C 98.410156 79.996094 90.84375 77.28125 85.117188 71.878906 C 84.46875 71.296875 83.886719 70.648438 83.304688 69.9375 C 80.554688 66.476562 78.839844 62.046875 78.839844 57.644531 C 78.808594 54.703125 80.8125 50.5625 82.851562 48.523438 C 86.378906 45.03125 92.199219 44.222656 96.921875 43.929688 C 101.9375 43.671875 106.949219 44.285156 111.964844 44.285156 C 118.886719 44.285156 125.875 44.578125 132.796875 45.257812 C 148.9375 46.875 164.464844 50.984375 178.730469 58.90625 C 187.914062 64.019531 194.9375 70.390625 192.863281 81.648438 Z M 262.574219 78.574219 C 259.726562 69.453125 254.003906 61.691406 247.371094 54.929688 C 237.894531 45.289062 224.921875 39.726562 212.53125 34.839844 C 193.449219 27.335938 173.359375 22.871094 153.015625 20.738281 C 150.8125 20.511719 148.550781 20.316406 146.316406 20.15625 C 128.203125 18.765625 109.636719 19.507812 92.199219 24.8125 C 86.054688 26.65625 80.101562 29.308594 74.765625 32.933594 C 69.234375 36.714844 65.871094 41.179688 62.410156 46.808594 C 60.628906 49.6875 59.078125 52.695312 58.011719 55.867188 C 54.160156 67.1875 57.265625 79.546875 62.570312 89.863281 C 64.316406 93.292969 66.484375 96.65625 68.84375 99.699219 C 77.449219 110.953125 89.417969 118.976562 101.9375 125.21875 C 111.382812 129.941406 122.734375 131.367188 133.023438 133.308594 C 146.964844 135.925781 161.003906 136.929688 175.136719 135.765625 C 180.800781 135.28125 186.460938 134.664062 192.089844 133.921875 C 210.816406 131.398438 230.097656 128.195312 246.851562 118.910156 C 255.617188 114.058594 262.574219 106.621094 264.125 96.429688 C 265 90.769531 264.289062 84.007812 262.574219 78.574219" fill="#f2b0ac"/></g><g id="change3_2"><path d="M 166.390625 60.792969 C 163.359375 59.441406 160.203125 58.464844 157.273438 57.941406 C 153.027344 57.136719 148.421875 57.285156 144.128906 57.636719 C 137.097656 58.164062 132.441406 60.875 129.359375 67.15625 C 125.199219 75.714844 129.675781 83.648438 136.878906 88.644531 C 145.410156 94.6875 156.054688 96.902344 166.285156 94.992188 C 173.0625 93.585938 180.101562 88.644531 181.160156 81.355469 C 182.574219 71.554688 174.941406 64.574219 166.390625 60.792969" fill="#f2b0ac"/></g><g id="change3_3"><path d="M 112.578125 69.296875 C 109.105469 71.863281 105.851562 72.269531 101.953125 70.398438 C 97.238281 68.132812 94.125 61.960938 99.101562 58.191406 C 102.507812 55.617188 106.78125 55.210938 110.757812 56.414062 C 116.609375 59.074219 118.355469 65.023438 112.578125 69.296875 Z M 112.097656 53.472656 C 112.054688 53.453125 112.011719 53.445312 111.964844 53.433594 C 111.878906 53.390625 111.792969 53.347656 111.691406 53.316406 C 106.121094 51.558594 97.289062 52.792969 94.210938 58.585938 C 91.003906 64.621094 95.796875 71.023438 101.261719 73.648438 C 107.328125 76.5625 113.664062 73.929688 117.6875 68.800781 C 122.308594 62.921875 117.929688 55.984375 112.097656 53.472656" fill="#f2b0ac"/></g><g id="change3_4"><path d="M 108.769531 59.074219 C 108.203125 58.878906 107.609375 58.761719 107.023438 58.730469 C 105.414062 58.648438 102.523438 59.296875 101.367188 60.53125 C 98.101562 64.023438 103.5 68.40625 106.957031 68.046875 C 109.253906 67.804688 111.488281 65.894531 111.90625 63.621094 C 112.316406 61.371094 110.71875 59.75 108.769531 59.074219" fill="#f2b0ac"/></g></g></svg>