<svg xmlns="http://www.w3.org/2000/svg" xmlns:xlink="http://www.w3.org/1999/xlink" height="17.3" preserveAspectRatio="xMidYMid meet" viewBox="0.1 0 45.2 17.3" width="45.2" zoomAndPan="magnify" xmlns:v="https://vecta.io/nano"><symbol id="A" preserveAspectRatio="xMidYMid meet" viewBox="-0.012 -17.3 45.217 17.3"><g fill-rule="evenodd"><linearGradient gradientUnits="userSpaceOnUse" id="B" x1="21.16" x2="29.589" xlink:actuate="onLoad" xlink:show="other" xlink:type="simple" y1="-10.285" y2="-4.541"><stop offset="0" stop-color="#d13506"/><stop offset="1" stop-color="#942b04"/></linearGradient><path d="M34.6-12.25c-3.467-1.2-7.75-1.8-12.85-1.8-5.933 0-10.733.667-14.4 2-1.833.667-3.067 1.333-3.7 2 1.033.167 2.367.783 4 1.85l5.2 3.4c2.833 1.6 5.283 3.2 7.35 4.8 1.267-1.067 4.466-2.933 9.6-5.6 3.333-1.767 6.15-3.383 8.45-4.85-.7-.6-1.917-1.2-3.65-1.8z" fill="url(#B)"/><linearGradient gradientUnits="userSpaceOnUse" id="C" x1="3.556" x2="4.056" xlink:actuate="onLoad" xlink:show="other" xlink:type="simple" y1="-10.52" y2="-10.187"><stop offset="0" stop-color="#d13506"/><stop offset="1" stop-color="#942b04"/></linearGradient><path d="M3.8-10.05c.633-.7.583-1.1-.15-1.2-.767-.133-1.217-.017-1.35.35-.066.267.117.533.55.8s.75.283.95.05z" fill="url(#C)"/><linearGradient gradientUnits="userSpaceOnUse" id="D" x1=".577" x2="1.068" xlink:actuate="onLoad" xlink:show="other" xlink:type="simple" y1="-11.46" y2="-11.116"><stop offset="0" stop-color="#d13506"/><stop offset="1" stop-color="#942b04"/></linearGradient><path d="M1.15-11c.934-.333 1.067-.617.4-.85-.7-.267-1.183-.267-1.45 0-.2.2-.133.417.2.65s.617.3.85.2z" fill="url(#D)"/><linearGradient gradientUnits="userSpaceOnUse" id="E" x1="4.472" x2="4.888" xlink:actuate="onLoad" xlink:show="other" xlink:type="simple" y1="-12.434" y2="-12.157"><stop offset="0" stop-color="#d13506"/><stop offset="1" stop-color="#942b04"/></linearGradient><path d="M4.3-12.2c.6-.233.767-.433.5-.6-.3-.167-.65-.184-1.05-.05-.367.067-.433.217-.2.45.233.267.483.333.75.2z" fill="url(#E)"/><linearGradient gradientUnits="userSpaceOnUse" id="F" x1="5.968" x2="6.131" xlink:actuate="onLoad" xlink:show="other" xlink:type="simple" y1="-11.727" y2="-11.611"><stop offset="0" stop-color="#d13506"/><stop offset="1" stop-color="#942b04"/></linearGradient><path d="M6.05-11.25c.333-.033.417-.117.25-.25-.167-.167-.333-.2-.5-.1s-.233.184-.2.25c.067.1.217.133.45.1z" fill="url(#F)"/><linearGradient gradientUnits="userSpaceOnUse" id="G" x1="7.356" x2="7.522" xlink:actuate="onLoad" xlink:show="other" xlink:type="simple" y1="-12.073" y2="-11.963"><stop offset="0" stop-color="#d13506"/><stop offset="1" stop-color="#942b04"/></linearGradient><path d="M7.05-12.15c.267-.067.333-.133.2-.2-.1-.033-.25-.05-.45-.05-.1.033-.1.083 0 .15.067.1.15.133.25.1z" fill="url(#G)"/><linearGradient gradientUnits="userSpaceOnUse" id="H" x1="11.927" x2="12.756" xlink:actuate="onLoad" xlink:show="other" xlink:type="simple" y1="-13.8" y2="-13.24"><stop offset="0" stop-color="#d13506"/><stop offset="1" stop-color="#942b04"/></linearGradient><path d="M9.8-13.65c-.333.167-.333.316 0 .45.333.167.633.2.9.1.066-.033.233-.05.5-.05.333.033.733.017 1.2-.05.533-.066.783-.283.75-.65l-.1-.7c.133-.1.034-.184-.3-.25a2.27 2.27 0 0 0-.95 0c-.2.033-.35.133-.45.3-.1.2-.167.317-.2.35l-1.35.5z" fill="url(#H)"/><linearGradient gradientUnits="userSpaceOnUse" id="I" x1="10.213" x2="10.629" xlink:actuate="onLoad" xlink:show="other" xlink:type="simple" y1="-14.015" y2="-13.738"><stop offset="0" stop-color="#d13506"/><stop offset="1" stop-color="#942b04"/></linearGradient><path d="M10.25-14c.367-.1.5-.2.4-.3-.066-.067-.233-.117-.5-.15-.433-.033-.75.034-.95.2-.133.1-.05.183.25.25s.567.067.8 0z" fill="url(#I)"/><linearGradient gradientUnits="userSpaceOnUse" id="J" x1="2.237" x2="2.4" xlink:actuate="onLoad" xlink:show="other" xlink:type="simple" y1="-11.32" y2="-11.204"><stop offset="0" stop-color="#d13506"/><stop offset="1" stop-color="#942b04"/></linearGradient><path d="M2.6-11.1c-.067-.1-.2-.133-.4-.1-.3 0-.4.133-.3.4.033.066.117.1.25.1.1.034.184.034.25 0 .133 0 .2-.133.2-.4z" fill="url(#J)"/><linearGradient gradientUnits="userSpaceOnUse" id="K" x1="2.586" x2="2.918" xlink:actuate="onLoad" xlink:show="other" xlink:type="simple" y1="-12.85" y2="-12.628"><stop offset="0" stop-color="#d13506"/><stop offset="1" stop-color="#942b04"/></linearGradient><path d="M2.45-12.8c.267-.034.4-.083.4-.15s-.083-.133-.25-.2c-.434-.2-.717-.2-.85 0-.067.1-.017.2.15.3.133.067.317.083.55.05z" fill="url(#K)"/><linearGradient gradientUnits="userSpaceOnUse" id="L" x1="7.483" x2="7.891" xlink:actuate="onLoad" xlink:show="other" xlink:type="simple" y1="-14.29" y2="-14.001"><stop offset="0" stop-color="#d13506"/><stop offset="1" stop-color="#942b04"/></linearGradient><path d="M7.65-14.2c.533-.066.684-.25.45-.55s-.633-.35-1.2-.15c-.533.2-.65.383-.35.55.267.133.633.183 1.1.15z" fill="url(#L)"/><linearGradient gradientUnits="userSpaceOnUse" id="M" x1="18.078" x2="19.401" xlink:actuate="onLoad" xlink:show="other" xlink:type="simple" y1="-14.62" y2="-13.721"><stop offset="0" stop-color="#d13506"/><stop offset="1" stop-color="#942b04"/></linearGradient><path d="M21.3-14.9c0-.067-.45-.15-1.35-.25l-2.3-.15c-.6 0-1.083.1-1.45.3-.367.167-.517.317-.45.45.167.433.55.85 1.15 1.25.4.233.9.3 1.5.2a4.22 4.22 0 0 0 1.45-.55c.333-.2.667-.45 1-.75.3-.267.45-.433.45-.5z" fill="url(#M)"/><linearGradient gradientUnits="userSpaceOnUse" id="N" x1="20.886" x2="21.869" xlink:actuate="onLoad" xlink:show="other" xlink:type="simple" y1="-15.186" y2="-14.498"><stop offset="0" stop-color="#d13506"/><stop offset="1" stop-color="#942b04"/></linearGradient><path d="M22.2-14.5l1.1-.8c-.133-.367-.533-.617-1.2-.75-1.033-.2-1.883-.133-2.55.2-.2.1-.183.3.05.6.133.167.333.383.6.65.133.167.4.283.8.35.467.033.867-.05 1.2-.25z" fill="url(#N)"/><linearGradient gradientUnits="userSpaceOnUse" id="O" x1="17.033" x2="17.695" xlink:actuate="onLoad" xlink:show="other" xlink:type="simple" y1="-16.033" y2="-15.584"><stop offset="0" stop-color="#d13506"/><stop offset="1" stop-color="#942b04"/></linearGradient><path d="M17-15.5c.267-.067.517-.217.75-.45.233-.267.283-.466.15-.6-.267-.233-1.1-.217-2.5.05-.233.067-.333.15-.3.25 0 .033.133.183.4.45.333.3.833.4 1.5.3z" fill="url(#O)"/><linearGradient gradientUnits="userSpaceOnUse" id="P" x1="15.283" x2="15.691" xlink:actuate="onLoad" xlink:show="other" xlink:type="simple" y1="-16.495" y2="-16.207"><stop offset="0" stop-color="#d13506"/><stop offset="1" stop-color="#942b04"/></linearGradient><path d="M15.9-16.7c.133-.1.133-.183 0-.25-.367-.167-.833-.183-1.4-.05-.267.1-.317.217-.15.35.066.066.267.2.6.4.167.1.35.1.55 0 .2-.067.333-.217.4-.45z" fill="url(#P)"/><linearGradient gradientUnits="userSpaceOnUse" id="Q" x1="30.371" x2="31.533" xlink:actuate="onLoad" xlink:show="other" xlink:type="simple" y1="-14.455" y2="-13.673"><stop offset="0" stop-color="#d13506"/><stop offset="1" stop-color="#942b04"/></linearGradient><path d="M28.45-14.3c.1.333.2.583.3.75a1.27 1.27 0 0 0 .6.65c.333.133.717.183 1.15.15.433-.067.75-.2.95-.4.233-.267.55-.483.95-.65.167-.067.35-.25.55-.55s.25-.483.15-.55c-.533-.267-1.25-.434-2.15-.5-.034 0-.417-.033-1.15-.1-.433 0-.75.033-.95.1a.91.91 0 0 0-.45.55.63.63 0 0 0 .05.55z" fill="url(#Q)"/><linearGradient gradientUnits="userSpaceOnUse" id="R" x1="28.644" x2="29.46" xlink:actuate="onLoad" xlink:show="other" xlink:type="simple" y1="-16.155" y2="-15.576"><stop offset="0" stop-color="#d13506"/><stop offset="1" stop-color="#942b04"/></linearGradient><path d="M29.05-14.8c.333-.067.65-.284.95-.65.333-.333.383-.55.15-.65-.667-.3-1.233-.45-1.7-.45-.733 0-1.233.267-1.5.8-.034.1.05.2.25.3.3.167.5.317.6.45.167.2.35.3.55.3.067 0 .3-.033.7-.1z" fill="url(#R)"/><linearGradient gradientUnits="userSpaceOnUse" id="S" x1="26.198" x2="26.617" xlink:actuate="onLoad" xlink:show="other" xlink:type="simple" y1="-16.54" y2="-16.268"><stop offset="0" stop-color="#d13506"/><stop offset="1" stop-color="#942b04"/></linearGradient><path d="M26.65-16.5c.467-.2.55-.383.25-.55-.233-.167-.55-.25-.95-.25-.367.033-.5.216-.4.55.034.1.184.183.45.25.267.1.483.1.65 0z" fill="url(#S)"/><linearGradient gradientUnits="userSpaceOnUse" id="T" x1="27.103" x2="27.602" xlink:actuate="onLoad" xlink:show="other" xlink:type="simple" y1="-13.932" y2="-13.6"><stop offset="0" stop-color="#d13506"/><stop offset="1" stop-color="#942b04"/></linearGradient><path d="M27.6-13.8c.267-.467-.184-.7-1.35-.7-.5 0-.533.217-.1.65.167.2.417.317.75.35.367.033.6-.067.7-.3z" fill="url(#T)"/><linearGradient gradientUnits="userSpaceOnUse" id="U" x1="35.487" x2="36.308" xlink:actuate="onLoad" xlink:show="other" xlink:type="simple" y1="-12.265" y2="-11.695"><stop offset="0" stop-color="#d13506"/><stop offset="1" stop-color="#942b04"/></linearGradient><path d="M36.95-12.1c-.534-.9-1.35-1.267-2.45-1.1-.7.1-.883.383-.55.85.1.167.5.55 1.2 1.15.333.267.617.3.85.1l.95-1z" fill="url(#U)"/><linearGradient gradientUnits="userSpaceOnUse" id="V" x1="37.267" x2="37.925" xlink:actuate="onLoad" xlink:show="other" xlink:type="simple" y1="-12.471" y2="-12.015"><stop offset="0" stop-color="#d13506"/><stop offset="1" stop-color="#942b04"/></linearGradient><path d="M38.3-12.25c-.167-.7-.617-1.067-1.35-1.1-.5 0-.75.133-.75.4 0 .034.066.284.2.75.1.233.317.317.65.25.167 0 .583-.1 1.25-.3z" fill="url(#V)"/><linearGradient gradientUnits="userSpaceOnUse" id="W" x1="40.938" x2="41.683" xlink:actuate="onLoad" xlink:show="other" xlink:type="simple" y1="-13.882" y2="-13.377"><stop offset="0" stop-color="#d13506"/><stop offset="1" stop-color="#942b04"/></linearGradient><path d="M41.85-12.65c.5-.333.7-.667.6-1-.1-.233-.934-.283-2.5-.15-.434.033-.583.117-.45.25l.4.4c.067.233.3.417.7.55.433.167.85.15 1.25-.05z" fill="url(#W)"/><linearGradient gradientUnits="userSpaceOnUse" id="X" x1="38.946" x2="39.362" xlink:actuate="onLoad" xlink:show="other" xlink:type="simple" y1="-10.244" y2="-9.967"><stop offset="0" stop-color="#d13506"/><stop offset="1" stop-color="#942b04"/></linearGradient><path d="M37.7-9.7c.133.1.35.1.65 0a1.79 1.79 0 0 0 .65-.4c.1-.1.233-.25.4-.45.167-.1.283-.217.35-.35.067-.1.067-.15 0-.15-.1 0-.35.083-.75.25-.467.167-.767.3-.9.4l-.55.55.15.15z" fill="url(#X)"/><linearGradient gradientUnits="userSpaceOnUse" id="Y" x1="39.341" x2="40.162" xlink:actuate="onLoad" xlink:show="other" xlink:type="simple" y1="-11.241" y2="-10.669"><stop offset="0" stop-color="#d13506"/><stop offset="1" stop-color="#942b04"/></linearGradient><path d="M38.05-11.05c.5.7 1.017.9 1.55.6.367-.167.816-.466 1.35-.9.066-.033-.1-.117-.5-.25-.467-.133-.8-.2-1-.2-.233 0-.583.05-1.05.15s-.733.183-.8.25c-.033.033.033.1.2.2.067.067.15.117.25.15z" fill="url(#Y)"/><linearGradient gradientUnits="userSpaceOnUse" id="Z" x1="40.951" x2="41.529" xlink:actuate="onLoad" xlink:show="other" xlink:type="simple" y1="-12.198" y2="-11.804"><stop offset="0" stop-color="#d13506"/><stop offset="1" stop-color="#942b04"/></linearGradient><path d="M41.55-11.15c.534-.4.717-.667.55-.8-.1-.1-.333-.15-.7-.15l-1.15.05c-.3.033-.4.133-.3.3l.3.3c.1.133.267.25.5.35.3.133.567.117.8-.05z" fill="url(#Z)"/><linearGradient gradientUnits="userSpaceOnUse" id="a" x1="42.276" x2="42.767" xlink:actuate="onLoad" xlink:show="other" xlink:type="simple" y1="-10.343" y2="-9.999"><stop offset="0" stop-color="#d13506"/><stop offset="1" stop-color="#942b04"/></linearGradient><path d="M41.65-10.45c.067.067.2.217.4.45.2.167.417.217.65.15.367-.1.716-.333 1.05-.7-.467-.2-.867-.284-1.2-.25a2.84 2.84 0 0 0-.65.2l-.25.15z" fill="url(#a)"/><linearGradient gradientUnits="userSpaceOnUse" id="b" x1="44.937" x2="45.27" xlink:actuate="onLoad" xlink:show="other" xlink:type="simple" y1="-10.938" y2="-10.716"><stop offset="0" stop-color="#d13506"/><stop offset="1" stop-color="#942b04"/></linearGradient><path d="M44.7-10.8c.367-.067.533-.2.5-.4-.067-.167-.25-.267-.55-.3-.2-.033-.35 0-.45.1l-.25.25c-.1.1-.05.183.15.25.2.1.4.133.6.1z" fill="url(#b)"/><linearGradient gradientUnits="userSpaceOnUse" id="c" x1="40" x2="40.253" xlink:actuate="onLoad" xlink:show="other" xlink:type="simple" y1="-9.311" y2="-9.15"><stop offset="0" stop-color="#d13506"/><stop offset="1" stop-color="#942b04"/></linearGradient><path d="M39.9-9.15c.167-.067.3-.167.4-.3s.1-.233 0-.3c-.2-.1-.55-.033-1.05.2-.133.033-.083.117.15.25.233.167.4.217.5.15z" fill="url(#c)"/><linearGradient gradientUnits="userSpaceOnUse" id="d" x1="35.079" x2="36.319" xlink:actuate="onLoad" xlink:show="other" xlink:type="simple" y1="-14.997" y2="-14.154"><stop offset="0" stop-color="#d13506"/><stop offset="1" stop-color="#942b04"/></linearGradient><path d="M36.9-13.75c.767-.833 1.017-1.333.75-1.5-.233-.133-.7-.267-1.4-.4-.733-.167-1.333-.25-1.8-.25-.367.033-.75.15-1.15.35l-.45.35.6 1c.1.2.35.434.75.7.433.333.783.517 1.05.55s.567-.05.9-.25c.167-.1.417-.283.75-.55z" fill="url(#d)"/><linearGradient gradientUnits="userSpaceOnUse" id="e" x1="39.321" x2="39.729" xlink:actuate="onLoad" xlink:show="other" xlink:type="simple" y1="-14.828" y2="-14.54"><stop offset="0" stop-color="#d13506"/><stop offset="1" stop-color="#942b04"/></linearGradient><path d="M39.35-14.65c.533-.133.75-.283.65-.45s-.317-.267-.65-.3c-.434-.1-.767-.033-1 .2-.133.1-.067.233.2.4.233.167.5.217.8.15z" fill="url(#e)"/><g fill="#782203"><path d="M31.4-8.6c.267-.333.4-.55.4-.65a.8.8 0 0 0-.1-.35c-.034-.233-.267-.35-.7-.35s-.683.2-.75.6c-.1.533-.05.934.15 1.2s.533.117 1-.45zm2.8-.3c.667-.367.85-.75.55-1.15-.133-.2-.383-.184-.75.05-.367.2-.567.433-.6.7-.067.633.2.767.8.4zm1.55-.75c.233-.2.367-.333.4-.4.033-.034 0-.1-.1-.2-.167-.167-.4-.117-.7.15-.167.133-.167.267 0 .4.167.167.3.183.4.05zm-7.2 3.85c.233-.167.367-.367.4-.6s-.1-.417-.4-.55c-.233-.1-.417-.033-.55.2-.1.367-.2.633-.3.8-.133.233-.083.367.15.4.2.067.433-.017.7-.25z"/><path d="M30.55-6.4c.534-.4.684-.733.45-1-.2-.233-.533-.067-1 .5-.2.233-.2.417 0 .55.167.133.35.117.55-.05zm1.8-3.3c.267-.233.417-.466.45-.7.067-.3-.05-.467-.35-.5s-.5.066-.6.3a.74.74 0 0 0 0 .65c.167.333.333.417.5.25zm-7.8 6.45c.2-.167.317-.35.35-.55.033-.267-.1-.45-.4-.55s-.533.017-.7.35c-.167.3-.25.617-.25.95 0 .4.333.333 1-.2zM23-2.7c.3-.333.283-.566-.05-.7-.1-.067-.217-.017-.35.15-.133.133-.2.283-.2.45s.067.25.2.25c.133.033.267-.017.4-.15zm4.85-5.25c.433-.867.267-1.4-.5-1.6-.367-.1-.5.367-.4 1.4.033.3.167.467.4.5.2.033.367-.067.5-.3zM29-9.2c.233-.267.3-.566.2-.9-.034-.133-.15-.167-.35-.1-.233.067-.4.233-.5.5-.1.3-.033.483.2.55.233.1.383.083.45-.05zm-1.35-2.05c.2-.233.333-.533.4-.9.1-.4.034-.633-.2-.7-.267-.1-.467-.083-.6.05-.133.1-.283.333-.45.7-.167.333-.117.617.15.85.267.267.5.267.7 0zm-3 .05c.1.034.25-.066.45-.3.233-.267.333-.467.3-.6-.066-.3-.367-.4-.9-.3-.233.033-.317.233-.25.6s.2.567.4.6zm7.3-.25c.2-.167.316-.35.35-.55.034-.233-.05-.4-.25-.5-.367-.167-.65.033-.85.6-.1.2-.05.367.15.5.2.167.4.15.6-.05zm.8 3.8c.1-.567-.033-.9-.4-1-.2-.067-.333 0-.4.2-.034.3-.083.517-.15.65-.1.2-.017.3.25.3.2 0 .433-.05.7-.15z"/></g><g fill="#fc4c00"><path d="M17.3-2.85c.567.267.717 0 .45-.8a.92.92 0 0 0-.5-.5c-.3-.1-.633-.05-1 .15-.567.333-.217.717 1.05 1.15zm-1.4-1.7c.2 0 .317-.117.35-.35.033-.2-.033-.35-.2-.45-.267-.2-.5-.133-.7.2-.133.4.05.6.55.6zm5.3 1.7c.167-.433 0-.733-.5-.9-.167-.1-.25-.05-.25.15a1.24 1.24 0 0 0 0 .5c.033.133.15.25.35.35s.333.067.4-.1zM19.25-4.3l.55.15c.034 0 .05-.083.05-.25 0-.333-.167-.467-.5-.4a.32.32 0 0 0-.25.25.18.18 0 0 0 .15.25zm-7-1.6c.333.1.55.05.65-.15.067-.133.033-.333-.1-.6-.2-.4-.667-.483-1.4-.25-.267.1-.233.283.1.55a2.49 2.49 0 0 0 .75.45zm1.8.25c.4.167.583.1.55-.2-.067-.333-.217-.583-.45-.75-.367-.2-.65-.167-.85.1-.167.233.083.517.75.85zm-5-2.75c.233.033.383-.083.45-.35s-.05-.517-.35-.75c-.267-.233-.517-.333-.75-.3-.1.033-.317.15-.65.35-.233.133-.183.333.15.6.333.233.717.383 1.15.45z"/><path d="M10.35-8.1c.267.067.433.017.5-.15s-.017-.35-.25-.55c-.233-.167-.4-.233-.5-.2l-.3.1c-.167 0-.167.117 0 .35.133.267.317.417.55.45zm5.3-.05c.833.033.917-.367.25-1.2-.233-.3-.417-.417-.55-.35-.133.167-.283.284-.45.35-.233.067-.25.283-.05.65.167.367.433.55.8.55zm2.9-.35c.167.033.317-.033.45-.2.167-.167.217-.3.15-.4-.066-.167-.383-.217-.95-.15-.233.067-.317.2-.25.4.1.2.3.317.6.35zm-.2-1.2c.2-.033.316-.1.35-.2.033-.133 0-.233-.1-.3-.167-.2-.4-.15-.7.15-.133.1-.133.2 0 .3a.68.68 0 0 0 .45.05zm-4.15-1.4c.6.233.917.083.95-.45 0-.5-.15-.833-.45-1-.333-.2-.65-.034-.95.5-.1.167-.1.35 0 .55a.76.76 0 0 0 .45.4zm-3.85.95c.367.2.633.267.8.2.133-.066.184-.183.15-.35-.066-.333-.316-.534-.75-.6-.267-.067-.417.017-.45.25 0 .2.083.367.25.5zm10.4-1.65c.767.033.8-.233.1-.8-.133-.1-.233-.117-.3-.05a.77.77 0 0 1-.2.15c-.1.067-.1.2 0 .4a.39.39 0 0 0 .4.3zm-3.3-1.5c.3-.067.466-.25.5-.55 0-.333-.167-.583-.5-.75-.3-.133-.467-.167-.5-.1-.067.2-.15.367-.25.5-.133.2-.083.4.15.6.2.233.4.333.6.3zm3.15-1.3c.367-.233.45-.5.25-.8-.1-.133-.184-.167-.25-.1l-.45.35c-.2.167-.217.316-.05.45s.333.167.5.1zm9 1.5c.433.033.633-.133.6-.5-.034-.333-.15-.633-.35-.9-.1-.167-.283-.167-.55 0-.2.133-.333.283-.4.45-.1.133-.083.3.05.5.133.267.35.417.65.45zM.7-11.2c.2-.167.25-.3.15-.4-.067-.066-.2-.05-.4.05-.233.1-.15.217.25.35zm2.35 1.05c.2.066.267-.05.2-.35-.067-.267-.233-.383-.5-.35s-.333.15-.2.35c.133.167.3.283.5.35zm1-2.2c.133 0 .167-.066.1-.2-.033-.1-.15-.15-.35-.15s-.233.05-.1.15c.1.133.217.2.35.2zm6-.9c.133-.033.2-.1.2-.2.033-.1-.05-.15-.25-.15s-.267.067-.2.2.15.183.25.15zm1.7-.2c.167 0 .283-.083.35-.25s.033-.316-.1-.45c-.1-.1-.217-.1-.35 0a5.51 5.51 0 0 0-.45.4c-.3.3-.117.4.55.3zm16.45-1.8c.1 0 .167-.1.2-.3s.033-.35 0-.45c-.167-.167-.5-.083-1 .25-.233.167-.233.3 0 .4.2.067.467.1.8.1z"/><path d="M34.05-14c.167.067.35-.017.55-.25.2-.267.3-.5.3-.7-.033-.167-.217-.283-.55-.35a2.37 2.37 0 0 0-.85.05c-.2.067-.233.267-.1.6s.35.55.65.65zm.75 2.05c.267 0 .35-.133.25-.4-.066-.167-.2-.267-.4-.3s-.35 0-.45.1c-.067.1-.034.216.1.35.167.167.333.25.5.25zm1.85-.3c.133.033.233.017.3-.05a.48.48 0 0 0 .15-.35c0-.267-.217-.367-.65-.3-.2.034-.25.15-.15.35.067.167.183.283.35.35zm4.05-.9c.066-.133.05-.233-.05-.3-.066-.066-.2-.1-.4-.1l-.3.05a.83.83 0 0 0 .05.25c.033.133.15.217.35.25.167.033.283-.017.35-.15zm-.05 1.75c.133.033.217 0 .25-.1s0-.2-.1-.3c-.133-.133-.333-.15-.6-.05-.1.033-.083.117.05.25a1.12 1.12 0 0 0 .4.2zm-2.1.65c.167.1.284.017.35-.25.1-.267.1-.45 0-.55-.066-.067-.25.05-.55.35-.067.034-.083.1-.05.2a.9.9 0 0 0 .25.25zm-.2.8c.133-.267.117-.383-.05-.35-.133 0-.25.083-.35.25-.034.133.017.2.15.2.133.033.217 0 .25-.1zM42.3-10c.233-.133.3-.3.2-.5-.033-.133-.183-.117-.45.05-.133.034-.15.133-.05.3s.2.217.3.15zM16-15.6c.233 0 .367-.017.4-.05s.067-.117.1-.25c.1-.133.133-.217.1-.25-.067-.033-.3-.017-.7.05-.367.1-.483.2-.35.3.1.133.25.2.45.2zm-.95-.8c.2-.033.217-.1.05-.2-.133-.1-.3-.117-.5-.05-.167.066-.184.133-.05.2s.3.083.5.05z"/></g></g></symbol><use height="17.3" transform="matrix(1 0 0 -1 .15 0)" width="45.217" x="-.012" xlink:actuate="onLoad" xlink:href="#A" xlink:show="embed" xlink:type="simple" y="-17.3"/></svg>