<?xml version="1.0" encoding="UTF-8"?><svg xmlns="http://www.w3.org/2000/svg" xmlns:xlink="http://www.w3.org/1999/xlink" height="423.8" preserveAspectRatio="xMidYMid meet" version="1.0" viewBox="-1.8 0.0 249.6 423.8" width="249.6" zoomAndPan="magnify"><g id="change1_1"><path d="M231.87,169.91l-9.81,78.51l-27.26,21.81L181.22,224c0,0,8.12,9.16,13.58,9.16c5.45,0,6.54-5.45,8.72-14.18 c2.18-8.72,7.63-20.72,3.27-32.71c-4.36-12-30.53-44.71-35.99-50.16s-10.9,1.09-10.9,1.09s-3.27-18.54-2.18-18.54 s15.27-4.36,21.81,0C186.07,123.02,231.87,169.91,231.87,169.91z" fill="#c1bf97"/></g><g id="change2_1"><path d="M244.87,208.66c2.96-21.58,0.1-42.25-15.94-56.99c-14.23-13.08-65.42-76.55-72.06-82.57 c-6.64-6.02-8.4-14.38-8.4-24.01l-69.45,0.8c0,12.58-9.37,24.03-18.29,31.93c-8.92,7.9-27.04,26.72-34.07,36.34 c-9.57,13.11-9.29,20.86-8.62,37.08c0.55,13.19,1.11,18.59,4.19,31.43c3.85,16.05,14.61,28.95,14.61,55.17 c0,27.36-14.57,83.86-30.45,121.02c-6.03,14.1-8.2,31.55-4.75,46.5c0.69,3.01,1.8,6.01,3.88,8.29c3.98,4.34,10.45,5.06,16.33,5.44 c72.45,4.74,104.73,3.09,177.25-0.54c6.27-0.31,13.09-0.84,17.76-5.03c3.51-3.15,5.17-7.84,6.37-12.4 c10.63-40.19-8.68-61.04-1.39-101.97C225,281.46,242.82,223.62,244.87,208.66z M210.1,233.97c-4.83,16.6-18.84,8-33.66-17.73 c-10.27-17.82-15.84-59.07-16.56-84.19c-0.18-6.36,7.8-9.33,11.83-4.41c13.03,15.92,33.09,40.39,41.39,50.28 C225.87,193.13,214.93,217.37,210.1,233.97z" fill="#ddd6ab"/></g><g id="change3_1"><path d="M112.84,53.86H71.1v-9.67h5.07V11.82C76.17,5.29,81.46,0,87.99,0h49.72c6.53,0,11.82,5.29,11.82,11.82v32.37 h5.07v9.67H112.84z M193.19,328.76c-5.84-11.8-19.75-10.12-33.32-40.15c-7.9-17.48-13.66-33.77-17.81-49.21 c-16.18,81.45-93.5,103.3-93.5,103.3c-2.6,7.66-5.53,15.75-8.81,24.62c-1.21,3.28-2.44,6.86-1.4,10.19 c1.89,6.03,9.57,7.56,15.88,7.98c44.45,2.96,80.27,2.35,124.63-1.81c3.93-0.37,8.13-0.87,11.15-3.43c3.59-3.05,4.52-8.13,5.22-12.78 C197.19,354.47,199.02,340.53,193.19,328.76z" fill="#a0bf5c"/></g><g><g id="change4_1"><path d="M142.06,239.4c-16.18,81.45-93.5,103.3-93.5,103.3c0,0,0,0,0,0c10.58-31.1,15.82-54.96,17.64-93.29 c0.38-8.08,0.35-26.07-0.89-34.06c-2.82-18.13-10.75-33.55-15.87-51.17c-1.85-6.37-4.07-25.49-0.57-31.13 c4.3-6.92,21.8-12.27,21.8-12.27c10.39-3.58,17.05-5.54,27.8-7.83c7.69-1.64,16.22-2.81,23.01,1.16 c5.63,3.3,8.91,9.62,10.19,16.01c1.28,6.39,0.84,12.99,0.68,19.51C131.66,177.65,133.22,206.57,142.06,239.4z" fill="#1a9ac6"/></g></g><g id="change5_1"><path d="M139.84,17.16v27.5h-5.69l0-27.5c0-1.56,1.28-2.85,2.85-2.85C138.56,14.32,139.84,15.6,139.84,17.16z M119.92,14.32c-1.56,0-2.85,1.28-2.85,2.85v27.5h5.69v-27.5C122.77,15.6,121.49,14.32,119.92,14.32z M102.85,14.32 c-1.56,0-2.85,1.28-2.85,2.85v27.5h5.69v-27.5C105.7,15.6,104.42,14.32,102.85,14.32z M85.78,14.32L85.78,14.32 c-1.56,0-2.85,1.28-2.85,2.85v27.5h5.69v-27.5C88.63,15.6,87.34,14.32,85.78,14.32z" fill="#739b49"/></g></svg>