<?xml version="1.0" encoding="UTF-8"?><svg xmlns="http://www.w3.org/2000/svg" xmlns:xlink="http://www.w3.org/1999/xlink" height="310.7" preserveAspectRatio="xMidYMid meet" version="1.0" viewBox="0.0 -2.4 500.0 310.7" width="500.0" zoomAndPan="magnify"><defs><clipPath id="a"><path d="M 0 0 L 500 0 L 500 308.269531 L 0 308.269531 Z M 0 0"/></clipPath></defs><g><g clip-path="url(#a)" id="change1_1"><path d="M 394.945312 285.835938 C 315.886719 310.773438 185.335938 320.597656 110.496094 285.183594 C 94.746094 271.363281 -0.0273438 153.042969 0.515625 69.742188 C -2.855469 54.441406 10.898438 40.78125 24.671875 33.304688 C 47.128906 21.109375 72.703125 16.050781 97.96875 12.199219 C 142.320312 2.496094 349.355469 -9.070312 465.65625 14.414062 C 481.992188 17.710938 498.480469 30.257812 499.789062 46.875 C 499.839844 47.460938 499.820312 48.035156 499.824219 48.613281 L 499.863281 48.613281 C 504.023438 151.398438 410.699219 272.015625 394.945312 285.835938" fill="#535456"/></g><g id="change2_1"><path d="M 38.78125 86.308594 C 40.03125 85.074219 41.496094 84.007812 42.929688 82.988281 C 46.777344 80.261719 50.621094 77.53125 54.46875 74.804688 C 60.035156 70.855469 66.257812 66.714844 73.054688 67.351562 C 71.273438 64.191406 75.402344 60.742188 79.019531 60.453125 C 82.636719 60.167969 86.628906 61.175781 89.675781 59.203125 C 92.960938 57.085938 94.347656 51.945312 98.242188 51.648438 C 100.222656 51.5 102.066406 52.78125 104.050781 52.785156 C 106.253906 52.789062 108.113281 51.246094 109.839844 49.875 C 118.070312 43.339844 127.988281 38.949219 138.355469 37.234375 C 141.023438 36.796875 143.800781 36.503906 146.140625 35.15625 C 149.300781 33.335938 151.140625 29.910156 153.761719 27.375 C 156.5 24.726562 160.042969 23.09375 163.546875 21.601562 C 169.921875 18.878906 176.421875 16.441406 183.015625 14.296875 C 200.078125 8.75 218.023438 5.160156 235.925781 6.394531 C 239.144531 6.617188 242.503906 6.976562 245.488281 5.757812 C 248.246094 4.632812 250.351562 2.292969 253.058594 1.054688 C 260.636719 -2.410156 268.957031 3.726562 277.21875 4.824219 C 282.085938 5.472656 287.035156 4.320312 291.925781 4.746094 C 296.128906 5.109375 300.132812 6.621094 304.074219 8.121094 C 317.816406 13.339844 331.5625 18.5625 345.304688 23.78125 C 361.199219 29.820312 377.34375 35.917969 394.28125 37.375 C 402.828125 38.109375 411.460938 37.648438 419.980469 38.671875 C 433.195312 40.261719 445.695312 45.355469 458.015625 50.402344 C 465.59375 53.507812 473.671875 57.070312 479.175781 62.835938 C 464.816406 74.921875 439.417969 84.105469 431.472656 86.066406 C 370.738281 101.070312 307.3125 99.585938 244.773438 98.011719 C 185.617188 96.523438 126.4375 95.03125 67.421875 90.738281 C 57.769531 90.035156 47.96875 89.183594 38.78125 86.308594" fill="#f2ca70"/></g><g id="change3_1"><path d="M 295.644531 13.878906 L 294.894531 13.839844 C 294.6875 17.65625 292.183594 21.222656 288.664062 22.714844 L 288.957031 23.402344 C 292.734375 21.804688 295.421875 17.976562 295.644531 13.878906 Z M 308.515625 41.132812 L 307.992188 40.597656 C 305.773438 42.765625 302.21875 43.445312 299.351562 42.257812 L 299.066406 42.949219 C 300.097656 43.375 301.210938 43.582031 302.324219 43.582031 C 304.601562 43.582031 306.886719 42.722656 308.515625 41.132812 Z M 162.394531 91.371094 L 162.117188 90.671875 C 160.90625 91.148438 159.46875 91.0625 158.167969 90.433594 C 156.867188 89.808594 155.902344 88.738281 155.519531 87.492188 L 154.804688 87.714844 C 155.246094 89.15625 156.355469 90.394531 157.84375 91.109375 C 158.691406 91.519531 159.59375 91.726562 160.472656 91.726562 C 161.136719 91.726562 161.789062 91.609375 162.394531 91.371094 Z M 184.683594 49.175781 L 184.558594 48.4375 C 181.441406 48.964844 178.0625 47.089844 176.859375 44.171875 L 176.167969 44.457031 C 177.347656 47.320312 180.421875 49.273438 183.5 49.273438 C 183.894531 49.273438 184.289062 49.242188 184.683594 49.175781 Z M 220.378906 80.226562 L 220.113281 79.523438 C 218.675781 80.066406 216.953125 79.804688 215.5 78.828125 C 214.046875 77.851562 213.152344 76.351562 213.113281 74.816406 L 212.363281 74.835938 C 212.410156 76.613281 213.425781 78.335938 215.082031 79.449219 C 216.160156 80.175781 217.378906 80.550781 218.554688 80.550781 C 219.183594 80.550781 219.800781 80.445312 220.378906 80.226562 Z M 243.835938 38.144531 L 243.304688 37.613281 C 240.167969 40.726562 234.859375 41.507812 230.957031 39.421875 L 230.601562 40.085938 C 232.214844 40.945312 234.015625 41.363281 235.820312 41.363281 C 238.765625 41.363281 241.714844 40.25 243.835938 38.144531 Z M 210.703125 39.421875 C 207.882812 39.015625 205.441406 36.691406 204.898438 33.894531 L 204.164062 34.039062 C 204.765625 37.140625 207.472656 39.714844 210.597656 40.164062 Z M 220.792969 14.214844 L 220.179688 13.777344 C 218.191406 16.585938 214.042969 17.675781 210.933594 16.214844 L 210.613281 16.890625 C 211.675781 17.390625 212.828125 17.628906 213.984375 17.628906 C 216.613281 17.628906 219.246094 16.394531 220.792969 14.214844 Z M 241.183594 25.226562 L 241.132812 24.480469 C 239.449219 24.589844 237.761719 23.722656 236.621094 22.136719 C 235.480469 20.550781 235.183594 18.671875 235.828125 17.113281 L 235.136719 16.824219 C 234.390625 18.625 234.71875 20.773438 236.011719 22.574219 C 237.226562 24.261719 239.007812 25.242188 240.828125 25.242188 C 240.945312 25.242188 241.066406 25.238281 241.183594 25.226562 Z M 352.351562 30.375 L 351.640625 30.140625 L 349.941406 35.273438 L 350.652344 35.507812 Z M 385.378906 46.527344 C 386.476562 45.542969 387.070312 44.167969 386.976562 42.847656 L 386.230469 42.898438 C 386.308594 43.992188 385.800781 45.140625 384.878906 45.96875 C 383.953125 46.796875 382.753906 47.179688 381.679688 46.980469 L 381.546875 47.71875 C 381.777344 47.761719 382.011719 47.78125 382.246094 47.78125 C 383.347656 47.78125 384.476562 47.335938 385.378906 46.527344 Z M 414.636719 54.597656 C 414.78125 54.445312 414.917969 54.289062 415.054688 54.132812 C 415.40625 53.730469 415.734375 53.351562 416.152344 53.101562 C 417.09375 52.535156 418.25 52.726562 419.476562 52.925781 C 420.019531 53.011719 420.578125 53.105469 421.128906 53.128906 C 422.414062 53.199219 423.867188 52.347656 424.390625 51.261719 C 424.71875 50.589844 424.636719 49.921875 424.167969 49.378906 L 423.601562 49.867188 C 423.871094 50.179688 423.90625 50.539062 423.714844 50.9375 C 423.324219 51.746094 422.109375 52.402344 421.164062 52.378906 C 420.65625 52.355469 420.117188 52.269531 419.597656 52.183594 C 418.292969 51.972656 416.941406 51.75 415.765625 52.457031 C 415.246094 52.769531 414.863281 53.210938 414.488281 53.640625 C 414.359375 53.789062 414.230469 53.9375 414.09375 54.082031 C 412.882812 55.359375 411.078125 56.058594 409.113281 56.007812 C 407.15625 55.957031 405.382812 55.15625 404.242188 53.816406 L 403.671875 54.304688 C 404.949219 55.804688 406.925781 56.699219 409.09375 56.757812 C 409.167969 56.761719 409.242188 56.761719 409.316406 56.761719 C 411.398438 56.761719 413.328125 55.980469 414.636719 54.597656 Z M 459.097656 72.105469 C 459.621094 71.6875 459.910156 71.140625 459.957031 70.476562 C 460.015625 69.632812 459.609375 68.910156 459.214844 68.214844 C 459.132812 68.070312 459.050781 67.925781 458.976562 67.78125 C 457.746094 65.460938 457.90625 62.433594 459.375 60.25 L 458.753906 59.832031 C 457.136719 62.234375 456.960938 65.574219 458.3125 68.132812 C 458.394531 68.285156 458.476562 68.433594 458.5625 68.585938 C 458.917969 69.210938 459.25 69.804688 459.210938 70.425781 C 459.179688 70.878906 458.988281 71.234375 458.628906 71.519531 C 457.683594 72.273438 455.871094 72.304688 454.601562 72.105469 L 454.484375 72.84375 C 454.9375 72.917969 455.4375 72.960938 455.949219 72.960938 C 457.105469 72.960938 458.308594 72.734375 459.097656 72.105469 Z M 442.996094 70.933594 C 445.230469 69.957031 446.867188 68.105469 447.378906 65.984375 L 446.648438 65.808594 C 446.195312 67.703125 444.714844 69.363281 442.695312 70.246094 C 440.675781 71.132812 438.453125 71.09375 436.753906 70.140625 L 436.390625 70.796875 C 437.386719 71.355469 438.535156 71.632812 439.726562 71.632812 C 440.8125 71.632812 441.933594 71.402344 442.996094 70.933594 Z M 420.585938 79.460938 C 423.214844 78.085938 424.671875 74.835938 423.980469 71.898438 C 423.863281 71.40625 423.695312 70.929688 423.53125 70.46875 C 423.25 69.679688 422.988281 68.9375 422.980469 68.160156 C 422.972656 67.296875 423.277344 66.46875 423.605469 65.59375 C 423.683594 65.382812 423.761719 65.171875 423.835938 64.960938 C 425.15625 61.179688 424.996094 56.90625 423.398438 53.238281 L 422.710938 53.535156 C 424.234375 57.035156 424.386719 61.109375 423.128906 64.714844 C 423.054688 64.921875 422.980469 65.125 422.902344 65.332031 C 422.566406 66.234375 422.21875 67.164062 422.230469 68.171875 C 422.238281 69.070312 422.535156 69.910156 422.824219 70.71875 C 422.980469 71.164062 423.144531 71.621094 423.25 72.070312 C 423.867188 74.683594 422.570312 77.574219 420.234375 78.796875 C 417.898438 80.023438 414.703125 79.347656 413.113281 77.289062 L 412.523438 77.75 C 413.714844 79.292969 415.703125 80.152344 417.679688 80.152344 C 418.6875 80.152344 419.691406 79.929688 420.585938 79.460938 Z M 390.542969 79.609375 C 389.847656 77.753906 387.507812 77.253906 385.480469 77.589844 C 385.035156 77.664062 384.585938 77.761719 384.136719 77.859375 C 382.796875 78.152344 381.527344 78.433594 380.324219 78.066406 C 379.484375 77.808594 378.738281 76.878906 378.621094 75.949219 C 378.570312 75.535156 378.621094 74.976562 379.171875 74.640625 L 378.777344 74 C 378.09375 74.417969 377.765625 75.164062 377.875 76.042969 C 378.027344 77.261719 378.988281 78.441406 380.105469 78.78125 C 381.496094 79.207031 382.921875 78.894531 384.300781 78.589844 C 384.734375 78.496094 385.171875 78.398438 385.605469 78.328125 C 387.261719 78.054688 389.296875 78.421875 389.839844 79.875 Z M 248.609375 87.082031 L 238.945312 85.59375 L 238.832031 86.335938 L 248.496094 87.820312 Z M 271.136719 91.570312 L 270.695312 90.964844 C 267.808594 93.050781 264.019531 93.789062 260.5625 92.933594 L 260.382812 93.660156 C 261.390625 93.910156 262.421875 94.03125 263.449219 94.03125 C 266.183594 94.03125 268.910156 93.179688 271.136719 91.570312 Z M 324.964844 88.648438 C 326.726562 88.777344 328.6875 88.886719 330.480469 88.226562 C 332.292969 87.558594 334.066406 85.773438 333.9375 83.648438 L 333.191406 83.691406 C 333.296875 85.453125 331.777344 86.953125 330.222656 87.523438 C 328.492188 88.15625 326.511719 88.011719 324.761719 87.878906 L 324.496094 87.859375 L 324.390625 88.105469 C 323.558594 90.015625 321.445312 91.292969 319.367188 91.148438 C 317.289062 91.003906 315.375 89.441406 314.820312 87.433594 L 314.097656 87.632812 C 314.734375 89.9375 316.929688 91.730469 319.316406 91.898438 C 319.441406 91.90625 319.5625 91.910156 319.6875 91.910156 C 321.859375 91.910156 323.996094 90.59375 324.964844 88.648438 Z M 354.675781 89.722656 C 354.84375 89.554688 355.003906 89.367188 355.160156 89.183594 C 355.527344 88.761719 355.871094 88.363281 356.320312 88.171875 C 357.292969 87.75 358.460938 88.410156 359.265625 89.039062 L 359.621094 89.324219 C 360.503906 90.03125 361.417969 90.761719 362.585938 90.839844 C 363.390625 90.890625 364.3125 90.386719 364.734375 89.628906 C 365.054688 89.054688 365.039062 88.449219 364.695312 87.964844 L 364.085938 88.398438 C 364.308594 88.710938 364.203125 89.039062 364.082031 89.261719 C 363.796875 89.773438 363.160156 90.121094 362.636719 90.089844 C 361.703125 90.027344 360.882812 89.371094 360.09375 88.738281 L 359.726562 88.449219 C 358.34375 87.371094 357.0625 87.035156 356.027344 87.480469 C 355.417969 87.742188 355 88.226562 354.59375 88.695312 C 354.445312 88.863281 354.300781 89.035156 354.144531 89.195312 C 353.035156 90.308594 351.195312 90.542969 349.453125 89.800781 C 347.714844 89.054688 346.609375 87.5625 346.652344 85.992188 L 345.902344 85.976562 C 345.855469 87.851562 347.132812 89.625 349.160156 90.488281 C 349.929688 90.816406 350.71875 90.976562 351.472656 90.976562 C 352.707031 90.976562 353.851562 90.550781 354.675781 89.722656 Z M 377.339844 59.992188 L 376.601562 59.847656 C 376.089844 62.449219 373.816406 64.625 371.191406 65.019531 L 371.300781 65.761719 C 374.230469 65.320312 376.769531 62.894531 377.339844 59.992188 Z M 373.75 78.371094 L 373.394531 77.710938 C 370.019531 79.511719 365.609375 79.054688 362.671875 76.597656 L 362.191406 77.171875 C 364.0625 78.738281 366.492188 79.550781 368.914062 79.550781 C 370.589844 79.550781 372.261719 79.164062 373.75 78.371094 Z M 322.957031 79.417969 L 322.628906 78.746094 C 320.269531 79.898438 317.066406 79.128906 315.492188 77.027344 L 314.890625 77.476562 C 316.125 79.121094 318.164062 80.042969 320.195312 80.042969 C 321.144531 80.042969 322.09375 79.839844 322.957031 79.417969 Z M 270.578125 57.375 L 270.003906 56.894531 C 268.816406 58.3125 266.847656 59.070312 264.753906 58.914062 C 262.652344 58.757812 260.820312 57.722656 259.851562 56.144531 L 259.214844 56.539062 C 260.304688 58.320312 262.355469 59.488281 264.695312 59.660156 C 264.898438 59.675781 265.09375 59.683594 265.289062 59.683594 C 267.40625 59.683594 269.351562 58.84375 270.578125 57.375 Z M 334.308594 25.195312 L 333.6875 24.773438 C 331.984375 27.28125 329.449219 29.144531 326.550781 30.027344 L 326.769531 30.746094 C 329.832031 29.8125 332.511719 27.84375 334.308594 25.195312 Z M 293.21875 57.546875 C 294.839844 56.890625 296.035156 55.597656 296.421875 54.082031 L 295.695312 53.898438 C 295.367188 55.179688 294.335938 56.285156 292.9375 56.851562 C 291.539062 57.414062 290.03125 57.339844 288.902344 56.640625 L 288.511719 57.28125 C 289.257812 57.742188 290.140625 57.976562 291.054688 57.976562 C 291.773438 57.976562 292.511719 57.832031 293.21875 57.546875 Z M 386.121094 58.445312 C 388.855469 58.285156 391.320312 56.289062 392.066406 53.667969 C 393.625 53.207031 395.355469 52.667969 396.695312 51.519531 C 398 50.402344 399.042969 48.339844 398.238281 46.457031 L 397.550781 46.753906 C 398.175781 48.21875 397.347656 49.976562 396.207031 50.953125 C 394.929688 52.042969 393.1875 52.554688 391.652344 53.007812 L 391.445312 53.066406 L 391.394531 53.277344 C 390.808594 55.652344 388.523438 57.554688 386.078125 57.699219 C 383.609375 57.835938 381.144531 56.222656 380.285156 53.929688 L 379.582031 54.191406 C 380.527344 56.710938 383.089844 58.457031 385.765625 58.457031 C 385.886719 58.457031 386.003906 58.453125 386.121094 58.445312 Z M 344.070312 36.859375 L 343.324219 36.964844 C 343.6875 39.492188 341.722656 42.195312 339.207031 42.632812 L 339.335938 43.375 C 342.277344 42.859375 344.488281 39.816406 344.070312 36.859375 Z M 346.105469 58.089844 C 347.433594 56.269531 347.335938 53.875 347.070312 51.539062 C 350.820312 50.347656 353.675781 46.851562 354.058594 42.925781 L 353.3125 42.851562 C 352.953125 46.523438 350.113281 49.914062 346.558594 50.910156 L 346.25 50.996094 L 346.289062 51.316406 C 346.570312 53.691406 346.726562 55.964844 345.5 57.648438 C 344.835938 58.554688 343.476562 59.050781 342.277344 58.828125 C 341.796875 58.738281 340.953125 58.453125 340.703125 57.519531 L 339.980469 57.714844 C 340.238281 58.683594 341.027344 59.359375 342.140625 59.566406 C 342.375 59.609375 342.613281 59.632812 342.851562 59.632812 C 344.121094 59.632812 345.410156 59.039062 346.105469 58.089844 Z M 154.300781 69.839844 C 154.570312 69.746094 154.921875 69.511719 155.074219 68.953125 L 154.347656 68.757812 C 154.277344 69.023438 154.152344 69.097656 154.050781 69.136719 C 153.554688 69.3125 152.429688 68.863281 151.1875 67.980469 C 148.949219 66.398438 145.984375 66.671875 143.378906 67.046875 C 140.9375 67.402344 138.171875 67.800781 136.019531 66.53125 C 134.867188 65.855469 134.082031 64.390625 134.109375 62.976562 C 134.117188 62.402344 134.285156 61.363281 135.289062 60.816406 L 134.929688 60.15625 C 133.953125 60.691406 133.378906 61.714844 133.359375 62.964844 C 133.328125 64.636719 134.265625 66.371094 135.636719 67.179688 C 138.019531 68.578125 140.925781 68.160156 143.488281 67.789062 C 145.945312 67.433594 148.742188 67.171875 150.753906 68.59375 C 151.503906 69.125 152.796875 69.921875 153.800781 69.921875 C 153.980469 69.921875 154.148438 69.898438 154.300781 69.839844 Z M 120.867188 87.894531 L 120.609375 87.191406 C 118.28125 88.054688 115.390625 89.132812 112.671875 88.59375 C 111.171875 88.296875 109.746094 87.3125 108.960938 86.019531 C 108.550781 85.355469 108.136719 84.308594 108.480469 83.113281 L 107.757812 82.90625 C 107.429688 84.058594 107.621094 85.273438 108.320312 86.410156 C 109.214844 87.875 110.824219 88.992188 112.523438 89.328125 C 113.085938 89.441406 113.648438 89.488281 114.210938 89.488281 C 116.578125 89.488281 118.917969 88.621094 120.867188 87.894531 Z M 143.25 86.972656 L 142.714844 86.449219 C 141.59375 87.59375 139.769531 88.039062 137.957031 87.609375 C 136.144531 87.179688 134.714844 85.964844 134.226562 84.4375 L 133.511719 84.664062 C 134.089844 86.46875 135.683594 87.84375 137.78125 88.339844 C 138.3125 88.464844 138.835938 88.527344 139.347656 88.527344 C 140.863281 88.527344 142.257812 87.984375 143.25 86.972656 Z M 177.996094 89.9375 L 177.796875 89.214844 C 176.324219 89.625 174.664062 89.308594 173.246094 88.351562 C 171.828125 87.398438 170.914062 85.976562 170.742188 84.460938 L 169.996094 84.546875 C 170.195312 86.28125 171.226562 87.894531 172.828125 88.976562 C 173.964844 89.742188 175.242188 90.140625 176.496094 90.140625 C 177.003906 90.140625 177.507812 90.074219 177.996094 89.9375 Z M 194.03125 87.039062 C 194.410156 86.644531 194.667969 86.164062 194.914062 85.695312 C 195.238281 85.089844 195.542969 84.511719 196.070312 84.230469 C 196.703125 83.894531 197.472656 84.058594 198.285156 84.234375 C 198.71875 84.328125 199.167969 84.421875 199.617188 84.445312 C 200.945312 84.515625 202.226562 83.824219 203.070312 82.59375 C 203.914062 81.359375 204.097656 79.90625 203.554688 78.703125 L 202.871094 79.011719 C 203.296875 79.960938 203.136719 81.167969 202.449219 82.167969 C 201.753906 83.183594 200.703125 83.746094 199.660156 83.699219 C 199.269531 83.675781 198.867188 83.589844 198.445312 83.5 C 197.53125 83.304688 196.589844 83.101562 195.71875 83.570312 C 194.988281 83.960938 194.613281 84.664062 194.253906 85.34375 C 194.019531 85.785156 193.796875 86.203125 193.488281 86.523438 C 192.457031 87.609375 190.601562 87.398438 189.402344 86.566406 C 188.082031 85.652344 187.261719 84.117188 186.539062 82.765625 L 185.878906 83.121094 C 186.640625 84.546875 187.507812 86.164062 188.976562 87.183594 C 189.714844 87.699219 190.671875 88.007812 191.605469 88.007812 C 192.507812 88.007812 193.390625 87.71875 194.03125 87.039062 Z M 232.386719 90.628906 L 231.863281 90.089844 C 230.375 91.53125 228.101562 92.058594 225.777344 91.5 C 223.453125 90.941406 221.664062 89.441406 220.988281 87.480469 L 220.28125 87.722656 C 221.039062 89.929688 223.027344 91.613281 225.601562 92.230469 C 226.269531 92.390625 226.933594 92.46875 227.582031 92.46875 C 229.429688 92.46875 231.144531 91.828125 232.386719 90.628906 Z M 261.867188 86.753906 C 263.984375 86.640625 265.84375 85.625 266.84375 84.027344 L 266.210938 83.628906 C 265.339844 85.019531 263.699219 85.90625 261.828125 86.003906 C 259.949219 86.117188 258.238281 85.386719 257.226562 84.097656 L 256.636719 84.558594 C 257.730469 85.953125 259.523438 86.761719 261.492188 86.761719 C 261.617188 86.761719 261.742188 86.757812 261.867188 86.753906 Z M 324.480469 24.316406 L 323.785156 24.027344 C 322.1875 27.871094 317.191406 30.023438 313.300781 28.535156 L 313.035156 29.238281 C 313.988281 29.601562 314.992188 29.773438 316 29.773438 C 319.542969 29.773438 323.097656 27.640625 324.480469 24.316406 Z M 287.203125 10.890625 L 286.472656 10.738281 C 285.414062 15.824219 280.519531 19.960938 275.324219 20.148438 L 275.355469 20.898438 C 280.96875 20.691406 286.0625 16.390625 287.203125 10.890625 Z M 294.285156 34.246094 C 295.835938 33.355469 296.957031 31.933594 297.359375 30.34375 L 296.632812 30.160156 C 296.277344 31.554688 295.285156 32.804688 293.910156 33.597656 C 292.535156 34.386719 290.953125 34.613281 289.570312 34.214844 L 289.363281 34.9375 C 289.878906 35.085938 290.414062 35.15625 290.960938 35.15625 C 292.085938 35.15625 293.238281 34.847656 294.285156 34.246094 Z M 262.878906 63.960938 L 262.445312 63.347656 C 260.496094 64.730469 257.894531 65.230469 255.304688 64.722656 C 252.714844 64.21875 250.492188 62.769531 249.203125 60.757812 L 248.570312 61.160156 C 249.96875 63.347656 252.371094 64.914062 255.160156 65.460938 C 255.867188 65.597656 256.578125 65.667969 257.277344 65.667969 C 259.332031 65.667969 261.300781 65.078125 262.878906 63.960938 Z M 230.777344 48.820312 L 230.875 48.785156 C 235.667969 47.121094 240.625 45.78125 245.601562 44.800781 L 245.457031 44.066406 C 240.445312 45.050781 235.457031 46.402344 230.628906 48.074219 L 230.53125 48.109375 C 228.421875 48.84375 226.242188 49.597656 224.195312 49.019531 C 223.054688 48.695312 222.027344 47.695312 221.644531 46.53125 C 221.378906 45.714844 221.480469 44.945312 221.933594 44.359375 L 221.34375 43.898438 C 220.730469 44.6875 220.585938 45.703125 220.933594 46.761719 C 221.390625 48.15625 222.617188 49.351562 223.988281 49.742188 C 224.5625 49.902344 225.144531 49.972656 225.726562 49.972656 C 227.457031 49.972656 229.195312 49.367188 230.777344 48.820312 Z M 250.535156 50.238281 C 252.765625 49.179688 254.273438 46.8125 254.285156 44.347656 L 253.535156 44.34375 C 253.523438 46.527344 252.1875 48.625 250.214844 49.558594 C 248.238281 50.496094 245.769531 50.199219 244.074219 48.824219 L 243.601562 49.410156 C 244.773438 50.355469 246.269531 50.847656 247.761719 50.847656 C 248.714844 50.847656 249.667969 50.648438 250.535156 50.238281 Z M 274.667969 32.421875 L 274.882812 32.273438 L 274.820312 32.019531 C 274.753906 31.753906 274.789062 31.511719 274.929688 31.28125 C 275.273438 30.71875 276.226562 30.21875 277.546875 29.902344 C 278.609375 29.648438 279.902344 28.789062 280.230469 27.785156 C 280.398438 27.261719 280.300781 26.765625 279.9375 26.347656 L 279.371094 26.835938 C 279.558594 27.054688 279.605469 27.28125 279.515625 27.554688 C 279.304688 28.203125 278.324219 28.945312 277.371094 29.175781 C 276.484375 29.386719 274.898438 29.890625 274.289062 30.890625 C 274.09375 31.214844 274.011719 31.566406 274.046875 31.929688 C 272.171875 33.027344 269.628906 31.984375 268.253906 31.242188 C 267.9375 31.070312 267.621094 30.894531 267.308594 30.714844 C 265.59375 29.75 263.820312 28.746094 261.828125 28.847656 C 261.40625 28.867188 260.992188 28.9375 260.589844 29.003906 C 259.925781 29.113281 259.296875 29.21875 258.691406 29.101562 C 257.21875 28.816406 256.351562 27.289062 256.171875 25.992188 C 255.957031 24.476562 256.40625 22.890625 256.800781 21.488281 L 256.078125 21.285156 C 255.664062 22.757812 255.191406 24.425781 255.429688 26.097656 C 255.644531 27.648438 256.714844 29.484375 258.546875 29.839844 C 259.289062 29.984375 260.011719 29.863281 260.714844 29.742188 C 261.113281 29.675781 261.488281 29.613281 261.863281 29.597656 C 263.632812 29.507812 265.320312 30.453125 266.9375 31.367188 C 267.257812 31.550781 267.578125 31.730469 267.898438 31.902344 C 268.925781 32.453125 270.542969 33.15625 272.160156 33.15625 C 273.027344 33.15625 273.894531 32.953125 274.667969 32.421875 Z M 233.734375 25.339844 L 233.617188 24.597656 C 229.234375 25.277344 224.597656 23.972656 221.214844 21.101562 L 220.726562 21.671875 C 223.652344 24.15625 227.476562 25.523438 231.304688 25.523438 C 232.117188 25.523438 232.929688 25.464844 233.734375 25.339844 Z M 187.132812 26.085938 L 186.640625 25.519531 C 185.289062 26.695312 183.382812 27.203125 181.402344 26.90625 C 179.421875 26.609375 177.746094 25.570312 176.796875 24.050781 L 176.160156 24.449219 C 177.226562 26.152344 179.09375 27.320312 181.292969 27.644531 C 181.699219 27.707031 182.105469 27.738281 182.503906 27.738281 C 184.257812 27.738281 185.898438 27.160156 187.132812 26.085938 Z M 188.375 62.523438 L 188.289062 61.777344 C 186.996094 61.917969 185.617188 61.460938 184.519531 60.515625 C 183.421875 59.566406 182.761719 58.277344 182.714844 56.96875 L 181.964844 56.996094 C 182.019531 58.511719 182.773438 60 184.027344 61.082031 C 185.132812 62.035156 186.488281 62.554688 187.820312 62.554688 C 188.007812 62.554688 188.191406 62.546875 188.375 62.523438 Z M 212.546875 50.101562 L 212.105469 49.496094 C 211.199219 50.15625 210.21875 49.402344 208.828125 48.175781 C 208.367188 47.773438 207.894531 47.355469 207.421875 47.039062 C 206.015625 46.089844 204.300781 46.050781 202.644531 46.011719 C 201.117188 45.976562 199.671875 45.945312 198.460938 45.253906 C 196.109375 43.921875 195.421875 40.664062 196.402344 35.570312 L 195.667969 35.429688 C 194.613281 40.871094 195.429688 44.398438 198.089844 45.90625 C 199.464844 46.6875 201.074219 46.726562 202.628906 46.761719 C 204.246094 46.800781 205.777344 46.835938 207.003906 47.660156 C 207.4375 47.953125 207.890625 48.351562 208.332031 48.742188 C 209.285156 49.578125 210.328125 50.496094 211.398438 50.496094 C 211.78125 50.496094 212.164062 50.382812 212.546875 50.101562 Z M 70.164062 84.621094 L 70.039062 83.882812 C 67.972656 84.226562 65.40625 84.660156 63.289062 83.695312 C 62.148438 83.179688 61.207031 82.054688 60.890625 80.832031 C 60.726562 80.207031 60.660156 79.292969 61.265625 78.476562 L 60.664062 78.027344 C 60.054688 78.851562 59.878906 79.914062 60.164062 81.019531 C 60.535156 82.453125 61.640625 83.769531 62.976562 84.378906 C 64.058594 84.871094 65.21875 85.035156 66.367188 85.035156 C 67.691406 85.035156 69.003906 84.816406 70.164062 84.621094 Z M 93.242188 83.023438 L 93.035156 82.300781 C 91.566406 82.722656 89.738281 83.242188 88.121094 82.773438 C 87.261719 82.519531 86.453125 81.839844 86.070312 81.03125 C 85.871094 80.621094 85.695312 79.988281 85.972656 79.324219 L 85.28125 79.035156 C 84.980469 79.753906 85.019531 80.578125 85.390625 81.355469 C 85.871094 82.359375 86.839844 83.179688 87.914062 83.492188 C 88.445312 83.648438 88.988281 83.710938 89.527344 83.710938 C 90.839844 83.710938 92.136719 83.339844 93.242188 83.023438 Z M 117.617188 71.667969 C 118.753906 70.753906 118.800781 69.121094 118.84375 67.679688 C 118.898438 65.914062 119.003906 64.820312 120.035156 64.472656 L 119.800781 63.761719 C 118.195312 64.296875 118.144531 66.007812 118.09375 67.65625 C 118.054688 69 118.015625 70.386719 117.148438 71.085938 C 116.746094 71.410156 116.300781 71.523438 115.789062 71.4375 C 114.519531 71.21875 113.125 69.789062 112.304688 68.464844 L 112.109375 68.152344 L 109.425781 69.746094 C 107.675781 69.863281 105.925781 68.839844 104.855469 67.046875 C 103.765625 65.226562 103.699219 63.167969 104.6875 61.675781 L 104.058594 61.261719 C 102.914062 62.996094 102.972656 65.363281 104.210938 67.433594 C 105.449219 69.503906 107.507812 70.671875 109.574219 70.484375 L 111.867188 69.167969 C 112.738281 70.460938 114.179688 71.921875 115.660156 72.175781 C 115.816406 72.203125 115.964844 72.214844 116.113281 72.214844 C 116.660156 72.214844 117.167969 72.03125 117.617188 71.667969 Z M 131.15625 74.421875 L 131.023438 73.683594 C 129.808594 73.902344 128.484375 73.566406 127.386719 72.765625 C 126.285156 71.964844 125.558594 70.804688 125.394531 69.585938 L 124.652344 69.6875 C 124.84375 71.109375 125.679688 72.449219 126.945312 73.371094 C 127.953125 74.105469 129.132812 74.5 130.285156 74.5 C 130.578125 74.5 130.871094 74.472656 131.15625 74.421875 Z M 153.449219 49.714844 L 153.222656 49 C 150.953125 49.726562 148.21875 48.800781 146.855469 46.851562 C 145.492188 44.898438 145.566406 42.011719 147.023438 40.132812 L 146.433594 39.671875 C 144.753906 41.835938 144.671875 45.035156 146.238281 47.28125 C 147.441406 49 149.503906 50.003906 151.574219 50.003906 C 152.207031 50.003906 152.839844 49.910156 153.449219 49.714844 Z M 157.875 79.546875 L 157.8125 78.800781 C 155.214844 79.007812 152.265625 79.25 149.757812 78.074219 C 147.445312 76.992188 145.617188 74.125 146.691406 71.746094 L 146.007812 71.4375 C 144.757812 74.214844 146.8125 77.523438 149.441406 78.753906 C 151.058594 79.511719 152.859375 79.71875 154.59375 79.71875 C 155.738281 79.71875 156.855469 79.628906 157.875 79.546875 Z M 193.503906 74.835938 L 184.707031 72.699219 C 183.03125 72.292969 180.789062 71.316406 179.976562 69.902344 C 179.65625 69.339844 179.589844 68.765625 179.769531 68.15625 L 179.050781 67.941406 C 178.808594 68.75 178.902344 69.53125 179.328125 70.273438 C 180.257812 71.894531 182.625 72.964844 184.53125 73.429688 L 193.324219 75.566406 Z M 233.363281 52.863281 C 233.585938 52.679688 233.820312 52.4375 234.0625 52.191406 C 234.394531 51.851562 235.023438 51.246094 235.234375 51.25 C 235.25 51.253906 235.285156 51.285156 235.328125 51.371094 L 235.996094 51.027344 C 235.804688 50.648438 235.535156 50.535156 235.347656 50.507812 C 234.75 50.421875 234.152344 51.023438 233.523438 51.667969 C 233.304688 51.894531 233.085938 52.117188 232.882812 52.289062 C 232.347656 52.738281 231.523438 52.703125 230.710938 52.601562 C 225.90625 51.984375 221.179688 50.332031 217.039062 47.820312 L 216.652344 48.460938 C 220.878906 51.027344 225.707031 52.714844 230.613281 53.34375 C 230.925781 53.382812 231.246094 53.414062 231.570312 53.414062 C 232.21875 53.414062 232.859375 53.289062 233.363281 52.863281 Z M 207.144531 60.125 L 206.546875 59.671875 C 204.960938 61.777344 202.144531 62.941406 199.539062 62.566406 L 199.433594 63.308594 C 199.789062 63.359375 200.148438 63.386719 200.511719 63.386719 C 203.050781 63.386719 205.617188 62.152344 207.144531 60.125 Z M 243.46875 79.597656 C 243.945312 79.492188 244.429688 79.363281 244.914062 79.230469 C 246.597656 78.773438 248.339844 78.296875 249.808594 79.003906 L 250.132812 78.328125 C 248.410156 77.503906 246.53125 78.011719 244.71875 78.507812 C 244.242188 78.636719 243.773438 78.765625 243.308594 78.867188 C 241.851562 79.1875 240.175781 78.917969 239.234375 78.207031 C 238.710938 77.8125 238.425781 77.308594 238.390625 76.707031 C 238.375 76.449219 238.390625 76.167969 238.40625 75.886719 C 238.453125 74.992188 238.515625 73.878906 237.515625 73.527344 L 237.351562 73.472656 L 237.203125 73.558594 C 235.027344 74.824219 232.722656 76.003906 230.523438 75.363281 C 229.203125 74.980469 228.398438 73.554688 228.308594 72.402344 C 228.269531 71.875 228.34375 70.921875 229.289062 70.480469 L 228.976562 69.800781 C 227.984375 70.261719 227.46875 71.230469 227.5625 72.460938 C 227.667969 73.863281 228.667969 75.609375 230.3125 76.085938 C 232.734375 76.785156 235.140625 75.613281 237.40625 74.308594 C 237.703125 74.527344 237.699219 75.050781 237.65625 75.84375 C 237.640625 76.15625 237.625 76.46875 237.640625 76.753906 C 237.691406 77.570312 238.085938 78.28125 238.78125 78.804688 C 239.675781 79.480469 240.902344 79.75 242.039062 79.75 C 242.546875 79.75 243.035156 79.695312 243.46875 79.597656 Z M 346.921875 66.410156 C 348.402344 64.722656 348.9375 62.515625 348.320312 60.648438 L 347.605469 60.886719 C 348.140625 62.5 347.664062 64.425781 346.359375 65.914062 C 345.054688 67.402344 343.207031 68.132812 341.535156 67.8125 L 341.398438 68.550781 C 341.703125 68.609375 342.011719 68.636719 342.320312 68.636719 C 343.980469 68.636719 345.679688 67.832031 346.921875 66.410156 Z M 342.082031 82.996094 C 344.152344 82.1875 345.734375 80.566406 346.316406 78.65625 L 345.601562 78.4375 C 345.085938 80.128906 343.667969 81.570312 341.808594 82.296875 C 339.953125 83.023438 337.933594 82.921875 336.40625 82.027344 L 336.027344 82.675781 C 336.992188 83.238281 338.128906 83.527344 339.304688 83.527344 C 340.226562 83.527344 341.171875 83.351562 342.082031 82.996094 Z M 314.132812 58.035156 C 315.722656 57.429688 316.503906 55.910156 317.257812 54.445312 C 317.835938 53.316406 318.433594 52.152344 319.390625 51.449219 C 319.890625 51.082031 320.476562 50.847656 321.09375 50.597656 C 321.679688 50.363281 322.28125 50.121094 322.824219 49.75 C 323.597656 49.226562 324.152344 48.289062 324.207031 47.421875 C 324.246094 46.808594 324.039062 46.285156 323.613281 45.910156 L 323.117188 46.472656 C 323.367188 46.691406 323.484375 46.996094 323.457031 47.375 C 323.417969 48.015625 322.984375 48.738281 322.402344 49.128906 C 321.925781 49.453125 321.386719 49.671875 320.8125 49.902344 C 320.179688 50.15625 319.523438 50.421875 318.945312 50.84375 C 317.847656 51.652344 317.207031 52.898438 316.589844 54.101562 C 315.867188 55.503906 315.1875 56.828125 313.863281 57.335938 C 312.257812 57.949219 310.386719 56.886719 309.503906 55.511719 C 308.519531 53.976562 308.351562 52.015625 308.3125 50.296875 L 307.5625 50.3125 C 307.601562 52.132812 307.785156 54.226562 308.871094 55.917969 C 309.691406 57.191406 311.238281 58.265625 312.863281 58.265625 C 313.285156 58.265625 313.710938 58.195312 314.132812 58.035156 Z M 306.675781 63.152344 L 306.277344 62.515625 C 304.90625 63.378906 303.132812 63.578125 301.402344 63.070312 C 299.671875 62.558594 298.285156 61.425781 297.601562 59.960938 L 296.921875 60.277344 C 297.699219 61.941406 299.253906 63.21875 301.1875 63.789062 C 301.886719 63.992188 302.589844 64.09375 303.28125 64.09375 C 304.507812 64.09375 305.683594 63.777344 306.675781 63.152344 Z M 307.691406 86.105469 L 307.371094 85.425781 C 305.035156 86.53125 302.15625 86.207031 299.664062 84.5625 C 297.171875 82.917969 295.738281 80.394531 295.835938 77.8125 L 295.085938 77.785156 C 294.980469 80.632812 296.535156 83.398438 299.25 85.1875 C 300.890625 86.269531 302.691406 86.824219 304.425781 86.824219 C 305.5625 86.824219 306.675781 86.585938 307.691406 86.105469 Z M 298.800781 90.171875 C 293.714844 86.871094 287.570312 85.226562 281.523438 85.546875 L 281.109375 85.570312 C 280.128906 85.632812 279.113281 85.691406 278.210938 85.402344 C 274.335938 84.164062 274.851562 78.183594 275.253906 75.664062 L 274.511719 75.546875 C 274.078125 78.253906 273.554688 84.703125 277.984375 86.117188 C 279.023438 86.449219 280.105469 86.382812 281.152344 86.320312 L 281.5625 86.296875 C 287.464844 85.980469 293.4375 87.585938 298.394531 90.800781 Z M 287.355469 66.265625 L 287.074219 65.570312 C 283.011719 67.199219 278.113281 66.292969 274.898438 63.316406 L 274.390625 63.867188 C 276.679688 65.984375 279.769531 67.117188 282.859375 67.117188 C 284.390625 67.117188 285.921875 66.839844 287.355469 66.265625 Z M 265.605469 11.558594 C 268.203125 11.121094 270.421875 9.621094 271.535156 7.539062 L 270.871094 7.183594 C 269.867188 9.0625 267.851562 10.421875 265.484375 10.820312 C 263.105469 11.21875 260.761719 10.59375 259.195312 9.148438 L 258.6875 9.699219 C 260.078125 10.984375 262.023438 11.6875 264.082031 11.6875 C 264.585938 11.6875 265.097656 11.644531 265.605469 11.558594 Z M 249.304688 34.027344 C 250.359375 33.597656 251.289062 32.929688 252.183594 32.285156 C 252.734375 31.886719 253.308594 31.472656 253.898438 31.132812 C 255.269531 30.332031 257.214844 29.816406 258.574219 30.78125 L 259.007812 30.167969 C 257.363281 29.003906 255.09375 29.566406 253.519531 30.484375 C 252.898438 30.84375 252.3125 31.265625 251.746094 31.675781 C 250.847656 32.324219 249.996094 32.9375 249.023438 33.332031 C 246.785156 34.238281 243.984375 33.726562 242.210938 32.09375 L 241.703125 32.648438 C 243.039062 33.878906 244.839844 34.535156 246.644531 34.535156 C 247.546875 34.535156 248.453125 34.371094 249.304688 34.027344 Z M 212.398438 86.394531 L 211.988281 85.765625 C 208.722656 87.882812 203.84375 87.160156 201.328125 84.1875 L 200.757812 84.671875 C 202.457031 86.683594 205.058594 87.757812 207.652344 87.757812 C 209.316406 87.757812 210.976562 87.3125 212.398438 86.394531 Z M 236.796875 59.738281 L 236.605469 59.015625 C 230.882812 60.542969 224.234375 58.4375 220.429688 53.898438 L 219.855469 54.382812 C 223.003906 58.136719 227.820312 60.277344 232.667969 60.277344 C 234.054688 60.277344 235.445312 60.101562 236.796875 59.738281 Z M 205.527344 20.765625 L 205.222656 20.078125 C 204.164062 20.542969 202.851562 20.417969 201.710938 19.738281 C 200.574219 19.0625 199.835938 17.972656 199.734375 16.816406 L 198.988281 16.882812 C 199.109375 18.273438 199.984375 19.585938 201.328125 20.386719 C 202.132812 20.859375 203.011719 21.105469 203.863281 21.105469 C 204.441406 21.105469 205.007812 20.992188 205.527344 20.765625 Z M 82.046875 88.632812 L 82.019531 87.886719 C 79.300781 87.996094 76.5 86.832031 74.359375 84.703125 C 72.21875 82.574219 71.046875 79.789062 71.136719 77.0625 L 70.386719 77.035156 C 70.289062 79.972656 71.542969 82.960938 73.832031 85.234375 C 76.019531 87.414062 78.859375 88.640625 81.675781 88.640625 C 81.796875 88.640625 81.921875 88.640625 82.046875 88.632812 Z M 102.175781 77.308594 C 100.746094 77.085938 99.445312 76.171875 98.597656 74.792969 C 97.75 73.414062 97.523438 71.839844 97.972656 70.464844 L 98.203125 69.757812 L 97.5 69.992188 C 96.722656 70.25 95.875 70.085938 95.109375 69.53125 C 94.082031 68.789062 93.394531 67.472656 93.394531 66.253906 C 93.402344 63.871094 95.054688 61.804688 96.496094 60.273438 L 95.949219 59.757812 C 94.414062 61.390625 92.652344 63.605469 92.644531 66.253906 C 92.644531 67.722656 93.4375 69.246094 94.667969 70.140625 C 95.4375 70.695312 96.277344 70.933594 97.101562 70.84375 C 96.816406 72.269531 97.117188 73.816406 97.957031 75.183594 C 98.917969 76.75 100.414062 77.796875 102.058594 78.050781 Z M 129.621094 59.367188 L 129.554688 58.617188 C 128.085938 58.757812 126.589844 57.660156 126.257812 56.238281 C 125.925781 54.8125 126.804688 53.171875 128.171875 52.652344 L 127.902344 51.949219 C 126.175781 52.605469 125.109375 54.605469 125.527344 56.40625 C 125.921875 58.105469 127.574219 59.378906 129.304688 59.378906 C 129.410156 59.378906 129.515625 59.375 129.621094 59.367188 Z M 171.355469 77.921875 L 170.835938 77.382812 C 168.074219 80.058594 163.410156 80.484375 160.214844 78.351562 L 159.796875 78.976562 C 161.285156 79.96875 163.066406 80.453125 164.851562 80.453125 C 167.238281 80.453125 169.640625 79.585938 171.355469 77.921875 Z M 174.792969 57.449219 L 174.414062 56.800781 C 173.984375 57.050781 173.519531 57.074219 173.027344 56.867188 C 172.074219 56.472656 171.132812 55.253906 170.792969 53.96875 C 170.714844 53.675781 170.644531 53.371094 170.570312 53.066406 C 170.15625 51.324219 169.683594 49.351562 167.984375 48.550781 C 166.882812 48.035156 165.628906 48.203125 164.410156 48.367188 C 163.003906 48.558594 161.785156 48.722656 160.992188 47.871094 C 160.402344 47.238281 160.332031 46.253906 160.308594 45.21875 C 160.246094 42.53125 160.683594 39.183594 163.097656 38.464844 L 162.882812 37.746094 C 160.613281 38.421875 159.464844 41.011719 159.558594 45.234375 C 159.585938 46.375 159.675781 47.554688 160.445312 48.382812 C 161.503906 49.515625 163.03125 49.308594 164.511719 49.109375 C 165.621094 48.960938 166.765625 48.808594 167.664062 49.230469 C 169.039062 49.878906 169.445312 51.585938 169.839844 53.238281 C 169.914062 53.554688 169.988281 53.863281 170.066406 54.160156 C 170.472656 55.675781 171.570312 57.078125 172.742188 57.5625 C 173.054688 57.691406 173.367188 57.757812 173.675781 57.757812 C 174.0625 57.757812 174.4375 57.652344 174.792969 57.449219 Z M 303.308594 21.476562 C 304.613281 20.488281 305.363281 19.03125 305.308594 17.574219 L 304.558594 17.601562 C 304.605469 18.8125 303.96875 20.039062 302.855469 20.878906 C 301.746094 21.71875 300.394531 21.996094 299.238281 21.621094 L 299.007812 22.335938 C 299.421875 22.46875 299.855469 22.535156 300.292969 22.535156 C 301.324219 22.535156 302.394531 22.167969 303.308594 21.476562 Z M 404.828125 78.164062 L 404.523438 77.480469 C 401.515625 78.824219 397.679688 78.25 395.195312 76.089844 L 394.699219 76.652344 C 396.441406 78.167969 398.71875 78.964844 401 78.964844 C 402.308594 78.964844 403.617188 78.703125 404.828125 78.164062 Z M 436.085938 54.855469 L 435.417969 54.507812 C 434.558594 56.175781 433.066406 57.523438 431.324219 58.214844 L 431.605469 58.914062 C 433.507812 58.15625 435.140625 56.675781 436.085938 54.855469 Z M 395.828125 66.195312 C 396.214844 65.867188 396.515625 65.46875 396.804688 65.085938 C 397.046875 64.765625 397.277344 64.464844 397.546875 64.207031 C 399.082031 62.746094 401.480469 63.054688 403.796875 63.355469 C 404.097656 63.390625 404.390625 63.429688 404.683594 63.464844 C 406.25 63.644531 408.597656 63.429688 410.066406 62.230469 C 410.796875 61.632812 411.203125 60.875 411.277344 59.984375 L 410.53125 59.921875 C 410.476562 60.601562 410.15625 61.183594 409.589844 61.648438 C 408.53125 62.515625 406.644531 62.9375 404.769531 62.71875 C 404.480469 62.683594 404.1875 62.648438 403.894531 62.609375 C 401.515625 62.304688 398.824219 61.957031 397.027344 63.664062 C 396.714844 63.964844 396.457031 64.304688 396.207031 64.632812 C 395.929688 65 395.667969 65.347656 395.34375 65.621094 C 393.933594 66.816406 391.726562 66.527344 388.59375 64.738281 L 388.21875 65.386719 C 390.210938 66.527344 391.882812 67.09375 393.265625 67.09375 C 394.269531 67.09375 395.121094 66.792969 395.828125 66.195312 Z M 372.472656 48.585938 C 372.03125 47.476562 370.820312 46.753906 369.640625 46.796875 C 370.011719 45.8125 370.152344 44.738281 370.035156 43.699219 L 370.003906 43.425781 L 369.734375 43.371094 C 367.6875 42.976562 365.5625 43.109375 363.585938 43.757812 L 363.816406 44.46875 C 365.585938 43.890625 367.480469 43.75 369.3125 44.058594 C 369.378906 45.105469 369.15625 46.179688 368.679688 47.113281 L 368.253906 47.941406 L 369.132812 47.640625 C 370.125 47.300781 371.386719 47.882812 371.773438 48.863281 Z M 358.609375 69.953125 C 361.972656 68.015625 364.226562 64.929688 364.792969 61.488281 L 364.054688 61.363281 C 363.523438 64.585938 361.402344 67.480469 358.238281 69.300781 C 355.070312 71.125 351.503906 71.507812 348.453125 70.351562 L 348.1875 71.050781 C 349.433594 71.523438 350.761719 71.757812 352.109375 71.757812 C 354.289062 71.757812 356.535156 71.148438 358.609375 69.953125 Z M 335.71875 51.277344 C 335.476562 50.28125 335.09375 49.324219 334.726562 48.398438 C 334.226562 47.148438 333.753906 45.964844 333.597656 44.691406 C 333.558594 44.378906 333.539062 44.0625 333.519531 43.746094 C 333.476562 43.089844 333.433594 42.40625 333.222656 41.75 C 332.472656 39.425781 330.019531 38.289062 327.476562 37.40625 L 327.230469 38.117188 C 329.425781 38.878906 331.824219 39.867188 332.507812 41.980469 C 332.691406 42.550781 332.730469 43.152344 332.769531 43.792969 C 332.789062 44.125 332.8125 44.457031 332.851562 44.785156 C 333.023438 46.152344 333.535156 47.4375 334.027344 48.675781 C 334.390625 49.578125 334.761719 50.511719 334.988281 51.453125 C 335.511719 53.621094 334.914062 56.28125 333.015625 56.984375 L 333.273438 57.6875 C 335.652344 56.808594 336.308594 53.726562 335.71875 51.277344 Z M 312.773438 67.359375 C 312.878906 67.210938 312.976562 67.058594 313.074219 66.902344 C 313.371094 66.4375 313.652344 66 314.070312 65.777344 C 314.539062 65.527344 315.125 65.570312 315.746094 65.621094 C 315.9375 65.636719 316.121094 65.648438 316.308594 65.65625 C 317.917969 65.714844 319.570312 65.03125 320.820312 63.773438 C 322.070312 62.515625 322.75 60.867188 322.683594 59.246094 L 321.933594 59.277344 C 321.992188 60.6875 321.394531 62.132812 320.289062 63.246094 C 319.1875 64.355469 317.746094 64.964844 316.335938 64.90625 C 316.160156 64.902344 315.984375 64.886719 315.808594 64.871094 C 315.109375 64.816406 314.382812 64.757812 313.71875 65.113281 C 313.125 65.429688 312.777344 65.972656 312.445312 66.496094 C 312.351562 66.644531 312.257812 66.789062 312.160156 66.925781 C 310.929688 68.671875 308.480469 69.453125 306.46875 68.742188 C 304.453125 68.035156 303.03125 65.894531 303.164062 63.765625 L 302.414062 63.71875 C 302.265625 66.171875 303.898438 68.636719 306.21875 69.449219 C 306.796875 69.652344 307.402344 69.75 308.011719 69.75 C 309.851562 69.75 311.707031 68.867188 312.773438 67.359375 Z M 271.546875 49.753906 C 273.738281 49.707031 275.8125 48.773438 277.640625 47.953125 L 296.300781 39.558594 L 295.992188 38.875 L 277.332031 47.269531 C 275.570312 48.0625 273.570312 48.960938 271.527344 49.003906 C 269.785156 49.058594 267.527344 48.222656 266.769531 46.34375 L 266.074219 46.628906 C 266.949219 48.796875 269.363281 49.753906 271.414062 49.753906 C 271.457031 49.753906 271.5 49.753906 271.546875 49.753906 Z M 256.996094 68.265625 L 256.324219 67.933594 C 255.617188 69.355469 253.894531 70.246094 252.324219 70.003906 L 252.210938 70.746094 C 252.425781 70.777344 252.648438 70.796875 252.863281 70.796875 C 254.566406 70.796875 256.234375 69.800781 256.996094 68.265625 Z M 213.046875 69.257812 C 209.273438 67.378906 204.820312 67.089844 200.832031 68.46875 L 201.078125 69.175781 C 204.875 67.863281 209.117188 68.136719 212.714844 69.929688 Z M 125.214844 82.59375 C 120.398438 81.804688 115.949219 78.890625 113.304688 74.789062 L 112.675781 75.195312 C 115.429688 79.46875 120.070312 82.511719 125.09375 83.335938 Z M 162.320312 62.65625 L 162.3125 61.90625 C 157.421875 61.957031 152.597656 59.464844 149.8125 55.40625 L 149.191406 55.828125 C 152.089844 60.050781 157.050781 62.65625 162.167969 62.65625 C 162.21875 62.65625 162.269531 62.65625 162.320312 62.65625 Z M 223.386719 32.808594 L 223.164062 32.089844 C 220.828125 32.804688 218.308594 33.054688 215.878906 32.820312 L 215.804688 33.566406 C 216.421875 33.628906 217.046875 33.65625 217.667969 33.65625 C 219.601562 33.65625 221.546875 33.371094 223.386719 32.808594 Z M 192.007812 44.871094 C 185.988281 44.332031 180.796875 39.199219 180.1875 33.191406 L 180.933594 33.113281 C 181.507812 38.777344 186.402344 43.617188 192.074219 44.125 L 192.007812 44.871094" fill="#d39f4b"/></g><g id="change4_1"><path d="M 213.910156 16.089844 C 214.054688 14.398438 214.71875 14.246094 213.878906 12.765625 C 213.449219 12.011719 212.800781 11.40625 212.132812 10.847656 C 211.441406 10.269531 210.710938 9.71875 209.816406 9.601562 C 209.660156 12.324219 211.386719 15.058594 213.910156 16.089844 Z M 212.617188 44.460938 C 212.613281 44.847656 212.710938 45.332031 213.085938 45.421875 C 214.855469 44.800781 215.8125 44.40625 216.640625 42.726562 C 217.46875 41.042969 217.40625 38.910156 216.816406 37.128906 C 214.296875 38.648438 212.652344 41.519531 212.617188 44.460938 Z M 285.148438 46.328125 C 284.859375 43.90625 284.121094 41.675781 282.210938 40.160156 C 280.296875 38.644531 277.742188 37.972656 275.320312 38.25 C 276.339844 42.695312 280.585938 46.1875 285.148438 46.328125 Z M 280 15.371094 C 280.894531 13.648438 281.34375 11.636719 281.253906 9.695312 C 279.867188 9.890625 278.617188 10.703125 277.679688 11.738281 C 276.734375 12.773438 276.066406 14.027344 275.480469 15.300781 C 275.273438 15.742188 275.074219 16.199219 275.039062 16.683594 C 275.007812 17.171875 275.167969 17.699219 275.5625 17.984375 C 277.5 17.925781 279.105469 17.089844 280 15.371094 Z M 280.28125 22.367188 C 276.789062 21.800781 273.171875 22.449219 270.09375 24.1875 L 270.460938 24.839844 C 273.394531 23.183594 276.839844 22.570312 280.160156 23.105469 C 283.230469 23.601562 286.078125 25.074219 288.28125 27.257812 C 287.582031 27.5625 287.316406 28.507812 287.25 29.3125 C 287.144531 30.617188 287.179688 31.933594 287.363281 33.226562 C 287.511719 34.289062 287.859375 35.472656 288.824219 35.941406 C 290.476562 33.785156 290.347656 30.121094 288.871094 27.761719 L 289.378906 27.300781 C 289.367188 27.292969 289.359375 27.28125 289.347656 27.273438 C 290.691406 27.351562 292.269531 27.277344 293.402344 27.03125 C 295.699219 26.527344 297.191406 25.882812 299.0625 24.460938 C 297.234375 23.664062 295.140625 23.492188 293.207031 23.980469 C 291.496094 24.40625 289.925781 25.351562 288.726562 26.644531 C 287.152344 25.105469 285.269531 23.914062 283.214844 23.152344 C 283.523438 23.164062 283.832031 23.171875 284.253906 23.21875 C 284.851562 23.289062 285.46875 23.34375 286.050781 23.195312 C 286.738281 23.023438 287.324219 22.582031 287.835938 22.09375 C 288.75 21.21875 290.191406 18.792969 290.671875 17.621094 C 287.28125 17.640625 283.976562 19.628906 282.371094 22.613281 C 282.332031 22.683594 282.296875 22.761719 282.269531 22.839844 C 281.617188 22.640625 280.957031 22.476562 280.28125 22.367188 Z M 212.5625 31.085938 C 213.523438 31.304688 214.597656 31.339844 215.417969 30.796875 C 214.527344 28.285156 214.707031 26.0625 212.394531 24.734375 C 210.085938 23.402344 207.398438 23.085938 204.78125 23.578125 C 204.441406 24.113281 204.792969 24.808594 205.152344 25.328125 C 206.984375 27.957031 209.441406 30.367188 212.5625 31.085938 Z M 239.90625 11.085938 C 240.734375 11.695312 241.777344 12.167969 242.773438 11.898438 C 242.992188 10.417969 242.976562 9.855469 242.183594 8.582031 C 241.394531 7.308594 240.320312 6.242188 239.253906 5.191406 C 238.460938 4.40625 237.722656 4.074219 236.675781 3.695312 C 236.449219 3.613281 236.320312 3.949219 236.324219 4.183594 C 236.375 6.871094 237.738281 9.5 239.90625 11.085938 Z M 257.234375 8.230469 C 257.625 8.136719 258.3125 7.789062 258.730469 7.417969 C 258.847656 7.976562 259.050781 8.503906 259.253906 9.019531 C 259.417969 9.4375 259.570312 9.832031 259.683594 10.242188 C 259.976562 11.324219 259.929688 12.445312 259.757812 13.480469 C 259.328125 13.097656 258.746094 12.871094 258.179688 12.726562 C 257.304688 12.507812 256.402344 12.414062 255.503906 12.320312 C 254.703125 12.238281 253.886719 12.160156 253.113281 12.378906 C 253.761719 13.125 254.796875 13.808594 255.730469 14.136719 C 256.664062 14.464844 257.648438 14.613281 258.632812 14.722656 C 258.964844 14.757812 259.261719 14.71875 259.519531 14.597656 C 259.460938 14.832031 259.402344 15.0625 259.339844 15.277344 C 259.199219 15.761719 259.046875 16.242188 258.894531 16.722656 C 258.511719 17.925781 258.117188 19.171875 257.949219 20.460938 C 257.855469 21.167969 258.128906 21.699219 258.628906 21.78125 L 258.75 21.039062 C 258.710938 21.007812 258.65625 20.820312 258.691406 20.558594 C 258.855469 19.335938 259.238281 18.125 259.609375 16.949219 C 259.765625 16.464844 259.917969 15.976562 260.058594 15.484375 C 260.15625 15.144531 260.253906 14.773438 260.34375 14.390625 C 262.105469 14.628906 263.988281 14.097656 265.570312 13.277344 C 266.335938 12.878906 266.851562 12.566406 267.054688 11.726562 C 265.769531 11.921875 264.457031 11.921875 263.1875 12.1875 C 262.214844 12.394531 261.242188 12.796875 260.519531 13.457031 C 260.6875 12.375 260.71875 11.199219 260.40625 10.046875 C 260.285156 9.597656 260.117188 9.164062 259.953125 8.746094 C 259.703125 8.113281 259.476562 7.515625 259.40625 6.890625 C 259.691406 6.917969 260.019531 6.957031 260.125 6.796875 C 261.398438 4.867188 262.335938 2.625 262.601562 0.332031 C 261.914062 0.304688 261.296875 0.742188 260.816406 1.234375 C 259.773438 2.300781 259.09375 3.714844 258.910156 5.191406 C 258.847656 5.730469 258.855469 6.289062 259.050781 6.792969 L 258.65625 6.820312 C 258.570312 6.738281 258.488281 6.644531 258.402344 6.558594 C 257.878906 6.042969 257.121094 5.84375 256.394531 5.746094 C 255.632812 5.644531 254.859375 5.632812 254.089844 5.625 C 253.3125 5.617188 252.398438 5.679688 251.984375 6.335938 C 252.933594 7.339844 254.28125 8.054688 255.648438 8.242188 C 256.175781 8.3125 256.71875 8.355469 257.234375 8.230469 Z M 224.964844 38.105469 C 228.476562 38.316406 231.457031 36.007812 233.296875 33.007812 C 231.542969 32.324219 229.472656 32.507812 227.867188 33.488281 C 226.261719 34.472656 225.152344 36.230469 224.964844 38.105469 Z M 262.484375 21.371094 C 262.101562 22.285156 261.804688 23.308594 262.09375 24.253906 C 263.964844 23.570312 265.308594 23.054688 266.785156 21.71875 C 267.367188 21.191406 267.917969 20.613281 268.304688 19.929688 C 269.183594 18.375 271.28125 15.339844 271.199219 13.554688 C 269.898438 13.367188 268.628906 14.046875 267.574219 14.835938 C 265.335938 16.507812 263.558594 18.789062 262.484375 21.371094 Z M 254.769531 15.441406 C 254.65625 15.109375 254.320312 14.71875 253.972656 14.671875 C 253.613281 14.28125 253.003906 14.789062 252.769531 15.265625 C 251.457031 17.953125 251.671875 21.328125 253.320312 23.828125 C 255.371094 21.128906 255.851562 18.652344 254.769531 15.441406 Z M 267.019531 35.304688 C 268.171875 35.621094 269.527344 35.355469 270.675781 35.035156 C 271.304688 34.859375 271.945312 34.675781 272.507812 34.339844 C 273.253906 33.890625 273.820312 33.199219 274.367188 32.523438 C 274.730469 32.078125 275.328125 31.234375 275.691406 30.789062 C 273.90625 30.179688 271.894531 30.28125 270.183594 31.066406 C 268.757812 31.71875 267.5625 32.847656 266.800781 34.210938 C 266.960938 33.511719 267.050781 32.894531 267.054688 32.050781 C 267.0625 30.976562 266.941406 29.882812 266.476562 28.914062 C 266.011719 27.949219 265.164062 27.277344 264.121094 27.039062 C 263.683594 29.652344 263.996094 32.550781 265.707031 34.578125 C 265.871094 34.773438 266.074219 34.96875 266.308594 35.054688 C 265.609375 36.578125 264.328125 37.964844 262.398438 39.277344 C 261.53125 39.867188 260.609375 40.402344 259.714844 40.917969 C 259.6875 40.933594 259.660156 40.949219 259.632812 40.964844 C 259.621094 39.503906 259.488281 38.371094 258.851562 36.925781 C 258.109375 35.242188 256.695312 33.691406 254.878906 33.410156 C 254.617188 34.304688 254.84375 35.261719 255.144531 36.144531 C 255.632812 37.582031 256.320312 38.949219 257.191406 40.195312 C 257.480469 40.613281 257.792969 41.019531 258.203125 41.316406 C 258.335938 41.414062 258.480469 41.488281 258.632812 41.554688 C 258.078125 41.882812 257.527344 42.21875 256.992188 42.582031 C 255.472656 43.617188 254.082031 44.839844 252.863281 46.214844 C 252.195312 46.964844 251.480469 47.886719 251.21875 48.996094 L 251.949219 49.171875 C 252.171875 48.21875 252.820312 47.394531 253.425781 46.710938 C 254.601562 45.382812 255.945312 44.199219 257.414062 43.199219 C 257.964844 42.828125 258.535156 42.480469 259.109375 42.140625 C 259.25 42.847656 259.703125 43.503906 260.195312 44.054688 C 260.734375 44.664062 261.359375 45.234375 262.117188 45.53125 C 262.621094 45.722656 263.167969 45.789062 263.710938 45.8125 C 265.027344 45.871094 266.351562 45.683594 267.601562 45.261719 C 266.402344 43.8125 264.898438 43.433594 263.3125 42.429688 C 262.675781 42.027344 262.03125 41.621094 261.320312 41.367188 C 261.105469 41.289062 260.882812 41.253906 260.652344 41.238281 C 261.382812 40.8125 262.113281 40.378906 262.820312 39.898438 C 264.894531 38.484375 266.269531 36.980469 267.019531 35.304688 Z M 258.449219 32.503906 C 260.257812 32.0625 262.929688 32.046875 262.96875 30.183594 C 262.984375 29.425781 262.355469 28.765625 261.636719 28.515625 C 260.917969 28.265625 260.128906 28.339844 259.375 28.449219 C 256.023438 28.941406 252.769531 30.121094 249.882812 31.898438 L 249.058594 32.347656 C 252.019531 33.5 255.359375 33.261719 258.449219 32.503906 Z M 237.324219 45.714844 C 239.082031 45.316406 240.566406 43.445312 241.660156 42.011719 C 242.390625 41.058594 243.113281 40.085938 243.601562 38.988281 C 244.089844 37.890625 243.847656 35.5625 243.558594 34.398438 C 242.460938 34.472656 241.457031 35.054688 240.617188 35.765625 C 237.804688 38.132812 236.480469 42.136719 237.324219 45.714844 Z M 244.804688 26.617188 C 245.023438 26.984375 245.277344 27.347656 245.644531 27.570312 C 246.007812 27.796875 246.503906 27.851562 246.851562 27.605469 C 248.910156 26.144531 248.394531 23.476562 247.429688 21.144531 C 246.464844 18.8125 244.703125 16.800781 242.925781 15.011719 C 242.804688 18.988281 242.746094 23.214844 244.804688 26.617188 Z M 227.378906 25.667969 C 230.550781 26.15625 233.90625 25.316406 236.480469 23.390625 C 237.277344 23.855469 237.859375 24.53125 238.1875 24.992188 C 238.789062 25.839844 239.730469 28.09375 240.355469 29.585938 C 240.523438 29.984375 240.667969 30.332031 240.78125 30.589844 L 241.46875 30.289062 C 241.355469 30.035156 241.214844 29.691406 241.046875 29.296875 C 240.410156 27.773438 239.449219 25.472656 238.800781 24.558594 C 238.003906 23.4375 237.003906 22.671875 235.933594 22.335938 C 236.066406 20.167969 236.226562 17.765625 235.683594 15.777344 C 235.039062 13.433594 233.800781 11.203125 231.902344 9.679688 C 231.246094 9.152344 230.496094 8.734375 229.660156 8.625 C 229.898438 13.222656 231.375 17.742188 233.863281 21.609375 C 232.371094 21.15625 230.617188 20.949219 229.425781 20.488281 C 227.992188 19.9375 226.394531 20.136719 224.871094 20.339844 C 223.066406 20.582031 221.164062 20.492188 219.363281 20.734375 C 221.234375 23.355469 224.191406 25.175781 227.378906 25.667969 Z M 495.070312 63.59375 C 489.441406 72.792969 479.464844 79.867188 472.085938 84.1875 C 436.402344 105.066406 394.28125 108.183594 353.550781 111.199219 L 347.007812 111.6875 C 314.117188 114.164062 280.554688 113.210938 248.097656 112.289062 C 237.65625 111.996094 226.863281 111.691406 216.253906 111.503906 C 207.082031 111.339844 197.726562 111.257812 188.675781 111.179688 C 136.054688 110.714844 81.640625 110.234375 31.113281 94.078125 C 18.410156 90.015625 9.863281 84.902344 4.988281 78.4375 L 4.386719 78.890625 C 9.363281 85.480469 18.03125 90.683594 30.886719 94.792969 C 81.519531 110.984375 135.988281 111.464844 188.667969 111.929688 C 197.714844 112.007812 207.074219 112.089844 216.238281 112.253906 C 226.847656 112.441406 237.636719 112.746094 248.074219 113.039062 C 265.121094 113.523438 282.464844 114.015625 299.863281 114.015625 C 315.617188 114.015625 331.417969 113.613281 347.066406 112.433594 L 353.609375 111.949219 C 394.425781 108.925781 436.632812 105.804688 472.464844 84.835938 C 479.917969 80.472656 490 73.316406 495.710938 63.984375 Z M 32.765625 84.515625 L 33.0625 83.828125 C 21.054688 78.617188 12.691406 69.261719 10.695312 58.800781 C 9.179688 50.878906 18.640625 45.65625 26.839844 42.667969 C 71.839844 26.28125 119.785156 22.210938 156.527344 20.492188 L 156.492188 19.742188 C 119.695312 21.460938 71.679688 25.542969 26.582031 41.964844 C 14.257812 46.453125 8.664062 52.164062 9.957031 58.941406 C 12 69.644531 20.527344 79.207031 32.765625 84.515625 Z M 334.097656 15.507812 L 334.09375 14.757812 C 425.488281 14.222656 477.09375 22.382812 487.472656 38.984375 C 491.40625 45.273438 490.171875 52 483.808594 58.976562 L 483.253906 58.46875 C 489.363281 51.773438 490.570312 45.351562 486.835938 39.382812 C 476.75 23.25 423.945312 14.992188 334.097656 15.507812" fill="#64aa42"/></g></g></svg>