<?xml version="1.0" encoding="UTF-8"?><svg xmlns="http://www.w3.org/2000/svg" xmlns:xlink="http://www.w3.org/1999/xlink" height="428.3" preserveAspectRatio="xMidYMid meet" version="1.0" viewBox="-12.9 -3.1 464.0 428.3" width="464.0" zoomAndPan="magnify"><g><g><g id="change1_1"><path d="M386.523,291.414c-0.387,2.592-0.776,5.163-1.163,7.69c-2.875,17.87-6.162,33.837-9.315,45.225 c-6.308,22.839-19.811,34.399-37.403,42.676c-2.139,1.015-4.343,1.965-6.613,2.894c-12.897,5.316-27.634,9.508-43.146,15.321 c-1.344,0.497-2.703,1.016-4.065,1.555c-0.216,0.065-0.409,0.152-0.624,0.239c-23.469,9.203-45.811,17.479-70.334,18.149 c-1.705,0.043-3.437,0.043-5.166,0.021c-3.283-0.043-6.631-0.237-10.002-0.605c-18.455-1.901-39.607-7.692-60.133-15.73 c-1.386-0.54-2.792-1.102-4.171-1.664c-22.236-9.075-43.455-20.679-59.314-32.713c-16.746-12.707-24.699-28.285-29.149-46.348 c-0.367-1.383-0.688-2.766-0.992-4.192c-1.384-6.417-2.399-13.137-3.262-20.136c-1.73-14.024-3.372-28.069-5.014-42.114 c-0.195-1.621-0.389-3.219-0.582-4.819c-1.128-9.572-2.29-19.122-3.523-28.651c-0.173-1.426-0.346-2.874-0.541-4.301 c-1.143-8.794-2.332-17.566-3.628-26.339c-0.649-4.408-1.144-8.556-1.385-12.489c-0.126-1.836-0.173-3.608-0.173-5.359 c0.09-15.946,5.706-27.938,25.041-37.531c10.955-5.445,24.527-3.847,36.26-6.138c12.184-2.398,24.504-4.516,36.885-6.353 c1.47-0.215,2.938-0.431,4.405-0.626c43.93-6.287,88.787-8.923,133.081-7.043c42.071,1.793,115.926,7.302,127.031,51.555 C396.098,199.775,392.701,249.582,386.523,291.414z" fill="#DADADA"/></g></g><g><g><g id="change2_3"><path d="M26.997,185.082c-0.126-1.836-0.173-3.608-0.173-5.359c7.754-5.574,15.233-9.874,19.382-11.689 c4.19-1.815,11.172-3.694,19.253-5.899c23.098-6.244,57.584-15.622,59.551-32.433c1.47-0.215,2.938-0.431,4.405-0.626 c-1.017,20.463-36.622,30.122-62.813,37.229c-7.929,2.162-14.78,4.02-18.667,5.705 C43.181,174.063,35.014,179.032,26.997,185.082z" fill="#FFF"/></g></g><g><g id="change2_2"><path d="M81.621,239.858c-15.884,6.482-31.267,12.747-44.965,21.823c-0.195-1.621-0.389-3.219-0.582-4.819 c13.504-8.621,28.478-14.714,43.906-21.002c8.704-3.543,17.716-7.217,26.422-11.387c12.168-5.813,32.779-17.956,34.122-33.903 c0.408-4.948-0.845-8.664-3.781-10.998c-4.044-3.242-11.261-3.782-18.845-1.405c-13.697,4.321-25.347,14.153-36.602,23.66 c-14.391,12.187-29.19,24.698-48.746,26.384c-0.173-1.426-0.346-2.874-0.541-4.301c18.214-1.469,32.023-13.137,46.498-25.366 c11.585-9.789,23.573-19.922,38.095-24.481c9.054-2.853,17.61-2.054,22.841,2.139c2.832,2.269,6.072,6.656,5.381,14.736 c-1.426,17.178-20.679,29.84-36.56,37.446C99.448,232.598,90.371,236.292,81.621,239.858z" fill="#FFF"/></g></g><g><g id="change2_4"><path d="M195.708,292.125c-7.669,24.157-21.865,44.771-35.586,64.693l-3.33,4.861 c-7.668,11.171-16.011,29.948-18.233,47.169c-1.386-0.54-2.792-1.102-4.171-1.664c2.505-17.632,10.847-36.3,18.839-47.948 l3.329-4.861c14.177-20.592,27.551-40.017,35.025-63.546c3.737-11.755,14.39-51.361-5.12-67.503 c-4.364-3.608-8.946-5.099-14.024-4.516c-11.753,1.297-23.422,13.483-31.136,23.488c-5.554,7.173-10.611,14.93-15.515,22.428 c-10.132,15.514-20.615,31.547-35.935,43.538c-10.846,8.47-26.79,16.832-43.928,19.857c-0.367-1.383-0.688-2.766-0.992-4.192 c16.441-2.852,31.782-10.889,42.266-19.078c14.758-11.539,25.021-27.269,34.961-42.481c4.945-7.584,10.068-15.406,15.728-22.709 c8.234-10.674,20.831-23.682,34.074-25.151c6.204-0.714,12.015,1.145,17.244,5.488 C210.229,237.372,200.742,276.222,195.708,292.125z" fill="#FFF"/></g></g><g><g id="change2_1"><path d="M285.94,283.526c6.376,28.067,4.818,56.741,3.308,84.463c-0.282,5.142-0.561,10.285-0.781,15.449 l-0.125,2.616c-0.305,5.984-0.693,13.374,0.541,19.165c-1.344,0.497-2.703,1.016-4.065,1.555 c-1.532-6.526-1.123-14.477-0.799-20.937l0.127-2.593c0.242-5.165,0.52-10.329,0.782-15.493 c1.488-27.42,3.025-55.791-3.199-83.275c-3.525-15.513-13.982-51.383-35.111-51.383h-0.457c-5.508,0.13-9.85,2.161-13.265,6.202 c-14.606,17.22-7.672,66.616-3.933,93.149c1.059,7.584,1.902,13.591,2.118,17.459c1.06,18.712-3.156,51.425-17.222,75.259 c-1.705,0.043-3.437,0.043-5.166,0.021c14.045-22.278,19.189-55.056,18.066-75.043c-0.194-3.673-1.039-9.615-2.077-17.113 c-4.106-29.105-10.955-77.83,4.903-96.542c4.218-4.948,9.75-7.54,16.469-7.713h0.563 C270.882,228.773,282.185,266.996,285.94,283.526z" fill="#FFF"/></g></g><g><g id="change2_5"><path d="M386.523,291.414c-0.387,2.592-0.776,5.163-1.163,7.69c-4.086-8.317-7.63-17.199-11.066-25.842 c-7.302-18.236-14.842-37.122-27.439-51.252c-6.052-6.742-12.534-9.723-18.26-8.34c-6.115,1.447-11.041,7.735-13.549,17.221 c-6.593,24.849,4.302,48.12,14.844,70.613c10.698,22.861,21.76,46.477,14.585,71.802c-1.166,4.149-3.174,8.881-5.833,13.7 c-2.139,1.015-4.343,1.965-6.613,2.894c3.761-5.855,6.677-12.034,8.297-17.782c6.723-23.769-3.52-45.635-14.344-68.776 c-10.872-23.207-22.106-47.191-15.125-73.574c2.937-11.063,9.031-18.473,16.724-20.311c7.37-1.75,15.342,1.685,22.493,9.68 c13.113,14.693,20.785,33.924,28.218,52.529C380.928,278.253,383.608,284.952,386.523,291.414z" fill="#FFF"/></g></g></g><g><g id="change3_1"><path d="M412.064,152.282c-16.938-14.996-60.703-18.955-87.113-27.086c-26.977-8.304-45.996-24.398-73.698-31.29 c-35.521-8.838-74.363,3.534-106.362,11.673c-28.405,7.228-56.954,13.925-85.704,19.661 c-10.578,2.112-72.118,7.215-45.792,29.024c20.81,17.241,52.634,23.291,77.156,33.59c15.852,6.656,33.143,13.304,47.801,22.336 c48.969,30.172,93.063,21.791,156.256,8.144C335.448,209.516,451.06,186.807,412.064,152.282z" fill="#D1D1D1"/></g></g><g><g id="change2_6"><path d="M341.389,184.944c-19.619,11.161-58.091,18.855-76.049,22.737c-44.4,9.567-75.389,15.46-109.771-5.719 c-10.294-6.344-22.461-11.022-33.585-15.701c-17.231-7.244-39.587-11.473-54.213-23.605 c-18.511-15.319,24.748-18.89,32.167-20.38c10.504-2.079,21.003-4.368,31.436-6.829c9.635-2.218,19.202-4.575,28.768-7.002 c22.5-5.719,49.775-14.383,74.729-8.178c19.479,4.817,32.829,16.15,51.786,21.974c18.543,5.718,49.321,8.492,61.214,19.028 C358.131,170.352,353.138,178.288,341.389,184.944z" fill="#FFF"/></g></g><g><g id="change4_2"><path d="M153.806,104.863c-1.357,0-2.632-0.835-3.129-2.183c-0.636-1.728,0.249-3.643,1.976-4.28 c46.566-17.142,86.532-17.529,118.781-1.146c1.642,0.834,2.295,2.841,1.463,4.481c-0.832,1.643-2.834,2.298-4.483,1.463 c-30.956-15.729-68.071-15.252-113.455,1.458C154.577,104.797,154.188,104.863,153.806,104.863z" fill="#16213D"/></g></g><g><g id="change4_4"><path d="M163.207,225.206c-0.775,0-1.555-0.269-2.185-0.817c-5.936-5.157-13.154-9.74-22.072-14.01 c-17.813-8.533-37.303-14.62-56.152-20.506c-13.833-4.321-28.139-8.789-41.767-14.209l-1.636-0.647 c-11.868-4.686-31.729-12.529-34.137-28.187c-0.28-1.819,0.968-3.522,2.788-3.8c1.797-0.284,3.52,0.967,3.8,2.788 c1.826,11.876,19.462,18.838,29.997,22.999l1.652,0.653c13.392,5.328,27.574,9.756,41.291,14.04 c19.073,5.957,38.797,12.118,57.045,20.858c9.46,4.531,17.17,9.434,23.562,14.989c1.39,1.208,1.539,3.313,0.331,4.703 C165.065,224.818,164.14,225.206,163.207,225.206z" fill="#16213D"/></g></g><g><g id="change4_3"><path d="M130.542,407.713c-0.423,0-0.854-0.082-1.268-0.253c-2.241-0.923-4.512-1.844-6.806-2.775 c-37.531-15.229-84.241-34.182-84.132-100.896c0.003-1.838,1.493-3.328,3.333-3.328c0.002,0,0.003,0,0.005,0 c1.84,0.003,3.332,1.498,3.328,3.339c-0.103,62.216,42.438,79.478,79.973,94.707c2.305,0.936,4.588,1.862,6.837,2.789 c1.702,0.702,2.514,2.651,1.814,4.353C133.096,406.936,131.852,407.713,130.542,407.713z" fill="#16213D"/></g></g><g><g id="change5_1"><path d="M341.389,184.944c-19.619,11.161-58.091,18.855-76.049,22.737c-44.4,9.567-75.389,15.46-109.771-5.719 c-10.294-6.344-22.461-11.022-33.585-15.701c-17.231-7.244-39.587-11.473-54.218-23.605c-11.777-9.751,3.71-14.893,12.168-16.993 c13.533-3.359,34.791-13.289,48.681-9.864c8.367,2.063,12.608,11.369,22.029,10.879c12.026-0.625,19.1-11.681,29.152-16.5 c23.051-11.02,40.105,19.792,64.539,14.211c13.244-3.05,20.413-8.769,33.691-2.114c14.763,7.417,27.485,11.438,43.257,16.187 C335.772,162.866,343.605,173.263,341.389,184.944z" fill="#F296A2"/></g></g><g><g id="change6_1"><path d="M258.234,142.48c16.256-14.797,36.694-24.128,44.662-46.706c6.574-18.632,12.64-37.609,22.219-54.978 c8.34-15.12,22.06-37.097,40.557-40.413c19.418-3.48,21.234,17.647,20.072,31.305c-3.398,39.832-46.608,56.209-68.406,84.95 c-11.364,14.978-22.253,31.808-34.255,46.675c-6.563,8.131-24.554,16.452-35.345,9.794c-9.652-5.955-2.24-16.778,3.11-23.059 C253.157,147.336,255.643,144.839,258.234,142.48z" fill="#B2B2B2"/></g></g><g><g id="change5_2"><ellipse cx="253.597" cy="168.957" fill="#F296A2" rx="34.767" ry="19.005"/></g></g><g><g id="change4_1"><path d="M376.049,349.961c-0.228,0-0.459-0.024-0.69-0.072c-1.802-0.378-2.954-2.147-2.575-3.949 c5.615-26.659,18.571-94.044,17.607-143.857c-0.037-1.84,1.427-3.361,3.267-3.396c1.843-0.057,3.363,1.426,3.399,3.268 c0.979,50.499-12.087,118.477-17.75,145.36C378.979,348.884,377.592,349.961,376.049,349.961z" fill="#16213D"/></g></g></g></svg>