<?xml version="1.0" encoding="UTF-8"?><svg xmlns="http://www.w3.org/2000/svg" xmlns:xlink="http://www.w3.org/1999/xlink" height="501.2" preserveAspectRatio="xMidYMid meet" version="1.0" viewBox="-0.7 -1.2 309.3 501.2" width="309.3" zoomAndPan="magnify"><defs><clipPath id="a"><path d="M 24 109 L 308.609375 109 L 308.609375 500 L 24 500 Z M 24 109"/></clipPath></defs><g><g clip-path="url(#a)" id="change1_1"><path d="M 304.96875 275.601562 C 299.90625 351.539062 283.070312 412.050781 251.984375 466.035156 L 251.988281 466.039062 C 250.648438 467.976562 234.632812 472.972656 202.605469 479.375 C 173.457031 485.199219 142.367188 484.210938 107.5625 476.359375 C 93.898438 473.277344 81.875 468.714844 80.765625 466.183594 L 79.515625 466.730469 L 79.40625 466.777344 L 80.695312 466.035156 C 49.609375 412.046875 32.773438 351.535156 27.714844 275.644531 C 26.820312 252.355469 26.820312 228.742188 27.710938 205.511719 C 28.316406 197.640625 29.601562 178.035156 30.375 166.132812 C 32.347656 170.636719 35.421875 174.691406 39.085938 177.789062 C 64.890625 199.632812 130.105469 207.414062 182.53125 207.414062 C 199.691406 207.414062 215.4375 206.492188 225.722656 204.882812 C 242.25 202.300781 291.394531 192.664062 303.109375 168.347656 C 303.601562 180.078125 304.390625 197.957031 304.96875 205.453125 C 305.859375 228.742188 305.859375 252.355469 304.96875 275.601562 Z M 246.394531 480.199219 C 219.4375 493.34375 179.152344 499.5625 143.59375 496.066406 C 121.109375 493.714844 105.027344 491.335938 87.484375 480.261719 C 86.613281 479.011719 84.832031 475.300781 83.136719 471.5625 C 90.605469 475.4375 103.644531 478.519531 106.90625 479.257812 C 127.078125 483.808594 146.023438 486.078125 164.085938 486.078125 C 177.5625 486.078125 190.550781 484.8125 203.1875 482.289062 C 220.953125 478.738281 241.765625 474.074219 250.519531 470.199219 C 249.074219 474.246094 247.328125 478.746094 246.394531 480.199219 Z M 34.160156 144.59375 C 47.023438 124.265625 70.984375 121.476562 94.152344 118.777344 C 97.976562 118.332031 101.742188 117.894531 105.390625 117.382812 C 117.402344 115.6875 129.957031 114.429688 142.691406 113.644531 C 153.402344 112.988281 164.425781 112.652344 175.453125 112.652344 C 187.074219 112.652344 198.910156 113.023438 210.632812 113.753906 C 221.027344 114.402344 231.140625 115.433594 240.6875 116.820312 C 255.433594 118.960938 274.328125 122.808594 289.734375 133.632812 C 297.632812 139.183594 302.46875 147.867188 302.664062 156.863281 L 302.660156 157.117188 C 302.667969 157.652344 302.648438 158.1875 302.617188 158.71875 C 302.609375 158.839844 302.605469 158.964844 302.597656 159.085938 C 302.558594 159.5625 302.492188 160.039062 302.425781 160.511719 C 302.386719 160.773438 302.347656 161.039062 302.296875 161.300781 C 298.183594 182.9375 260.667969 196.417969 225.261719 201.945312 C 215.121094 203.53125 199.542969 204.441406 182.527344 204.441406 C 133.003906 204.441406 66.222656 196.867188 41.003906 175.519531 C 32.453125 168.285156 27.355469 155.335938 34.160156 144.59375 Z M 307.933594 205.285156 C 307.046875 193.726562 305.652344 157.566406 305.640625 157.203125 L 305.636719 157.203125 L 305.636719 157.128906 L 305.640625 156.921875 L 305.636719 156.902344 L 305.636719 156.796875 C 305.421875 146.855469 300.109375 137.289062 291.441406 131.195312 C 275.523438 120.011719 256.1875 116.0625 241.121094 113.878906 C 231.488281 112.476562 221.292969 111.4375 210.820312 110.785156 C 187.847656 109.355469 164.628906 109.320312 142.511719 110.679688 C 129.695312 111.464844 117.066406 112.730469 104.972656 114.4375 C 101.351562 114.945312 97.609375 115.382812 93.8125 115.824219 C 71.058594 118.472656 45.273438 121.472656 31.648438 143.003906 C 28.949219 147.265625 27.886719 151.816406 28.050781 156.277344 L 28.027344 156.277344 C 28.003906 156.652344 25.636719 193.710938 24.742188 205.34375 C 23.839844 228.703125 23.839844 252.398438 24.742188 275.800781 C 29.835938 352.164062 46.777344 413.0625 78.066406 467.4375 C 78.734375 468.996094 83.492188 480.023438 85.292969 482.292969 L 85.660156 482.625 C 103.800781 494.148438 120.988281 496.691406 143.296875 499.023438 C 149.949219 499.679688 156.765625 500 163.632812 500 C 194.148438 500 225.65625 493.707031 248.046875 482.707031 L 248.554688 482.292969 C 250.351562 480.027344 253.851562 469.738281 254.640625 467.386719 C 285.910156 413.023438 302.847656 352.144531 307.9375 275.757812 C 308.835938 252.394531 308.835938 228.703125 307.933594 205.285156" fill="#f14d45"/></g><g id="change1_2"><path d="M 294.636719 241.789062 C 292.558594 240.550781 289.214844 240.367188 286.890625 239.523438 C 273.621094 234.722656 258.96875 232.898438 245.105469 230.429688 C 234.203125 228.488281 223.113281 226.753906 212.082031 225.71875 C 201.976562 224.824219 191.878906 223.847656 181.773438 222.9375 C 159.675781 220.945312 137.726562 220.515625 115.582031 219.601562 C 110.597656 219.394531 105.628906 219.441406 100.640625 219.539062 C 86.265625 219.828125 72.148438 220.648438 57.949219 222.996094 C 51.953125 223.988281 44.785156 224.648438 39.796875 228.464844 C 33.359375 233.394531 34.445312 241.230469 34.519531 248.40625 C 34.605469 257.289062 34.527344 266.253906 35.117188 275.117188 C 36.238281 291.941406 37.941406 308.851562 40.492188 325.523438 C 44.53125 351.867188 50.398438 379.203125 60.152344 404.058594 C 64.867188 416.070312 69.566406 428.214844 74.6875 440.058594 C 79.285156 450.6875 85.878906 459.265625 97.339844 462.84375 C 102.996094 464.609375 108.453125 466.761719 114.203125 468.261719 C 130.410156 472.488281 146.757812 475.601562 163.511719 476.558594 C 171.769531 477.03125 180.089844 476.722656 188.292969 475.730469 C 200.734375 474.222656 213.230469 471.480469 225.082031 467.367188 C 237.617188 463.019531 246.488281 460.191406 253.851562 448.480469 C 259.777344 439.054688 263.011719 428.296875 267.132812 418.03125 C 285.410156 372.53125 294.285156 324.148438 297.527344 275.355469 C 297.972656 268.707031 297.988281 261.988281 298.09375 255.328125 C 298.136719 252.527344 298.5 248.664062 297.507812 245.617188 C 296.992188 244.035156 296.113281 242.671875 294.636719 241.789062" fill="#f14d45"/></g><g id="change1_3"><path d="M 30.011719 7.589844 C 29.917969 2.929688 23.414062 2.769531 22.5625 6.9375 C 22.449219 7 22.292969 7.109375 22.09375 7.269531 C 21.402344 7.660156 20.503906 7.808594 19.746094 8.003906 C 18.585938 8.304688 17.402344 8.445312 16.210938 8.527344 C 14.359375 8.652344 11.136719 8.476562 9.085938 7.375 C 9.027344 7.203125 8.96875 7.035156 8.910156 6.867188 C 8.5625 5.855469 7.730469 4.683594 6.566406 4.519531 C 6.199219 4.472656 5.832031 4.421875 5.460938 4.367188 C 3.199219 4.054688 0.113281 5.859375 1.210938 8.621094 C 3.503906 14.382812 11.070312 16.410156 16.800781 16.082031 C 21.820312 15.792969 30.132812 14.035156 30.011719 7.589844" fill="#f14d45"/></g><g id="change2_1"><path d="M 39.53125 220.789062 C 39.53125 215.636719 39.585938 210.433594 39.640625 205.226562 C 39.695312 200.015625 39.746094 194.800781 39.746094 189.640625 C 39.746094 188.816406 39.082031 188.152344 38.257812 188.152344 C 37.4375 188.152344 36.773438 188.816406 36.773438 189.640625 C 36.773438 194.789062 36.71875 199.996094 36.664062 205.199219 C 36.609375 210.414062 36.558594 215.628906 36.558594 220.789062 C 36.558594 221.609375 37.222656 222.273438 38.046875 222.273438 C 38.867188 222.273438 39.53125 221.609375 39.53125 220.789062" fill="#f2b0ac"/></g><g id="change2_2"><path d="M 37.835938 166.5 C 37.96875 166.5 38.109375 166.480469 38.246094 166.441406 C 39.035156 166.21875 39.492188 165.394531 39.265625 164.605469 C 37.605469 158.796875 38.390625 152.789062 41.53125 147.234375 C 45.234375 140.695312 51.863281 135.605469 59.269531 133.617188 C 60.0625 133.402344 60.53125 132.589844 60.320312 131.796875 C 60.105469 131.003906 59.296875 130.527344 58.496094 130.746094 C 50.339844 132.933594 43.03125 138.554688 38.945312 145.769531 C 35.402344 152.035156 34.523438 158.828125 36.40625 165.421875 C 36.59375 166.074219 37.191406 166.5 37.835938 166.5" fill="#f2b0ac"/></g><g id="change2_3"><path d="M 45.101562 314.757812 C 44.179688 306.949219 43.574219 299.183594 42.988281 291.671875 C 42.683594 287.746094 42.378906 283.835938 42.035156 279.945312 C 41.492188 272.644531 41.117188 257.515625 41.117188 257.363281 C 41.09375 256.546875 40.398438 255.914062 39.59375 255.914062 C 38.773438 255.933594 38.121094 256.613281 38.144531 257.4375 C 38.144531 257.589844 38.519531 272.792969 39.070312 280.1875 C 39.414062 284.089844 39.71875 287.984375 40.023438 291.898438 C 40.609375 299.441406 41.21875 307.238281 42.148438 315.125 C 48.90625 366.523438 64.273438 410.980469 89.140625 451.035156 C 89.421875 451.488281 89.90625 451.738281 90.402344 451.738281 C 90.671875 451.738281 90.941406 451.664062 91.1875 451.515625 C 91.882812 451.082031 92.097656 450.164062 91.664062 449.46875 C 67.03125 409.777344 51.796875 365.710938 45.101562 314.757812" fill="#f2b0ac"/></g><g id="change2_4"><path d="M 79.191406 223.808594 C 71.046875 224.066406 62.804688 225.128906 54.832031 226.15625 L 51.398438 226.597656 C 47.140625 227.070312 41.566406 229.640625 39.386719 234.167969 C 39.03125 234.90625 39.339844 235.796875 40.082031 236.152344 C 40.289062 236.253906 40.507812 236.300781 40.726562 236.300781 C 41.277344 236.300781 41.808594 235.988281 42.066406 235.457031 C 43.679688 232.105469 48.148438 229.953125 51.75 229.550781 L 55.210938 229.105469 C 63.113281 228.089844 71.285156 227.035156 79.296875 226.777344 C 86.332031 226.484375 99.515625 225.902344 99.515625 225.902344 L 99.378906 222.929688 C 99.378906 222.929688 86.203125 223.515625 79.191406 223.808594" fill="#f2b0ac"/></g><g id="change2_5"><path d="M 93.738281 479.054688 C 93.257812 479.054688 93.257812 479.804688 93.738281 479.804688 C 94.222656 479.804688 94.222656 479.054688 93.738281 479.054688" fill="#f2b0ac"/></g><g id="change2_6"><path d="M 45.730469 189.671875 C 45.046875 189.226562 44.117188 189.425781 43.675781 190.121094 C 43.230469 190.808594 43.433594 191.730469 44.125 192.171875 C 58.203125 201.183594 72.800781 203.324219 86.546875 204.75 L 86.707031 204.757812 C 87.457031 204.757812 88.101562 204.1875 88.179688 203.421875 C 88.265625 202.605469 87.671875 201.878906 86.855469 201.789062 C 70.515625 200.101562 57.9375 197.480469 45.730469 189.671875" fill="#f2b0ac"/></g><g id="change2_7"><path d="M 125.925781 204.371094 C 114.605469 203.128906 103.507812 201.449219 93.085938 199.300781 C 94.316406 202.148438 95.484375 204.910156 96.597656 207.570312 C 101.664062 219.398438 107.507812 232.898438 113.808594 247.371094 C 123.285156 250.859375 135.527344 252.789062 145.855469 250.230469 C 138.546875 233.578125 131.746094 217.949219 125.925781 204.371094" fill="#f2b0ac"/></g><g id="change2_8"><path d="M 28.925781 7.96875 C 25.066406 11.679688 19.636719 13.589844 14.347656 13.589844 C 10.105469 13.589844 5.957031 12.371094 2.738281 9.859375 C 2.085938 9.359375 1.964844 8.421875 2.464844 7.777344 C 2.976562 7.128906 3.90625 7.011719 4.554688 7.519531 C 10.605469 12.21875 21.027344 11.421875 26.875 5.828125 C 27.464844 5.261719 28.40625 5.277344 28.976562 5.871094 C 29.535156 6.46875 29.519531 7.410156 28.925781 7.96875 Z M 59.007812 125.539062 C 70.9375 150.269531 82.578125 175.109375 91.585938 195.828125 C 102.035156 198.070312 113.207031 199.820312 124.558594 201.140625 C 114.886719 178.1875 101.175781 148.71875 87.175781 119.621094 C 86.726562 118.679688 86.269531 117.730469 85.816406 116.789062 C 58.605469 60.351562 30.734375 6.128906 29.496094 4.46875 C 27.566406 1.878906 23.386719 -1.238281 11.527344 0.5 C 0.355469 2.140625 -0.683594 6.039062 0.277344 7.898438 C 0.90625 9.121094 29.886719 65.289062 57.726562 122.890625 C 58.15625 123.769531 58.578125 124.660156 59.007812 125.539062" fill="#f2b0ac"/></g><g id="change3_1"><path d="M 214.796875 460.195312 C 209.867188 460.195312 206.972656 458.550781 206.972656 458.550781 C 206.972656 458.550781 151.984375 335.046875 113.804688 247.367188 C 113.804688 247.371094 113.804688 247.367188 113.808594 247.371094 C 120.269531 249.75 128.019531 251.402344 135.570312 251.402344 C 139.089844 251.402344 142.570312 251.042969 145.855469 250.230469 C 145.855469 250.226562 145.855469 250.226562 145.855469 250.226562 C 183.617188 336.210938 234.960938 449.476562 234.960938 449.476562 C 234.960938 449.476562 233.488281 455 223.453125 458.605469 C 220.144531 459.796875 217.226562 460.195312 214.796875 460.195312" fill="#f35e58"/></g><g id="change2_9"><path d="M 135.570312 251.402344 C 128.019531 251.402344 120.269531 249.75 113.808594 247.371094 C 113.804688 247.367188 113.804688 247.371094 113.804688 247.367188 C 120.269531 249.746094 128.015625 251.402344 135.566406 251.402344 C 139.089844 251.402344 142.570312 251.042969 145.855469 250.226562 C 145.855469 250.226562 145.855469 250.226562 145.855469 250.230469 C 142.570312 251.042969 139.089844 251.402344 135.570312 251.402344" fill="#f2b0ac"/></g><g id="change4_1"><path d="M 294.132812 121.898438 C 286.421875 123.273438 279.496094 126.28125 273.429688 130.8125 C 274.828125 123.371094 274.480469 115.832031 272.320312 108.300781 C 270.84375 102.308594 268.53125 96.65625 262.539062 102.402344 C 256.476562 108 251.605469 118.984375 250.867188 129.429688 C 247.050781 121.191406 241.285156 114.382812 233.582031 109.238281 C 228.582031 105.621094 223.164062 102.804688 222.308594 111.0625 C 220.546875 125.328125 232.113281 149.773438 248.652344 150.285156 L 253.75 147.882812 C 253.828125 146.949219 253.878906 146.050781 253.910156 145.167969 C 254.820312 146.71875 255.929688 148.136719 257.289062 149.359375 L 261.210938 150.410156 L 263.878906 153.472656 C 279.234375 159.628906 299.628906 141.863281 303.730469 128.089844 C 306.257812 120.179688 300.164062 120.59375 294.132812 121.898438" fill="#9da421"/></g><g id="change5_1"><path d="M 280.226562 185.359375 C 285.347656 182.609375 289.597656 179.6875 292.976562 176.609375 C 293.816406 172.460938 293.867188 168.289062 292.695312 164.261719 C 289.625 153.738281 275.476562 146.640625 264.207031 143.070312 C 248.65625 138.160156 227.007812 138.210938 217.074219 147.730469 C 210.527344 154.019531 210.765625 166.058594 211.644531 175.128906 C 212.484375 183.769531 214.035156 193.289062 216.90625 201.890625 C 218.347656 206.230469 221.105469 211.1875 224.65625 214.769531 C 230.835938 220.980469 239.285156 225.839844 248.074219 225.949219 C 257.425781 226.058594 265.007812 221.359375 270.574219 215.820312 C 273.695312 212.710938 276.445312 209.179688 278.746094 205.511719 C 282.875 198.910156 288.636719 190.4375 291.625 181.609375 C 288.734375 183.828125 285.40625 185.949219 281.636719 187.980469 C 281.414062 188.101562 281.175781 188.148438 280.9375 188.148438 C 280.40625 188.148438 279.894531 187.871094 279.625 187.371094 C 279.238281 186.648438 279.507812 185.75 280.226562 185.359375" fill="#bd1b33"/></g><g id="change6_1"><path d="M 113.753906 254.453125 C 111.902344 254.015625 106.273438 252.683594 106.480469 250.847656 C 106.566406 250.03125 105.980469 249.296875 105.164062 249.203125 C 104.351562 249.121094 103.613281 249.703125 103.519531 250.515625 C 103.023438 254.972656 109.554688 256.515625 113.066406 257.347656 L 114.089844 257.59375 C 121.105469 259.066406 128.277344 259.800781 135.566406 259.800781 C 143.910156 259.800781 152.402344 258.835938 160.972656 256.902344 C 161.773438 256.726562 162.277344 255.929688 162.09375 255.128906 C 161.917969 254.328125 161.136719 253.824219 160.316406 254.003906 C 144.6875 257.523438 129.34375 257.757812 114.769531 254.699219 L 113.753906 254.453125" fill="#f57380"/></g><g id="change6_2"><path d="M 280.226562 185.359375 C 280.445312 185.238281 280.65625 185.128906 280.875 185.011719 C 280.117188 185.027344 279.515625 185.699219 279.457031 186.460938 C 279.527344 186.011719 279.796875 185.589844 280.226562 185.359375" fill="#f57380"/></g><g id="change6_3"><path d="M 279.488281 204.320312 C 280.417969 202.839844 281.417969 201.238281 282.4375 199.601562 L 282.417969 187.550781 C 282.15625 187.699219 281.898438 187.839844 281.636719 187.980469 C 281.417969 188.101562 281.179688 188.148438 280.9375 188.148438 C 280.40625 188.148438 279.898438 187.871094 279.628906 187.371094 C 279.507812 187.148438 279.445312 186.910156 279.445312 186.671875 L 279.46875 204.238281 L 279.488281 204.320312" fill="#f57380"/></g><g id="change6_4"><path d="M 292.6875 246.148438 C 291.902344 246.070312 291.148438 246.664062 291.0625 247.480469 C 289.714844 261.113281 271.386719 269.324219 263.566406 272.222656 C 243.105469 279.804688 219.40625 283.636719 191.109375 283.941406 C 142.765625 284.496094 100.683594 276.773438 66.089844 261.074219 L 65.125 260.636719 C 55.007812 256.058594 41.15625 249.785156 39.429688 238.359375 C 39.308594 237.546875 38.546875 237.003906 37.738281 237.109375 C 36.925781 237.234375 36.367188 237.992188 36.488281 238.804688 C 38.453125 251.824219 53.160156 258.484375 63.898438 263.347656 L 64.855469 263.78125 C 98.734375 279.15625 139.640625 286.941406 186.5 286.941406 C 188.039062 286.941406 189.589844 286.933594 191.144531 286.917969 C 219.78125 286.605469 243.8125 282.710938 264.601562 275.011719 C 274.960938 271.171875 292.5625 262.523438 294.023438 247.773438 C 294.105469 246.957031 293.507812 246.230469 292.6875 246.148438" fill="#f57380"/></g><g id="change6_5"><path d="M 219.226562 157.644531 C 219.355469 156.414062 219.363281 155.175781 219.613281 153.960938 C 219.902344 152.554688 217.753906 151.957031 217.464844 153.363281 C 217.171875 154.777344 217.144531 156.214844 216.996094 157.644531 C 216.847656 159.078125 219.078125 159.0625 219.226562 157.644531" fill="#f57380"/></g><g id="change6_6"><path d="M 233.351562 154.757812 C 233.5 153.480469 233.605469 152.199219 233.703125 150.917969 C 233.8125 149.480469 231.582031 149.492188 231.476562 150.917969 C 231.378906 152.199219 231.269531 153.480469 231.121094 154.757812 C 230.953125 156.183594 233.1875 156.167969 233.351562 154.757812" fill="#f57380"/></g><g id="change6_7"><path d="M 253.722656 158.363281 C 254.015625 156.675781 254.097656 154.957031 254.527344 153.296875 C 254.894531 151.902344 252.742188 151.3125 252.378906 152.703125 C 251.945312 154.367188 251.863281 156.082031 251.570312 157.769531 C 251.324219 159.175781 253.476562 159.777344 253.722656 158.363281" fill="#f57380"/></g><g id="change6_8"><path d="M 275.007812 165.605469 C 275.566406 164.167969 275.988281 162.691406 276.386719 161.203125 C 276.761719 159.8125 274.609375 159.222656 274.238281 160.609375 C 273.839844 162.101562 273.414062 163.574219 272.859375 165.015625 C 272.339844 166.359375 274.496094 166.933594 275.007812 165.605469" fill="#f57380"/></g><g id="change6_9"><path d="M 226.425781 171.152344 C 226.339844 172.589844 228.570312 172.582031 228.65625 171.152344 C 228.730469 169.867188 228.695312 168.589844 228.644531 167.308594 C 228.589844 165.875 226.359375 165.867188 226.414062 167.308594 C 226.464844 168.589844 226.5 169.867188 226.425781 171.152344" fill="#f57380"/></g><g id="change6_10"><path d="M 243.753906 168.722656 C 243.894531 167.6875 243.953125 166.640625 244.097656 165.605469 C 244.289062 164.203125 242.140625 163.597656 241.945312 165.015625 C 241.804688 166.050781 241.746094 167.09375 241.605469 168.128906 C 241.410156 169.535156 243.5625 170.140625 243.753906 168.722656" fill="#f57380"/></g><g id="change6_11"><path d="M 262.457031 174.253906 C 262.898438 172.632812 263.113281 170.960938 263.554688 169.339844 C 263.933594 167.945312 261.78125 167.359375 261.40625 168.746094 C 260.964844 170.367188 260.746094 172.039062 260.308594 173.660156 C 259.933594 175.050781 262.082031 175.640625 262.457031 174.253906" fill="#f57380"/></g><g id="change6_12"><path d="M 219.039062 181.851562 C 219.429688 183.464844 219.773438 185.050781 219.785156 186.71875 C 219.792969 188.15625 222.023438 188.15625 222.015625 186.71875 C 222 184.855469 221.625 183.0625 221.1875 181.257812 C 220.851562 179.859375 218.699219 180.453125 219.039062 181.851562" fill="#f57380"/></g><g id="change6_13"><path d="M 236.347656 184.484375 C 236.355469 183.445312 236.316406 182.40625 236.324219 181.363281 C 236.335938 179.925781 234.105469 179.929688 234.097656 181.363281 C 234.089844 182.40625 234.121094 183.445312 234.117188 184.484375 C 234.105469 185.925781 236.335938 185.925781 236.347656 184.484375" fill="#f57380"/></g><g id="change6_14"><path d="M 250.285156 186.390625 C 250.65625 184.929688 250.929688 183.441406 251.300781 181.980469 C 251.65625 180.585938 249.507812 179.996094 249.152344 181.386719 C 248.777344 182.851562 248.507812 184.335938 248.136719 185.796875 C 247.78125 187.191406 249.933594 187.785156 250.285156 186.390625" fill="#f57380"/></g><g id="change6_15"><path d="M 267.617188 191.390625 C 267.890625 190.210938 268.285156 189.070312 268.691406 187.925781 C 269.171875 186.566406 267.019531 185.988281 266.542969 187.335938 C 266.140625 188.476562 265.738281 189.613281 265.46875 190.800781 C 265.148438 192.199219 267.300781 192.796875 267.617188 191.390625" fill="#f57380"/></g><g id="change6_16"><path d="M 231.628906 199.496094 C 231.417969 198.429688 231.253906 197.394531 231.289062 196.304688 C 231.34375 194.863281 229.113281 194.871094 229.0625 196.304688 C 229.015625 197.589844 229.230469 198.832031 229.480469 200.089844 C 229.757812 201.5 231.90625 200.902344 231.628906 199.496094" fill="#f57380"/></g><g id="change6_17"><path d="M 266.941406 208.558594 C 267.839844 206.828125 268.738281 205.101562 269.640625 203.378906 C 270.300781 202.101562 268.378906 200.976562 267.710938 202.25 C 266.8125 203.976562 265.914062 205.703125 265.015625 207.429688 C 264.351562 208.703125 266.277344 209.832031 266.941406 208.558594" fill="#f57380"/></g><g id="change6_18"><path d="M 249.433594 203.140625 C 250.011719 201.351562 250.558594 199.558594 250.972656 197.722656 C 251.285156 196.320312 249.136719 195.726562 248.820312 197.128906 C 248.40625 198.964844 247.859375 200.757812 247.28125 202.546875 C 246.835938 203.917969 248.988281 204.503906 249.433594 203.140625" fill="#f57380"/></g><g id="change6_19"><path d="M 241.628906 211.929688 C 241.5 210.71875 241.382812 209.511719 241.324219 208.296875 C 241.257812 206.863281 239.027344 206.859375 239.097656 208.296875 C 239.152344 209.511719 239.269531 210.722656 239.398438 211.929688 C 239.550781 213.34375 241.78125 213.359375 241.628906 211.929688" fill="#f57380"/></g><g id="change6_20"><path d="M 253.726562 215.617188 C 254.015625 214.414062 254.316406 213.265625 254.980469 212.207031 C 255.746094 210.984375 253.816406 209.863281 253.054688 211.082031 C 252.289062 212.300781 251.910156 213.636719 251.574219 215.023438 C 251.238281 216.425781 253.390625 217.015625 253.726562 215.617188" fill="#f57380"/></g><g id="change6_21"><path d="M 70.210938 312.785156 C 69.40625 312.597656 68.609375 313.089844 68.417969 313.882812 C 68.191406 314.828125 68.132812 315.734375 68.078125 316.613281 C 68.042969 317.082031 68.015625 317.554688 67.957031 318.035156 C 67.855469 318.851562 68.4375 319.59375 69.253906 319.691406 L 69.4375 319.703125 C 70.175781 319.703125 70.816406 319.148438 70.910156 318.394531 C 70.976562 317.855469 71.011719 317.328125 71.042969 316.804688 C 71.09375 316.015625 71.144531 315.273438 71.308594 314.578125 C 71.5 313.78125 71.011719 312.976562 70.210938 312.785156" fill="#f57380"/></g><g id="change6_22"><path d="M 119.703125 307.03125 C 118.914062 306.960938 118.175781 307.582031 118.109375 308.402344 C 118.019531 309.613281 117.933594 310.824219 117.769531 312.175781 C 117.667969 312.992188 118.25 313.730469 119.066406 313.832031 L 119.246094 313.839844 C 119.984375 313.839844 120.628906 313.285156 120.71875 312.53125 C 120.886719 311.132812 120.984375 309.878906 121.078125 308.625 C 121.140625 307.804688 120.523438 307.09375 119.703125 307.03125" fill="#f57380"/></g><g id="change6_23"><path d="M 224.132812 300.25 C 223.339844 300.015625 222.519531 300.472656 222.289062 301.261719 C 221.980469 302.332031 221.851562 303.441406 221.726562 304.515625 C 221.644531 305.175781 221.570312 305.832031 221.449219 306.464844 C 221.292969 307.269531 221.824219 308.050781 222.628906 308.203125 C 222.722656 308.222656 222.820312 308.230469 222.910156 308.230469 C 223.609375 308.230469 224.234375 307.734375 224.367188 307.023438 C 224.503906 306.320312 224.589844 305.589844 224.675781 304.863281 C 224.792969 303.867188 224.902344 302.921875 225.148438 302.089844 C 225.378906 301.300781 224.921875 300.476562 224.132812 300.25" fill="#f57380"/></g><g id="change6_24"><path d="M 272.722656 296.253906 C 271.921875 296.03125 271.113281 296.515625 270.898438 297.304688 C 270.519531 298.746094 270.152344 300.105469 269.578125 301.539062 C 269.273438 302.304688 269.644531 303.167969 270.40625 303.476562 C 270.585938 303.546875 270.773438 303.582031 270.960938 303.582031 C 271.550781 303.582031 272.105469 303.226562 272.339844 302.644531 C 272.980469 301.046875 273.382812 299.53125 273.773438 298.070312 C 273.988281 297.277344 273.515625 296.464844 272.722656 296.253906" fill="#f57380"/></g><g id="change6_25"><path d="M 87.714844 370.996094 C 86.894531 371.027344 86.253906 371.722656 86.285156 372.542969 C 86.339844 373.839844 86.390625 375.066406 86.300781 376.214844 C 86.238281 377.035156 86.855469 377.746094 87.671875 377.808594 L 87.789062 377.8125 C 88.558594 377.8125 89.207031 377.21875 89.269531 376.4375 C 89.367188 375.121094 89.3125 373.75 89.261719 372.421875 C 89.226562 371.601562 88.574219 370.925781 87.714844 370.996094" fill="#f57380"/></g><g id="change6_26"><path d="M 136.210938 351.175781 C 135.402344 351.039062 134.636719 351.597656 134.507812 352.410156 C 134.421875 352.949219 134.367188 353.511719 134.324219 354.074219 C 134.277344 354.5625 134.242188 355.050781 134.164062 355.523438 C 134.035156 356.332031 134.585938 357.09375 135.398438 357.226562 L 135.636719 357.246094 C 136.351562 357.246094 136.980469 356.726562 137.101562 355.992188 C 137.1875 355.453125 137.238281 354.890625 137.285156 354.328125 C 137.328125 353.839844 137.367188 353.351562 137.445312 352.878906 C 137.574219 352.066406 137.019531 351.308594 136.210938 351.175781" fill="#f57380"/></g><g id="change6_27"><path d="M 249.074219 338.929688 C 249.210938 338.96875 249.351562 338.988281 249.488281 338.988281 C 250.132812 338.988281 250.730469 338.566406 250.917969 337.914062 C 251.160156 337.074219 251.328125 336.199219 251.496094 335.320312 C 251.648438 334.535156 251.796875 333.746094 252.015625 333 C 252.246094 332.210938 251.789062 331.386719 251.003906 331.15625 C 250.207031 330.921875 249.386719 331.382812 249.15625 332.167969 C 248.914062 333.007812 248.746094 333.886719 248.578125 334.765625 C 248.425781 335.550781 248.277344 336.335938 248.0625 337.085938 C 247.828125 337.875 248.285156 338.699219 249.074219 338.929688" fill="#f57380"/></g><g id="change6_28"><path d="M 94.875 406.070312 C 94.074219 406.265625 93.585938 407.046875 93.78125 407.84375 C 94.175781 409.46875 94.550781 410.953125 94.527344 412.585938 C 94.515625 413.40625 95.167969 414 95.988281 414 L 96.011719 414 C 96.824219 414 97.484375 413.4375 97.5 412.628906 C 97.53125 410.613281 97.09375 408.910156 96.667969 407.175781 C 96.472656 406.378906 95.667969 405.882812 94.875 406.070312" fill="#f57380"/></g><g id="change6_29"><path d="M 153.4375 383.550781 C 153.449219 382.730469 152.796875 382.015625 151.976562 382.003906 C 151.078125 382.007812 150.480469 382.570312 150.464844 383.394531 C 150.457031 383.945312 150.464844 384.316406 150.476562 384.835938 C 150.484375 385.332031 150.496094 385.539062 150.484375 386.070312 C 150.472656 386.890625 151.125 387 151.941406 387 L 151.972656 387 C 152.777344 387 153.445312 386.929688 153.460938 386.117188 C 153.472656 385.546875 153.460938 385.585938 153.449219 385.050781 C 153.4375 384.566406 153.429688 384.066406 153.4375 383.550781" fill="#f57380"/></g><g id="change6_30"><path d="M 220.875 355.6875 C 220.074219 355.472656 219.269531 355.945312 219.054688 356.738281 C 218.855469 357.480469 218.695312 358.238281 218.535156 359 C 218.378906 359.71875 218.230469 360.441406 218.039062 361.144531 C 217.824219 361.9375 218.296875 362.753906 219.089844 362.96875 C 219.214844 363.003906 219.347656 363.019531 219.476562 363.019531 C 220.128906 363.019531 220.730469 362.582031 220.910156 361.917969 C 221.113281 361.164062 221.277344 360.390625 221.445312 359.617188 C 221.59375 358.90625 221.742188 358.195312 221.929688 357.507812 C 222.140625 356.714844 221.667969 355.898438 220.875 355.6875" fill="#f57380"/></g><g id="change6_31"><path d="M 247.1875 378.722656 C 247.378906 377.796875 247.730469 376.789062 248.078125 375.816406 L 248.203125 375.457031 C 248.480469 374.679688 248.070312 373.832031 247.296875 373.558594 C 246.519531 373.28125 245.671875 373.695312 245.398438 374.46875 L 245.273438 374.824219 C 244.910156 375.84375 244.503906 377 244.273438 378.132812 C 244.109375 378.933594 244.632812 379.722656 245.4375 379.882812 C 245.535156 379.902344 245.636719 379.914062 245.734375 379.914062 C 246.425781 379.914062 247.042969 379.429688 247.1875 378.722656" fill="#f57380"/></g><g id="change6_32"><path d="M 145.425781 422.402344 C 145.484375 421.585938 144.871094 420.871094 144.050781 420.808594 C 143.257812 420.753906 142.523438 421.359375 142.457031 422.179688 C 142.355469 423.542969 142.617188 424.84375 142.863281 426.070312 L 144.324219 425.777344 L 145.742188 425.300781 C 145.5625 424.390625 145.355469 423.355469 145.425781 422.402344" fill="#f57380"/></g><g id="change6_33"><path d="M 251.519531 412.617188 C 250.796875 412.238281 249.894531 412.519531 249.515625 413.25 L 246.820312 418.429688 C 246.441406 419.160156 246.726562 420.054688 247.453125 420.433594 C 247.671875 420.546875 247.90625 420.601562 248.140625 420.601562 C 248.675781 420.601562 249.191406 420.308594 249.457031 419.800781 L 252.152344 414.621094 C 252.53125 413.890625 252.246094 412.996094 251.519531 412.617188" fill="#f57380"/></g><g id="change6_34"><path d="M 199.660156 314.914062 C 198.855469 314.746094 198.066406 315.25 197.894531 316.054688 C 197.53125 317.726562 197.03125 319.371094 196.394531 321.320312 C 196.140625 322.101562 196.5625 322.941406 197.34375 323.195312 C 197.496094 323.246094 197.652344 323.269531 197.808594 323.269531 C 198.433594 323.269531 199.015625 322.875 199.21875 322.246094 C 199.882812 320.207031 200.40625 318.480469 200.796875 316.683594 C 200.972656 315.882812 200.460938 315.089844 199.660156 314.914062" fill="#f57380"/></g><g id="change6_35"><path d="M 119.78125 452.066406 C 119.75 451.246094 118.996094 450.601562 118.238281 450.640625 C 117.414062 450.671875 116.777344 451.363281 116.808594 452.183594 C 116.863281 453.527344 116.992188 454.726562 117.121094 455.921875 C 117.207031 456.683594 117.851562 457.246094 118.597656 457.246094 L 118.765625 457.238281 C 119.578125 457.148438 120.167969 456.414062 120.078125 455.597656 C 119.953125 454.46875 119.832031 453.335938 119.78125 452.066406" fill="#f57380"/></g><g id="change6_36"><path d="M 180.523438 436.40625 C 179.851562 435.941406 178.921875 436.105469 178.457031 436.785156 C 177.550781 438.097656 177.183594 439.621094 176.863281 440.964844 C 176.675781 441.761719 177.167969 442.566406 177.964844 442.757812 C 178.082031 442.78125 178.199219 442.796875 178.3125 442.796875 C 178.984375 442.796875 179.597656 442.339844 179.757812 441.652344 C 180.042969 440.457031 180.3125 439.328125 180.902344 438.476562 C 181.367188 437.796875 181.199219 436.871094 180.523438 436.40625" fill="#f57380"/></g><g id="change6_37"><path d="M 13.535156 19.933594 C 13.050781 19.933594 13.050781 20.683594 13.535156 20.683594 C 14.023438 20.683594 14.023438 19.933594 13.535156 19.933594" fill="#f57380"/></g><g id="change6_38"><path d="M 20.972656 29.496094 C 20.589844 28.769531 19.683594 28.496094 18.964844 28.871094 C 18.238281 29.253906 17.957031 30.152344 18.339844 30.878906 L 31.195312 55.355469 C 31.457031 55.863281 31.972656 56.152344 32.507812 56.152344 C 32.742188 56.152344 32.980469 56.097656 33.199219 55.984375 C 33.925781 55.601562 34.207031 54.703125 33.824219 53.976562 L 20.972656 29.496094" fill="#f57380"/></g><g id="change6_39"><path d="M 97.351562 192.40625 C 97.570312 192.40625 97.785156 192.359375 97.992188 192.261719 C 98.734375 191.90625 99.046875 191.015625 98.691406 190.277344 L 38.277344 64.210938 C 37.921875 63.46875 37.03125 63.15625 36.292969 63.511719 C 35.554688 63.867188 35.242188 64.753906 35.59375 65.496094 L 96.007812 191.5625 C 96.265625 192.097656 96.796875 192.40625 97.351562 192.40625" fill="#f57380"/></g><g id="change6_40"><path d="M 122.769531 248.058594 C 123.027344 248.59375 123.558594 248.902344 124.113281 248.902344 C 124.328125 248.902344 124.546875 248.855469 124.753906 248.757812 C 125.492188 248.402344 125.808594 247.515625 125.453125 246.773438 L 105.328125 204.777344 C 104.972656 204.039062 104.078125 203.726562 103.347656 204.082031 C 102.605469 204.4375 102.292969 205.324219 102.644531 206.066406 L 122.769531 248.058594" fill="#f57380"/></g></g></svg>