<?xml version="1.0" encoding="UTF-8"?><svg xmlns="http://www.w3.org/2000/svg" xmlns:xlink="http://www.w3.org/1999/xlink" height="17.3" preserveAspectRatio="xMidYMid meet" version="1.0" viewBox="0.1 0.0 45.2 17.3" width="45.2" zoomAndPan="magnify"><symbol id="E" preserveAspectRatio="xMidYMid meet" viewBox="-0.012 -17.3 45.217 17.3"><g clip-rule="evenodd" fill-rule="evenodd"><linearGradient gradientTransform="rotate(34.269 8167.342 -8183.006)" gradientUnits="userSpaceOnUse" id="a" x1="6037.2" x2="6047.4" xlink:actuate="onLoad" xlink:show="other" xlink:type="simple" xmlns:xlink="http://www.w3.org/1999/xlink" y1="3157.9" y2="3157.9"><stop offset="0" stop-color="#D13506"/><stop offset="1" stop-color="#942B04"/></linearGradient><path d="m34.6-12.25c-3.467-1.2-7.75-1.8-12.85-1.8-5.933 0-10.733 0.667-14.4 2-1.833 0.667-3.067 1.333-3.7 2 1.033 0.167 2.367 0.783 4 1.85 2.9 1.934 4.633 3.067 5.2 3.4 2.833 1.6 5.283 3.2 7.35 4.8 1.267-1.067 4.466-2.933 9.6-5.6 3.333-1.767 6.15-3.383 8.45-4.85-0.7-0.6-1.917-1.2-3.65-1.8z" fill="url(#a)"/><linearGradient gradientTransform="rotate(33.688 8167.185 -8182.995)" gradientUnits="userSpaceOnUse" id="b" x1="5907.5" x2="5908.1" xlink:actuate="onLoad" xlink:show="other" xlink:type="simple" xmlns:xlink="http://www.w3.org/1999/xlink" y1="3145.2" y2="3145.2"><stop offset="0" stop-color="#D13506"/><stop offset="1" stop-color="#942B04"/></linearGradient><path d="m3.8-10.05c0.633-0.7 0.583-1.1-0.15-1.2-0.767-0.133-1.217-0.017-1.35 0.35-0.066 0.267 0.117 0.533 0.55 0.8s0.75 0.283 0.95 0.05z" fill="url(#b)"/><linearGradient gradientTransform="rotate(34.995 8166.139 -8182.63)" gradientUnits="userSpaceOnUse" id="c" x1="6163.1" x2="6163.7" xlink:actuate="onLoad" xlink:show="other" xlink:type="simple" xmlns:xlink="http://www.w3.org/1999/xlink" y1="3194.2" y2="3194.2"><stop offset="0" stop-color="#D13506"/><stop offset="1" stop-color="#942B04"/></linearGradient><path d="m1.15-11c0.934-0.333 1.067-0.617 0.4-0.85-0.7-0.267-1.183-0.267-1.45 0-0.2 0.2-0.133 0.417 0.2 0.65s0.617 0.3 0.85 0.2z" fill="url(#c)"/><linearGradient gradientTransform="rotate(33.688 8167.185 -8182.995)" gradientUnits="userSpaceOnUse" id="d" x1="5907.2" x2="5907.7" xlink:actuate="onLoad" xlink:show="other" xlink:type="simple" xmlns:xlink="http://www.w3.org/1999/xlink" y1="3143.1" y2="3143.1"><stop offset="0" stop-color="#D13506"/><stop offset="1" stop-color="#942B04"/></linearGradient><path d="m4.3-12.2c0.6-0.233 0.767-0.433 0.5-0.6-0.3-0.167-0.65-0.184-1.05-0.05-0.367 0.067-0.433 0.217-0.2 0.45 0.233 0.267 0.483 0.333 0.75 0.2z" fill="url(#d)"/><linearGradient gradientTransform="rotate(35.537 8167.63 -8183.458)" gradientUnits="userSpaceOnUse" id="e" x1="6275.8" x2="6276" xlink:actuate="onLoad" xlink:show="other" xlink:type="simple" xmlns:xlink="http://www.w3.org/1999/xlink" y1="3210" y2="3210"><stop offset="0" stop-color="#D13506"/><stop offset="1" stop-color="#942B04"/></linearGradient><path d="m6.05-11.25c0.333-0.033 0.417-0.117 0.25-0.25-0.167-0.167-0.333-0.2-0.5-0.1s-0.233 0.184-0.2 0.25c0.067 0.1 0.217 0.133 0.45 0.1z" fill="url(#e)"/><linearGradient gradientTransform="rotate(33.688 8167.185 -8182.995)" gradientUnits="userSpaceOnUse" id="f" x1="5909.8" x2="5910" xlink:actuate="onLoad" xlink:show="other" xlink:type="simple" xmlns:xlink="http://www.w3.org/1999/xlink" y1="3141.8" y2="3141.8"><stop offset="0" stop-color="#D13506"/><stop offset="1" stop-color="#942B04"/></linearGradient><path d="m7.05-12.15c0.267-0.067 0.333-0.133 0.2-0.2-0.1-0.033-0.25-0.05-0.45-0.05-0.1 0.033-0.1 0.083 0 0.15 0.067 0.1 0.15 0.133 0.25 0.1z" fill="url(#f)"/><linearGradient gradientTransform="rotate(34.075 8167.371 -8183.005)" gradientUnits="userSpaceOnUse" id="g" x1="5989.2" x2="5990.2" xlink:actuate="onLoad" xlink:show="other" xlink:type="simple" xmlns:xlink="http://www.w3.org/1999/xlink" y1="3152.9" y2="3152.9"><stop offset="0" stop-color="#D13506"/><stop offset="1" stop-color="#942B04"/></linearGradient><path d="m9.8-13.65c-0.333 0.167-0.333 0.316 0 0.45 0.333 0.167 0.633 0.2 0.9 0.1 0.066-0.033 0.233-0.05 0.5-0.05 0.333 0.033 0.733 0.017 1.2-0.05 0.533-0.066 0.783-0.283 0.75-0.65-0.033-0.2-0.066-0.433-0.1-0.7 0.133-0.1 0.034-0.184-0.3-0.25-0.333-0.067-0.65-0.067-0.95 0-0.2 0.033-0.35 0.133-0.45 0.3-0.1 0.2-0.167 0.317-0.2 0.35-0.7 0.233-1.15 0.4-1.35 0.5z" fill="url(#g)"/><linearGradient gradientTransform="rotate(33.688 8167.185 -8182.995)" gradientUnits="userSpaceOnUse" id="h" x1="5911.1" x2="5911.6" xlink:actuate="onLoad" xlink:show="other" xlink:type="simple" xmlns:xlink="http://www.w3.org/1999/xlink" y1="3138.6" y2="3138.6"><stop offset="0" stop-color="#D13506"/><stop offset="1" stop-color="#942B04"/></linearGradient><path d="m10.25-14c0.367-0.1 0.5-0.2 0.4-0.3-0.066-0.067-0.233-0.117-0.5-0.15-0.433-0.033-0.75 0.034-0.95 0.2-0.133 0.1-0.05 0.183 0.25 0.25s0.567 0.067 0.8 0z" fill="url(#h)"/><linearGradient gradientTransform="rotate(35.537 8167.63 -8183.458)" gradientUnits="userSpaceOnUse" id="i" x1="6273" x2="6273.2" xlink:actuate="onLoad" xlink:show="other" xlink:type="simple" xmlns:xlink="http://www.w3.org/1999/xlink" y1="3212.5" y2="3212.5"><stop offset="0" stop-color="#D13506"/><stop offset="1" stop-color="#942B04"/></linearGradient><path d="m2.6-11.1c-0.067-0.1-0.2-0.133-0.4-0.1-0.3 0-0.4 0.133-0.3 0.4 0.033 0.066 0.117 0.1 0.25 0.1 0.1 0.034 0.184 0.034 0.25 0 0.133 0 0.2-0.133 0.2-0.4z" fill="url(#i)"/><linearGradient gradientTransform="rotate(33.688 8167.185 -8182.995)" gradientUnits="userSpaceOnUse" id="j" x1="5905.4" x2="5905.8" xlink:actuate="onLoad" xlink:show="other" xlink:type="simple" xmlns:xlink="http://www.w3.org/1999/xlink" y1="3143.8" y2="3143.8"><stop offset="0" stop-color="#D13506"/><stop offset="1" stop-color="#942B04"/></linearGradient><path d="m2.45-12.8c0.267-0.034 0.4-0.083 0.4-0.15 0-0.066-0.083-0.133-0.25-0.2-0.434-0.2-0.717-0.2-0.85 0-0.067 0.1-0.017 0.2 0.15 0.3 0.133 0.067 0.317 0.083 0.55 0.05z" fill="url(#j)"/><linearGradient gradientTransform="rotate(35.217 8166.738 -8182.776)" gradientUnits="userSpaceOnUse" id="k" x1="6211.4" x2="6211.9" xlink:actuate="onLoad" xlink:show="other" xlink:type="simple" xmlns:xlink="http://www.w3.org/1999/xlink" y1="3195.9" y2="3195.9"><stop offset="0" stop-color="#D13506"/><stop offset="1" stop-color="#942B04"/></linearGradient><path d="m7.65-14.2c0.533-0.066 0.684-0.25 0.45-0.55s-0.633-0.35-1.2-0.15c-0.533 0.2-0.65 0.383-0.35 0.55 0.267 0.133 0.633 0.183 1.1 0.15z" fill="url(#k)"/><linearGradient gradientTransform="rotate(34.188 8166.563 -8182.919)" gradientUnits="userSpaceOnUse" id="l" x1="6016" x2="6017.6" xlink:actuate="onLoad" xlink:show="other" xlink:type="simple" xmlns:xlink="http://www.w3.org/1999/xlink" y1="3152.6" y2="3152.6"><stop offset="0" stop-color="#D13506"/><stop offset="1" stop-color="#942B04"/></linearGradient><path d="m21.3-14.9c0-0.067-0.45-0.15-1.35-0.25-0.934-0.1-1.7-0.15-2.3-0.15s-1.083 0.1-1.45 0.3c-0.367 0.167-0.517 0.317-0.45 0.45 0.167 0.433 0.55 0.85 1.15 1.25 0.4 0.233 0.9 0.3 1.5 0.2 0.533-0.1 1.017-0.283 1.45-0.55 0.333-0.2 0.667-0.45 1-0.75 0.3-0.267 0.45-0.433 0.45-0.5z" fill="url(#l)"/><linearGradient gradientTransform="rotate(34.995 8166.139 -8182.63)" gradientUnits="userSpaceOnUse" id="m" x1="6177.6" x2="6178.8" xlink:actuate="onLoad" xlink:show="other" xlink:type="simple" xmlns:xlink="http://www.w3.org/1999/xlink" y1="3179.5" y2="3179.5"><stop offset="0" stop-color="#D13506"/><stop offset="1" stop-color="#942B04"/></linearGradient><path d="m22.2-14.5l1.1-0.8c-0.133-0.367-0.533-0.617-1.2-0.75-1.033-0.2-1.883-0.133-2.55 0.2-0.2 0.1-0.183 0.3 0.05 0.6 0.133 0.167 0.333 0.383 0.6 0.65 0.133 0.167 0.4 0.283 0.8 0.35 0.467 0.033 0.867-0.05 1.2-0.25z" fill="url(#m)"/><linearGradient gradientTransform="rotate(34.157 8167.337 -8182.842)" gradientUnits="userSpaceOnUse" id="n" x1="6008.3" x2="6009.1" xlink:actuate="onLoad" xlink:show="other" xlink:type="simple" xmlns:xlink="http://www.w3.org/1999/xlink" y1="3151.3" y2="3151.3"><stop offset="0" stop-color="#D13506"/><stop offset="1" stop-color="#942B04"/></linearGradient><path d="m17-15.5c0.267-0.067 0.517-0.217 0.75-0.45 0.233-0.267 0.283-0.466 0.15-0.6-0.267-0.233-1.1-0.217-2.5 0.05-0.233 0.067-0.333 0.15-0.3 0.25 0 0.033 0.133 0.183 0.4 0.45 0.333 0.3 0.833 0.4 1.5 0.3z" fill="url(#n)"/><linearGradient gradientTransform="rotate(35.217 8166.738 -8182.776)" gradientUnits="userSpaceOnUse" id="o" x1="6216.5" x2="6217" xlink:actuate="onLoad" xlink:show="other" xlink:type="simple" xmlns:xlink="http://www.w3.org/1999/xlink" y1="3189.6" y2="3189.6"><stop offset="0" stop-color="#D13506"/><stop offset="1" stop-color="#942B04"/></linearGradient><path d="m15.9-16.7c0.133-0.1 0.133-0.183 0-0.25-0.367-0.167-0.833-0.183-1.4-0.05-0.267 0.1-0.317 0.217-0.15 0.35 0.066 0.066 0.267 0.2 0.6 0.4 0.167 0.1 0.35 0.1 0.55 0 0.2-0.067 0.333-0.217 0.4-0.45z" fill="url(#o)"/><linearGradient gradientTransform="rotate(33.96 8166.905 -8182.997)" gradientUnits="userSpaceOnUse" id="p" x1="5981.3" x2="5982.7" xlink:actuate="onLoad" xlink:show="other" xlink:type="simple" xmlns:xlink="http://www.w3.org/1999/xlink" y1="3137.4" y2="3137.4"><stop offset="0" stop-color="#D13506"/><stop offset="1" stop-color="#942B04"/></linearGradient><path d="m28.45-14.3c0.1 0.333 0.2 0.583 0.3 0.75 0.133 0.3 0.333 0.517 0.6 0.65 0.333 0.133 0.717 0.183 1.15 0.15 0.433-0.067 0.75-0.2 0.95-0.4 0.233-0.267 0.55-0.483 0.95-0.65 0.167-0.067 0.35-0.25 0.55-0.55s0.25-0.483 0.15-0.55c-0.533-0.267-1.25-0.434-2.15-0.5-0.034 0-0.417-0.033-1.15-0.1-0.433 0-0.75 0.033-0.95 0.1-0.233 0.133-0.383 0.316-0.45 0.55-0.067 0.2-0.05 0.383 0.05 0.55z" fill="url(#p)"/><linearGradient gradientTransform="rotate(35.361 8167.815 -8183.501)" gradientUnits="userSpaceOnUse" id="q" x1="6256.8" x2="6257.8" xlink:actuate="onLoad" xlink:show="other" xlink:type="simple" xmlns:xlink="http://www.w3.org/1999/xlink" y1="3187.5" y2="3187.5"><stop offset="0" stop-color="#D13506"/><stop offset="1" stop-color="#942B04"/></linearGradient><path d="m29.05-14.8c0.333-0.067 0.65-0.284 0.95-0.65 0.333-0.333 0.383-0.55 0.15-0.65-0.667-0.3-1.233-0.45-1.7-0.45-0.733 0-1.233 0.267-1.5 0.8-0.034 0.1 0.05 0.2 0.25 0.3 0.3 0.167 0.5 0.317 0.6 0.45 0.167 0.2 0.35 0.3 0.55 0.3 0.067 0 0.3-0.033 0.7-0.1z" fill="url(#q)"/><linearGradient gradientTransform="rotate(32.907 8166.082 -8182.33)" gradientUnits="userSpaceOnUse" id="r" x1="5768.5" x2="5769" xlink:actuate="onLoad" xlink:show="other" xlink:type="simple" xmlns:xlink="http://www.w3.org/1999/xlink" y1="3095.5" y2="3095.5"><stop offset="0" stop-color="#D13506"/><stop offset="1" stop-color="#942B04"/></linearGradient><path d="m26.65-16.5c0.467-0.2 0.55-0.383 0.25-0.55-0.233-0.167-0.55-0.25-0.95-0.25-0.367 0.033-0.5 0.216-0.4 0.55 0.034 0.1 0.184 0.183 0.45 0.25 0.267 0.1 0.483 0.1 0.65 0z" fill="url(#r)"/><linearGradient gradientTransform="rotate(33.688 8167.185 -8182.995)" gradientUnits="userSpaceOnUse" id="s" x1="5925.2" x2="5925.8" xlink:actuate="onLoad" xlink:show="other" xlink:type="simple" xmlns:xlink="http://www.w3.org/1999/xlink" y1="3129.3" y2="3129.3"><stop offset="0" stop-color="#D13506"/><stop offset="1" stop-color="#942B04"/></linearGradient><path d="m27.6-13.8c0.267-0.467-0.184-0.7-1.35-0.7-0.5 0-0.533 0.217-0.1 0.65 0.167 0.2 0.417 0.317 0.75 0.35 0.367 0.033 0.6-0.067 0.7-0.3z" fill="url(#s)"/><linearGradient gradientTransform="rotate(34.777 8167.079 -8182.962)" gradientUnits="userSpaceOnUse" id="t" x1="6148.4" x2="6149.4" xlink:actuate="onLoad" xlink:show="other" xlink:type="simple" xmlns:xlink="http://www.w3.org/1999/xlink" y1="3166.4" y2="3166.4"><stop offset="0" stop-color="#D13506"/><stop offset="1" stop-color="#942B04"/></linearGradient><path d="m36.95-12.1c-0.534-0.9-1.35-1.267-2.45-1.1-0.7 0.1-0.883 0.383-0.55 0.85 0.1 0.167 0.5 0.55 1.2 1.15 0.333 0.267 0.617 0.3 0.85 0.1 0.133-0.133 0.45-0.467 0.95-1z" fill="url(#t)"/><linearGradient gradientTransform="rotate(34.694 8167.155 -8183.1)" gradientUnits="userSpaceOnUse" id="u" x1="6133.4" x2="6134.2" xlink:actuate="onLoad" xlink:show="other" xlink:type="simple" xmlns:xlink="http://www.w3.org/1999/xlink" y1="3162.3" y2="3162.3"><stop offset="0" stop-color="#D13506"/><stop offset="1" stop-color="#942B04"/></linearGradient><path d="m38.3-12.25c-0.167-0.7-0.617-1.067-1.35-1.1-0.5 0-0.75 0.133-0.75 0.4 0 0.034 0.066 0.284 0.2 0.75 0.1 0.233 0.317 0.317 0.65 0.25 0.167 0 0.583-0.1 1.25-0.3z" fill="url(#u)"/><linearGradient gradientTransform="rotate(34.113 8167.894 -8183.573)" gradientUnits="userSpaceOnUse" id="v" x1="6021.1" x2="6022" xlink:actuate="onLoad" xlink:show="other" xlink:type="simple" xmlns:xlink="http://www.w3.org/1999/xlink" y1="3138.2" y2="3138.2"><stop offset="0" stop-color="#D13506"/><stop offset="1" stop-color="#942B04"/></linearGradient><path d="m41.85-12.65c0.5-0.333 0.7-0.667 0.6-1-0.1-0.233-0.934-0.283-2.5-0.15-0.434 0.033-0.583 0.117-0.45 0.25 0.067 0.066 0.2 0.2 0.4 0.4 0.067 0.233 0.3 0.417 0.7 0.55 0.433 0.167 0.85 0.15 1.25-0.05z" fill="url(#v)"/><linearGradient gradientTransform="rotate(33.688 8167.185 -8182.995)" gradientUnits="userSpaceOnUse" id="w" x1="5937.1" x2="5937.6" xlink:actuate="onLoad" xlink:show="other" xlink:type="simple" xmlns:xlink="http://www.w3.org/1999/xlink" y1="3125.8" y2="3125.8"><stop offset="0" stop-color="#D13506"/><stop offset="1" stop-color="#942B04"/></linearGradient><path d="m37.7-9.7c0.133 0.1 0.35 0.1 0.65 0 0.267-0.1 0.483-0.233 0.65-0.4 0.1-0.1 0.233-0.25 0.4-0.45 0.167-0.1 0.283-0.217 0.35-0.35 0.067-0.1 0.067-0.15 0-0.15-0.1 0-0.35 0.083-0.75 0.25-0.467 0.167-0.767 0.3-0.9 0.4l-0.55 0.55 0.15 0.15z" fill="url(#w)"/><linearGradient gradientTransform="rotate(34.875 8166.932 -8182.898)" gradientUnits="userSpaceOnUse" id="x" x1="6171.5" x2="6172.5" xlink:actuate="onLoad" xlink:show="other" xlink:type="simple" xmlns:xlink="http://www.w3.org/1999/xlink" y1="3168.4" y2="3168.4"><stop offset="0" stop-color="#D13506"/><stop offset="1" stop-color="#942B04"/></linearGradient><path d="m38.05-11.05c0.5 0.7 1.017 0.9 1.55 0.6 0.367-0.167 0.816-0.466 1.35-0.9 0.066-0.033-0.1-0.117-0.5-0.25-0.467-0.133-0.8-0.2-1-0.2-0.233 0-0.583 0.05-1.05 0.15s-0.733 0.183-0.8 0.25c-0.033 0.033 0.033 0.1 0.2 0.2 0.067 0.067 0.15 0.117 0.25 0.15z" fill="url(#x)"/><linearGradient gradientTransform="rotate(34.286 8167.682 -8183.542)" gradientUnits="userSpaceOnUse" id="y" x1="6056.2" x2="6056.9" xlink:actuate="onLoad" xlink:show="other" xlink:type="simple" xmlns:xlink="http://www.w3.org/1999/xlink" y1="3145.9" y2="3145.9"><stop offset="0" stop-color="#D13506"/><stop offset="1" stop-color="#942B04"/></linearGradient><path d="m41.55-11.15c0.534-0.4 0.717-0.667 0.55-0.8-0.1-0.1-0.333-0.15-0.7-0.15-0.5 0.033-0.883 0.05-1.15 0.05-0.3 0.033-0.4 0.133-0.3 0.3l0.3 0.3c0.1 0.133 0.267 0.25 0.5 0.35 0.3 0.133 0.567 0.117 0.8-0.05z" fill="url(#y)"/><linearGradient gradientTransform="rotate(34.995 8166.139 -8182.63)" gradientUnits="userSpaceOnUse" id="z" x1="6197.9" x2="6198.5" xlink:actuate="onLoad" xlink:show="other" xlink:type="simple" xmlns:xlink="http://www.w3.org/1999/xlink" y1="3171.2" y2="3171.2"><stop offset="0" stop-color="#D13506"/><stop offset="1" stop-color="#942B04"/></linearGradient><path d="m41.65-10.45c0.067 0.067 0.2 0.217 0.4 0.45 0.2 0.167 0.417 0.217 0.65 0.15 0.367-0.1 0.716-0.333 1.05-0.7-0.467-0.2-0.867-0.284-1.2-0.25-0.2 0.033-0.417 0.1-0.65 0.2l-0.25 0.15z" fill="url(#z)"/><linearGradient gradientTransform="rotate(33.688 8167.185 -8182.995)" gradientUnits="userSpaceOnUse" id="A" x1="5941.7" x2="5942.1" xlink:actuate="onLoad" xlink:show="other" xlink:type="simple" xmlns:xlink="http://www.w3.org/1999/xlink" y1="3121.9" y2="3121.9"><stop offset="0" stop-color="#D13506"/><stop offset="1" stop-color="#942B04"/></linearGradient><path d="m44.7-10.8c0.367-0.067 0.533-0.2 0.5-0.4-0.067-0.167-0.25-0.267-0.55-0.3-0.2-0.033-0.35 0-0.45 0.1s-0.184 0.183-0.25 0.25c-0.1 0.1-0.05 0.183 0.15 0.25 0.2 0.1 0.4 0.133 0.6 0.1z" fill="url(#A)"/><linearGradient gradientTransform="rotate(32.471 8166.679 -8182.575)" gradientUnits="userSpaceOnUse" id="B" x1="5698.5" x2="5698.8" xlink:actuate="onLoad" xlink:show="other" xlink:type="simple" xmlns:xlink="http://www.w3.org/1999/xlink" y1="3075.9" y2="3075.9"><stop offset="0" stop-color="#D13506"/><stop offset="1" stop-color="#942B04"/></linearGradient><path d="m39.9-9.15c0.167-0.067 0.3-0.167 0.4-0.3s0.1-0.233 0-0.3c-0.2-0.1-0.55-0.033-1.05 0.2-0.133 0.033-0.083 0.117 0.15 0.25 0.233 0.167 0.4 0.217 0.5 0.15z" fill="url(#B)"/><linearGradient gradientTransform="rotate(34.216 8167.03 -8183.155)" gradientUnits="userSpaceOnUse" id="C" x1="6035.6" x2="6037.1" xlink:actuate="onLoad" xlink:show="other" xlink:type="simple" xmlns:xlink="http://www.w3.org/1999/xlink" y1="3144" y2="3144"><stop offset="0" stop-color="#D13506"/><stop offset="1" stop-color="#942B04"/></linearGradient><path d="m36.9-13.75c0.767-0.833 1.017-1.333 0.75-1.5-0.233-0.133-0.7-0.267-1.4-0.4-0.733-0.167-1.333-0.25-1.8-0.25-0.367 0.033-0.75 0.15-1.15 0.35l-0.45 0.35 0.6 1c0.1 0.2 0.35 0.434 0.75 0.7 0.433 0.333 0.783 0.517 1.05 0.55 0.267 0.034 0.567-0.05 0.9-0.25 0.167-0.1 0.417-0.283 0.75-0.55z" fill="url(#C)"/><linearGradient gradientTransform="rotate(35.217 8166.738 -8182.776)" gradientUnits="userSpaceOnUse" id="D" x1="6237.1" x2="6237.6" xlink:actuate="onLoad" xlink:show="other" xlink:type="simple" xmlns:xlink="http://www.w3.org/1999/xlink" y1="3177.1" y2="3177.1"><stop offset="0" stop-color="#D13506"/><stop offset="1" stop-color="#942B04"/></linearGradient><path d="m39.35-14.65c0.533-0.133 0.75-0.283 0.65-0.45s-0.317-0.267-0.65-0.3c-0.434-0.1-0.767-0.033-1 0.2-0.133 0.1-0.067 0.233 0.2 0.4 0.233 0.167 0.5 0.217 0.8 0.15z" fill="url(#D)"/><g id="change1_1"><path d="m31.4-8.6c0.267-0.333 0.4-0.55 0.4-0.65s-0.033-0.217-0.1-0.35c-0.034-0.233-0.267-0.35-0.7-0.35s-0.683 0.2-0.75 0.6c-0.1 0.533-0.05 0.934 0.15 1.2 0.2 0.267 0.533 0.117 1-0.45z" fill="#782203"/></g><g id="change1_2"><path d="m34.2-8.9c0.667-0.367 0.85-0.75 0.55-1.15-0.133-0.2-0.383-0.184-0.75 0.05-0.367 0.2-0.567 0.433-0.6 0.7-0.067 0.633 0.2 0.767 0.8 0.4z" fill="#782203"/></g><g id="change1_3"><path d="m35.75-9.65c0.233-0.2 0.367-0.333 0.4-0.4 0.033-0.034 0-0.1-0.1-0.2-0.167-0.167-0.4-0.117-0.7 0.15-0.167 0.133-0.167 0.267 0 0.4 0.167 0.167 0.3 0.183 0.4 0.05z" fill="#782203"/></g><g id="change1_4"><path d="m28.55-5.8c0.233-0.167 0.367-0.367 0.4-0.6s-0.1-0.417-0.4-0.55c-0.233-0.1-0.417-0.033-0.55 0.2-0.1 0.367-0.2 0.633-0.3 0.8-0.133 0.233-0.083 0.367 0.15 0.4 0.2 0.067 0.433-0.017 0.7-0.25z" fill="#782203"/></g><g id="change1_5"><path d="m30.55-6.4c0.534-0.4 0.684-0.733 0.45-1-0.2-0.233-0.533-0.067-1 0.5-0.2 0.233-0.2 0.417 0 0.55 0.167 0.133 0.35 0.117 0.55-0.05z" fill="#782203"/></g><g id="change1_6"><path d="m32.35-9.7c0.267-0.233 0.417-0.466 0.45-0.7 0.067-0.3-0.05-0.467-0.35-0.5s-0.5 0.066-0.6 0.3-0.1 0.45 0 0.65c0.167 0.333 0.333 0.417 0.5 0.25z" fill="#782203"/></g><g id="change1_7"><path d="m24.55-3.25c0.2-0.167 0.317-0.35 0.35-0.55 0.033-0.267-0.1-0.45-0.4-0.55s-0.533 0.017-0.7 0.35c-0.167 0.3-0.25 0.617-0.25 0.95 0 0.4 0.333 0.333 1-0.2z" fill="#782203"/></g><g id="change1_8"><path d="m23-2.7c0.3-0.333 0.283-0.566-0.05-0.7-0.1-0.067-0.217-0.017-0.35 0.15-0.133 0.133-0.2 0.283-0.2 0.45s0.067 0.25 0.2 0.25c0.133 0.033 0.267-0.017 0.4-0.15z" fill="#782203"/></g><g id="change1_9"><path d="m27.85-7.95c0.433-0.867 0.267-1.4-0.5-1.6-0.367-0.1-0.5 0.367-0.4 1.4 0.033 0.3 0.167 0.467 0.4 0.5 0.2 0.033 0.367-0.067 0.5-0.3z" fill="#782203"/></g><g id="change1_10"><path d="m29-9.2c0.233-0.267 0.3-0.566 0.2-0.9-0.034-0.133-0.15-0.167-0.35-0.1-0.233 0.067-0.4 0.233-0.5 0.5-0.1 0.3-0.033 0.483 0.2 0.55 0.233 0.1 0.383 0.083 0.45-0.05z" fill="#782203"/></g><g id="change1_11"><path d="m27.65-11.25c0.2-0.233 0.333-0.533 0.4-0.9 0.1-0.4 0.034-0.633-0.2-0.7-0.267-0.1-0.467-0.083-0.6 0.05-0.133 0.1-0.283 0.333-0.45 0.7-0.167 0.333-0.117 0.617 0.15 0.85 0.267 0.267 0.5 0.267 0.7 0z" fill="#782203"/></g><g id="change1_12"><path d="m24.65-11.2c0.1 0.034 0.25-0.066 0.45-0.3 0.233-0.267 0.333-0.467 0.3-0.6-0.066-0.3-0.367-0.4-0.9-0.3-0.233 0.033-0.317 0.233-0.25 0.6s0.2 0.567 0.4 0.6z" fill="#782203"/></g><g id="change1_13"><path d="m31.95-11.45c0.2-0.167 0.316-0.35 0.35-0.55 0.034-0.233-0.05-0.4-0.25-0.5-0.367-0.167-0.65 0.033-0.85 0.6-0.1 0.2-0.05 0.367 0.15 0.5 0.2 0.167 0.4 0.15 0.6-0.05z" fill="#782203"/></g><g id="change1_14"><path d="m32.75-7.65c0.1-0.567-0.033-0.9-0.4-1-0.2-0.067-0.333 0-0.4 0.2-0.034 0.3-0.083 0.517-0.15 0.65-0.1 0.2-0.017 0.3 0.25 0.3 0.2 0 0.433-0.05 0.7-0.15z" fill="#782203"/></g><g id="change2_1"><path d="m17.3-2.85c0.567 0.267 0.717 0 0.45-0.8-0.1-0.233-0.267-0.4-0.5-0.5-0.3-0.1-0.633-0.05-1 0.15-0.567 0.333-0.217 0.717 1.05 1.15z" fill="#FC4C00"/></g><g id="change2_2"><path d="m15.9-4.55c0.2 0 0.317-0.117 0.35-0.35 0.033-0.2-0.033-0.35-0.2-0.45-0.267-0.2-0.5-0.133-0.7 0.2-0.133 0.4 0.05 0.6 0.55 0.6z" fill="#FC4C00"/></g><g id="change2_3"><path d="m21.2-2.85c0.167-0.433 0-0.733-0.5-0.9-0.167-0.1-0.25-0.05-0.25 0.15-0.034 0.167-0.034 0.333 0 0.5 0.033 0.133 0.15 0.25 0.35 0.35s0.333 0.067 0.4-0.1z" fill="#FC4C00"/></g><g id="change2_4"><path d="m19.25-4.3l0.55 0.15c0.034 0 0.05-0.083 0.05-0.25 0-0.333-0.167-0.467-0.5-0.4-0.133 0.033-0.217 0.117-0.25 0.25s0.017 0.217 0.15 0.25z" fill="#FC4C00"/></g><g id="change2_5"><path d="m12.25-5.9c0.333 0.1 0.55 0.05 0.65-0.15 0.067-0.133 0.033-0.333-0.1-0.6-0.2-0.4-0.667-0.483-1.4-0.25-0.267 0.1-0.233 0.283 0.1 0.55 0.233 0.2 0.483 0.35 0.75 0.45z" fill="#FC4C00"/></g><g id="change2_6"><path d="m14.05-5.65c0.4 0.167 0.583 0.1 0.55-0.2-0.067-0.333-0.217-0.583-0.45-0.75-0.367-0.2-0.65-0.167-0.85 0.1-0.167 0.233 0.083 0.517 0.75 0.85z" fill="#FC4C00"/></g><g id="change2_7"><path d="m9.05-8.4c0.233 0.033 0.383-0.083 0.45-0.35s-0.05-0.517-0.35-0.75c-0.267-0.233-0.517-0.333-0.75-0.3-0.1 0.033-0.317 0.15-0.65 0.35-0.233 0.133-0.183 0.333 0.15 0.6 0.333 0.233 0.717 0.383 1.15 0.45z" fill="#FC4C00"/></g><g id="change2_8"><path d="m10.35-8.1c0.267 0.067 0.433 0.017 0.5-0.15 0.066-0.167-0.017-0.35-0.25-0.55-0.233-0.167-0.4-0.233-0.5-0.2s-0.2 0.067-0.3 0.1c-0.167 0-0.167 0.117 0 0.35 0.133 0.267 0.317 0.417 0.55 0.45z" fill="#FC4C00"/></g><g id="change2_9"><path d="m15.65-8.15c0.833 0.033 0.917-0.367 0.25-1.2-0.233-0.3-0.417-0.417-0.55-0.35-0.133 0.167-0.283 0.284-0.45 0.35-0.233 0.067-0.25 0.283-0.05 0.65 0.167 0.367 0.433 0.55 0.8 0.55z" fill="#FC4C00"/></g><g id="change2_10"><path d="m18.55-8.5c0.167 0.033 0.317-0.033 0.45-0.2 0.167-0.167 0.217-0.3 0.15-0.4-0.066-0.167-0.383-0.217-0.95-0.15-0.233 0.067-0.317 0.2-0.25 0.4 0.1 0.2 0.3 0.317 0.6 0.35z" fill="#FC4C00"/></g><g id="change2_11"><path d="m18.35-9.7c0.2-0.033 0.316-0.1 0.35-0.2 0.033-0.133 0-0.233-0.1-0.3-0.167-0.2-0.4-0.15-0.7 0.15-0.133 0.1-0.133 0.2 0 0.3 0.133 0.067 0.283 0.083 0.45 0.05z" fill="#FC4C00"/></g><g id="change2_12"><path d="m14.2-11.1c0.6 0.233 0.917 0.083 0.95-0.45 0-0.5-0.15-0.833-0.45-1-0.333-0.2-0.65-0.034-0.95 0.5-0.1 0.167-0.1 0.35 0 0.55s0.25 0.333 0.45 0.4z" fill="#FC4C00"/></g><g id="change2_13"><path d="m10.35-10.15c0.367 0.2 0.633 0.267 0.8 0.2 0.133-0.066 0.184-0.183 0.15-0.35-0.066-0.333-0.316-0.534-0.75-0.6-0.267-0.067-0.417 0.017-0.45 0.25 0 0.2 0.083 0.367 0.25 0.5z" fill="#FC4C00"/></g><g id="change2_14"><path d="m20.75-11.8c0.767 0.033 0.8-0.233 0.1-0.8-0.133-0.1-0.233-0.117-0.3-0.05-0.066 0.066-0.133 0.117-0.2 0.15-0.1 0.067-0.1 0.2 0 0.4 0.067 0.2 0.2 0.3 0.4 0.3z" fill="#FC4C00"/></g><g id="change2_15"><path d="m17.45-13.3c0.3-0.067 0.466-0.25 0.5-0.55 0-0.333-0.167-0.583-0.5-0.75-0.3-0.133-0.467-0.167-0.5-0.1-0.067 0.2-0.15 0.367-0.25 0.5-0.133 0.2-0.083 0.4 0.15 0.6 0.2 0.233 0.4 0.333 0.6 0.3z" fill="#FC4C00"/></g><g id="change2_16"><path d="m20.6-14.6c0.367-0.233 0.45-0.5 0.25-0.8-0.1-0.133-0.184-0.167-0.25-0.1-0.133 0.1-0.283 0.217-0.45 0.35-0.2 0.167-0.217 0.316-0.05 0.45 0.167 0.133 0.333 0.167 0.5 0.1z" fill="#FC4C00"/></g><g id="change2_17"><path d="m29.6-13.1c0.433 0.033 0.633-0.133 0.6-0.5-0.034-0.333-0.15-0.633-0.35-0.9-0.1-0.167-0.283-0.167-0.55 0-0.2 0.133-0.333 0.283-0.4 0.45-0.1 0.133-0.083 0.3 0.05 0.5 0.133 0.267 0.35 0.417 0.65 0.45z" fill="#FC4C00"/></g><g id="change2_18"><path d="m0.7-11.2c0.2-0.167 0.25-0.3 0.15-0.4-0.067-0.066-0.2-0.05-0.4 0.05-0.233 0.1-0.15 0.217 0.25 0.35z" fill="#FC4C00"/></g><g id="change2_19"><path d="m3.05-10.15c0.2 0.066 0.267-0.05 0.2-0.35-0.067-0.267-0.233-0.383-0.5-0.35s-0.333 0.15-0.2 0.35c0.133 0.167 0.3 0.283 0.5 0.35z" fill="#FC4C00"/></g><g id="change2_20"><path d="m4.05-12.35c0.133 0 0.167-0.066 0.1-0.2-0.033-0.1-0.15-0.15-0.35-0.15s-0.233 0.05-0.1 0.15c0.1 0.133 0.217 0.2 0.35 0.2z" fill="#FC4C00"/></g><g id="change2_21"><path d="m10.05-13.25c0.133-0.033 0.2-0.1 0.2-0.2 0.033-0.1-0.05-0.15-0.25-0.15s-0.267 0.067-0.2 0.2 0.15 0.183 0.25 0.15z" fill="#FC4C00"/></g><g id="change2_22"><path d="m11.75-13.45c0.167 0 0.283-0.083 0.35-0.25 0.066-0.167 0.033-0.316-0.1-0.45-0.1-0.1-0.217-0.1-0.35 0-0.167 0.133-0.316 0.267-0.45 0.4-0.3 0.3-0.117 0.4 0.55 0.3z" fill="#FC4C00"/></g><g id="change2_23"><path d="m28.2-15.25c0.1 0 0.167-0.1 0.2-0.3s0.033-0.35 0-0.45c-0.167-0.167-0.5-0.083-1 0.25-0.233 0.167-0.233 0.3 0 0.4 0.2 0.067 0.467 0.1 0.8 0.1z" fill="#FC4C00"/></g><g id="change2_24"><path d="m34.05-14c0.167 0.067 0.35-0.017 0.55-0.25 0.2-0.267 0.3-0.5 0.3-0.7-0.033-0.167-0.217-0.283-0.55-0.35-0.3-0.034-0.583-0.017-0.85 0.05-0.2 0.067-0.233 0.267-0.1 0.6s0.35 0.55 0.65 0.65z" fill="#FC4C00"/></g><g id="change2_25"><path d="m34.8-11.95c0.267 0 0.35-0.133 0.25-0.4-0.066-0.167-0.2-0.267-0.4-0.3s-0.35 0-0.45 0.1c-0.067 0.1-0.034 0.216 0.1 0.35 0.167 0.167 0.333 0.25 0.5 0.25z" fill="#FC4C00"/></g><g id="change2_26"><path d="m36.65-12.25c0.133 0.033 0.233 0.017 0.3-0.05 0.1-0.1 0.15-0.217 0.15-0.35 0-0.267-0.217-0.367-0.65-0.3-0.2 0.034-0.25 0.15-0.15 0.35 0.067 0.167 0.183 0.283 0.35 0.35z" fill="#FC4C00"/></g><g id="change2_27"><path d="m40.7-13.15c0.066-0.133 0.05-0.233-0.05-0.3-0.066-0.066-0.2-0.1-0.4-0.1l-0.3 0.05c0 0.067 0.017 0.15 0.05 0.25 0.033 0.133 0.15 0.217 0.35 0.25 0.167 0.033 0.283-0.017 0.35-0.15z" fill="#FC4C00"/></g><g id="change2_28"><path d="m40.65-11.4c0.133 0.033 0.217 0 0.25-0.1s0-0.2-0.1-0.3c-0.133-0.133-0.333-0.15-0.6-0.05-0.1 0.033-0.083 0.117 0.05 0.25 0.133 0.1 0.267 0.167 0.4 0.2z" fill="#FC4C00"/></g><g id="change2_29"><path d="m38.55-10.75c0.167 0.1 0.284 0.017 0.35-0.25 0.1-0.267 0.1-0.45 0-0.55-0.066-0.067-0.25 0.05-0.55 0.35-0.067 0.034-0.083 0.1-0.05 0.2 0.067 0.1 0.15 0.183 0.25 0.25z" fill="#FC4C00"/></g><g id="change2_30"><path d="m38.35-9.95c0.133-0.267 0.117-0.383-0.05-0.35-0.133 0-0.25 0.083-0.35 0.25-0.034 0.133 0.017 0.2 0.15 0.2 0.133 0.033 0.217 0 0.25-0.1z" fill="#FC4C00"/></g><g id="change2_31"><path d="m42.3-10c0.233-0.133 0.3-0.3 0.2-0.5-0.033-0.133-0.183-0.117-0.45 0.05-0.133 0.034-0.15 0.133-0.05 0.3s0.2 0.217 0.3 0.15z" fill="#FC4C00"/></g><g id="change2_32"><path d="m16-15.6c0.233 0 0.367-0.017 0.4-0.05s0.067-0.117 0.1-0.25c0.1-0.133 0.133-0.217 0.1-0.25-0.067-0.033-0.3-0.017-0.7 0.05-0.367 0.1-0.483 0.2-0.35 0.3 0.1 0.133 0.25 0.2 0.45 0.2z" fill="#FC4C00"/></g><g id="change2_33"><path d="m15.05-16.4c0.2-0.033 0.217-0.1 0.05-0.2-0.133-0.1-0.3-0.117-0.5-0.05-0.167 0.066-0.184 0.133-0.05 0.2 0.133 0.067 0.3 0.083 0.5 0.05z" fill="#FC4C00"/></g></g></symbol><use height="17.3" transform="matrix(1 0 0 -1 .15 0)" width="45.217" x="-.012" xlink:actuate="onLoad" xlink:href="#E" xlink:show="embed" xlink:type="simple" xmlns:xlink="http://www.w3.org/1999/xlink" y="-17.3"/></svg>