<?xml version="1.0" encoding="UTF-8"?><svg xmlns="http://www.w3.org/2000/svg" xmlns:xlink="http://www.w3.org/1999/xlink" height="291.7" preserveAspectRatio="xMidYMid meet" version="1.0" viewBox="84.1 66.8 256.9 291.7" width="256.9" zoomAndPan="magnify"><g><g id="change1_1"><path d="M 332.871094 317.15625 L 212.601562 358.441406 L 92.332031 317.152344 L 92.332031 203.140625 L 332.871094 189.703125 L 332.871094 317.15625" fill="#be6421"/></g><g id="change2_1"><path d="M 261.976562 341.492188 L 291.25 331.441406 L 291.25 192.023438 L 261.976562 193.660156 L 261.976562 341.492188" fill="#ee2630"/></g><g id="change2_2"><path d="M 129.582031 329.941406 L 158.855469 339.992188 L 158.855469 199.421875 L 129.582031 201.0625 L 129.582031 329.941406" fill="#ee2630"/></g><g id="change3_1"><path d="M 341.0625 217.09375 L 212.601562 247.460938 L 84.140625 217.09375 L 84.140625 176.917969 L 341.0625 176.917969 L 341.0625 217.09375" fill="#f6832b"/></g><g id="change2_3"><path d="M 295.183594 228.234375 L 265.910156 235.15625 L 265.910156 178.558594 L 295.183594 178.558594 L 295.183594 228.234375" fill="#ee2630"/></g><g id="change2_4"><path d="M 124.339844 226.597656 L 153.613281 233.515625 L 153.613281 176.917969 L 124.339844 176.917969 L 124.339844 226.597656" fill="#ee2630"/></g><g id="change4_1"><path d="M 84.140625 176.933594 L 215.222656 155.964844 L 341.0625 176.933594 L 213.472656 203.152344 L 84.140625 176.933594" fill="#fac08c"/></g><g id="change2_5"><path d="M 124.339844 185.085938 L 212.601562 166.1875 L 222.433594 166.1875 L 153.613281 192.023438 L 124.339844 185.085938" fill="#ee2630"/></g><g id="change2_6"><path d="M 295.183594 186.363281 L 206.921875 166.636719 L 197.089844 166.636719 L 265.910156 192.476562 L 295.183594 186.363281" fill="#ee2630"/></g><g id="change5_1"><path d="M 202.460938 164.195312 C 202.460938 164.195312 132.640625 146.253906 100.523438 159.824219 L 114.945312 168.605469 C 114.945312 168.605469 111.699219 171.28125 105.128906 181.191406 C 105.128906 181.191406 164.644531 172.863281 204.285156 167.972656 L 202.460938 164.195312" fill="#d91e25"/></g><g id="change5_2"><path d="M 220.507812 162.863281 C 220.507812 162.863281 290.332031 144.917969 322.445312 158.492188 L 308.027344 167.273438 C 308.027344 167.273438 311.273438 169.953125 317.84375 179.859375 C 317.84375 179.859375 258.328125 171.53125 218.6875 166.636719 L 220.507812 162.863281" fill="#d91e25"/></g><g id="change5_3"><path d="M 172.617188 66.757812 C 172.617188 66.757812 200.386719 70.691406 206.699219 159.824219 C 206.699219 159.824219 143.800781 98.867188 172.617188 66.757812" fill="#d91e25"/></g><g id="change2_7"><path d="M 198.179688 168.605469 L 206.699219 159.824219 C 206.699219 159.824219 165.410156 117.679688 172.617188 66.757812 C 172.617188 66.757812 118.640625 81.828125 100.523438 122.464844 C 100.523438 122.464844 105.765625 141.335938 198.179688 168.605469" fill="#ee2630"/></g><g id="change6_1"><path d="M 100.554688 122.398438 C 100.554688 122.394531 100.558594 122.390625 100.558594 122.386719 C 100.558594 122.390625 100.554688 122.394531 100.554688 122.398438" fill="#f8a08e"/></g><g id="change7_1"><path d="M 206.699219 159.824219 C 206.699219 159.824219 198.171875 151.117188 189.542969 136.839844 C 189.546875 136.839844 189.550781 136.839844 189.554688 136.835938 C 198.179688 151.105469 206.699219 159.824219 206.699219 159.824219" fill="#d91f25"/></g><g id="change8_1"><path d="M 198.179688 168.605469 C 105.765625 141.335938 100.523438 122.464844 100.523438 122.464844 C 100.535156 122.441406 100.542969 122.421875 100.554688 122.398438 C 100.554688 122.394531 100.558594 122.390625 100.558594 122.386719 C 101.828125 119.550781 103.289062 116.847656 104.875 114.257812 C 116.617188 124.125 140.722656 141.121094 167.378906 141.117188 C 174.640625 141.117188 182.101562 139.855469 189.542969 136.839844 C 198.171875 151.117188 206.699219 159.824219 206.699219 159.824219 L 198.179688 168.605469" fill="#ee222c"/></g><g id="change5_4"><path d="M 251.558594 66.757812 C 251.558594 66.757812 223.796875 70.691406 217.476562 159.824219 C 217.476562 159.824219 280.382812 98.867188 251.558594 66.757812" fill="#d91e25"/></g><g id="change2_8"><path d="M 225.996094 168.605469 L 217.476562 159.824219 C 217.476562 159.824219 258.769531 117.679688 251.558594 66.757812 C 251.558594 66.757812 305.539062 81.828125 323.65625 122.464844 C 323.65625 122.464844 318.410156 141.335938 225.996094 168.605469" fill="#ee2630"/></g><g id="change7_2"><path d="M 217.476562 159.824219 C 217.476562 159.824219 226 151.105469 234.625 136.835938 C 234.628906 136.839844 234.632812 136.839844 234.636719 136.839844 C 226.007812 151.117188 217.476562 159.824219 217.476562 159.824219" fill="#d91f25"/></g><g id="change8_2"><path d="M 225.996094 168.605469 L 217.476562 159.824219 C 217.476562 159.824219 226.007812 151.117188 234.636719 136.839844 C 242.078125 139.855469 249.539062 141.117188 256.800781 141.117188 C 283.457031 141.117188 307.5625 124.125 319.304688 114.257812 C 320.902344 116.871094 322.375 119.601562 323.65625 122.464844 C 323.65625 122.464844 320.148438 135.066406 268.445312 154.554688 C 257.445312 158.699219 244.277344 163.152344 228.488281 167.863281 C 227.667969 168.109375 226.832031 168.355469 225.996094 168.605469" fill="#ee222c"/></g><g id="change2_9"><path d="M 197.089844 169.511719 C 197.089844 169.511719 209.242188 175.203125 227.675781 168.152344 C 227.675781 168.152344 225.609375 156.382812 210.535156 156.710938 C 210.535156 156.710938 196.65625 158.738281 197.089844 169.511719" fill="#ee2630"/></g></g></svg>